<mxfile host="app.diagrams.net" agent="Mozilla/5.0 (X11; Ubuntu; Linux x86_64; rv:132.0) Gecko/20100101 Firefox/132.0" version="25.0.1">
  <diagram name="Page-1" id="t9Q6KAC9N-I4GcvEuLhX">
    <mxGraphModel dx="1990" dy="1078" grid="1" gridSize="10" guides="1" tooltips="1" connect="1" arrows="1" fold="1" page="1" pageScale="1" pageWidth="850" pageHeight="1100" math="0" shadow="0">
      <root>
        <mxCell id="0" />
        <mxCell id="1" parent="0" />
        <mxCell id="EgpE4ko5B40qQ6mzI_Y0-37" value="" style="rounded=1;whiteSpace=wrap;html=1;strokeColor=#26a269;strokeWidth=3;" vertex="1" parent="1">
          <mxGeometry x="60" y="10" width="1600" height="920" as="geometry" />
        </mxCell>
        <mxCell id="JF5nL9rpV0ovMVN0kRnF-7" value="" style="ellipse;shape=cloud;whiteSpace=wrap;html=1;strokeColor=#26a269;" parent="1" vertex="1">
          <mxGeometry x="1283" y="70" width="320" height="230" as="geometry" />
        </mxCell>
        <mxCell id="JF5nL9rpV0ovMVN0kRnF-9" value="Configurations Store" style="verticalLabelPosition=bottom;html=1;verticalAlign=top;align=center;strokeColor=none;fillColor=#000000;shape=mxgraph.azure.cloud_services_configuration_file;pointerEvents=1;strokeWidth=0;" parent="1" vertex="1">
          <mxGeometry x="743" y="165.71" width="70" height="80" as="geometry" />
        </mxCell>
        <mxCell id="JF5nL9rpV0ovMVN0kRnF-18" value="QUEUE" style="outlineConnect=0;dashed=0;verticalLabelPosition=bottom;verticalAlign=top;align=center;html=1;shape=mxgraph.aws3.queue;fillColor=#D9A741;gradientColor=none;" parent="1" vertex="1">
          <mxGeometry x="470" y="442" width="106.5" height="90" as="geometry" />
        </mxCell>
        <mxCell id="JF5nL9rpV0ovMVN0kRnF-21" value="" style="ellipse;shape=cloud;whiteSpace=wrap;html=1;strokeColor=#26a269;" parent="1" vertex="1">
          <mxGeometry x="1273" y="580" width="320" height="230" as="geometry" />
        </mxCell>
        <mxCell id="JF5nL9rpV0ovMVN0kRnF-49" style="edgeStyle=orthogonalEdgeStyle;rounded=0;orthogonalLoop=1;jettySize=auto;html=1;exitX=1;exitY=0.75;exitDx=0;exitDy=0;startArrow=classic;startFill=1;" parent="1" source="JF5nL9rpV0ovMVN0kRnF-25" target="JF5nL9rpV0ovMVN0kRnF-21" edge="1">
          <mxGeometry relative="1" as="geometry" />
        </mxCell>
        <mxCell id="JF5nL9rpV0ovMVN0kRnF-63" style="edgeStyle=orthogonalEdgeStyle;rounded=0;orthogonalLoop=1;jettySize=auto;html=1;exitX=0.5;exitY=0;exitDx=0;exitDy=0;startArrow=block;startFill=1;" parent="1" edge="1">
          <mxGeometry relative="1" as="geometry">
            <mxPoint x="778" y="365" as="sourcePoint" />
            <mxPoint x="778" y="275" as="targetPoint" />
            <Array as="points">
              <mxPoint x="778" y="275" />
              <mxPoint x="778" y="275" />
            </Array>
          </mxGeometry>
        </mxCell>
        <mxCell id="EgpE4ko5B40qQ6mzI_Y0-33" value="" style="rounded=0;orthogonalLoop=1;jettySize=auto;html=1;endArrow=classic;endFill=1;startArrow=classic;startFill=1;" edge="1" parent="1" source="JF5nL9rpV0ovMVN0kRnF-25" target="JF5nL9rpV0ovMVN0kRnF-18">
          <mxGeometry relative="1" as="geometry" />
        </mxCell>
        <mxCell id="JF5nL9rpV0ovMVN0kRnF-25" value="&lt;font style=&quot;font-size: 18px;&quot;&gt;GreenCloudServices&lt;/font&gt;" style="rounded=1;whiteSpace=wrap;html=1;" parent="1" vertex="1">
          <mxGeometry x="680" y="370" width="190" height="230" as="geometry" />
        </mxCell>
        <mxCell id="JF5nL9rpV0ovMVN0kRnF-27" value="&lt;font style=&quot;font-size: 18px;&quot;&gt;GUI &lt;/font&gt;" style="rounded=1;whiteSpace=wrap;html=1;" parent="1" vertex="1">
          <mxGeometry x="253" y="294" width="127" height="400" as="geometry" />
        </mxCell>
        <mxCell id="JF5nL9rpV0ovMVN0kRnF-47" style="edgeStyle=orthogonalEdgeStyle;rounded=0;orthogonalLoop=1;jettySize=auto;html=1;exitX=1;exitY=0.5;exitDx=0;exitDy=0;entryX=0.094;entryY=0.609;entryDx=0;entryDy=0;entryPerimeter=0;startArrow=classic;startFill=1;" parent="1" source="JF5nL9rpV0ovMVN0kRnF-25" target="JF5nL9rpV0ovMVN0kRnF-7" edge="1">
          <mxGeometry relative="1" as="geometry">
            <Array as="points">
              <mxPoint x="1073" y="485" />
              <mxPoint x="1073" y="210" />
            </Array>
          </mxGeometry>
        </mxCell>
        <mxCell id="JF5nL9rpV0ovMVN0kRnF-54" value="" style="sketch=0;verticalLabelPosition=bottom;sketch=0;aspect=fixed;html=1;verticalAlign=top;strokeColor=none;fillColor=#000000;align=center;outlineConnect=0;pointerEvents=1;shape=mxgraph.citrix2.laptop;" parent="1" vertex="1">
          <mxGeometry x="1473" y="127.14000000000001" width="50" height="38.57" as="geometry" />
        </mxCell>
        <mxCell id="JF5nL9rpV0ovMVN0kRnF-55" value="" style="fontColor=#0066CC;verticalAlign=top;verticalLabelPosition=bottom;labelPosition=center;align=center;html=1;outlineConnect=0;fillColor=#CCCCCC;strokeColor=#6881B3;gradientColor=none;gradientDirection=north;strokeWidth=2;shape=mxgraph.networks.desktop_pc;" parent="1" vertex="1">
          <mxGeometry x="1407.8" y="204.28" width="30" height="60" as="geometry" />
        </mxCell>
        <mxCell id="JF5nL9rpV0ovMVN0kRnF-56" value="" style="shape=image;verticalLabelPosition=bottom;labelBackgroundColor=default;verticalAlign=top;aspect=fixed;imageAspect=0;image=data:image/png,iVBORw0KGgoAAAANSUhEUgAAAMcAAAC2CAYAAABte5miAAAABHNCSVQICAgIfAhkiAAAABl0RVh0U29mdHdhcmUAZ25vbWUtc2NyZWVuc2hvdO8Dvz4AAAAtdEVYdENyZWF0aW9uIFRpbWUAV2VkIDA0IERlYyAyMDI0IDA0OjI3OjI1IFBNIElTVK4lEA8AACAASURBVHic7J13uF1Fuf8/s8puZ5+eU3LSTwppJIEQSiiGJiCKHbgWVIqICPhwL+D16hVEkCKKCjZApBn6FZEOhlBCgCSQ3k96z+lll7XWzO+PWWvtvU+JgCE5+T15nyfZ++y99qyZWfN9+7wjlFKKg3SQDlIPMvZ3Bw7SQeqvdBAcB+kg9UEHwXGQDlIfdBAcB+kg9UEHwXGQDlIfdBAcB+kg9UEHwXGQDlIfZOX/oZTC8zyklCil6A8hEKUUQohe+6KUwjB64rurq4uFCxcyf/58HMchkShiypTJjBs3jjVr1vDrX/+aRx99FMuKcM45X+a8877BYYdNIR6P4zgOXV1dWJZFcXFxr+1LKQHC74I+flwUjD2Yh77GDdDe3k4mkyEajYbjWbp0KU8//TR//OMfaW1t5ZRTTuGKK65g2rRprFu3jiVLltDU1ITruowbN47p06dTWlraZz+6U9Cvj3MO9hYJIRBCYBgGpmnusc9CKaWklLiuGz70/kD5oAjA2ttgurq6aGhooLm5GSEEruty++2388ILL/Roc8SI4WzevAXHcXp8N2bMWD7/+c/yzjvv8N5771FXV8eZZ57Jueeey/jx4wFwHBfLyvXB8zwMw/hYF0d+u57nYZpm+F02m8W2bYQQbN++nSeeeIKZM2fS0NDAiBHDOfbY41i1alW3uTAASTQao6goQVNTU497Dh06lDvvvJOysjJSqRTl5eUMGTKkV8C4rhsutgMJJAEZhoFlWb0yG5HNZpXnefuhW31TPjBc18W27YLvHMchEomwePESbr/9Vzz22GM9Frz+vUAIMEwTlCQ3TgNQgMIwLVAKKXufg5KSEq666mri8RibNm2ipKSY8eMncMIJJ1BRURECpPC+/94C6U1aep6HZVmkUilmzZrFihUr2Lp1K9XVVcRice6//36WLl3aa3tCGAhhgJBITxaO3zARhgAU0lOAQKmec3Hqqady5ZVXcvzxx4d9tKyc4uF5XgiSAw0gAKZpFqwzAJFKpfar7tRdZQikV6A6GIZBQ0MD8+fPZ+PGjTQ3t5DJpCkrK2XmzIdZu3YtpmnpB2MKlFS4rkIpD2EaqDzgm5aFChaB0osjIA0S/bFSHqZlAAae21PKAHzqU5/ihhtuYOzYsWSzWd2G399/Z4F0ZwygF14sFmPjxo3cdNNN3Hvvvb3+1jQtECClh5IiB9oQFGBFTdyM1JzeEHj+PXIkAIFl+eNAgRI4Tpa6ujq+/OUvYVk22WyWsrIyRo0axdixY5k0aRKQkySQU2EOFIkihCASieT6vz/BkT9hruuilOqB3j/96U/cd999LFiwoNc2TNPC8ySQUwlN20QpMEzBoLEVlNYk2LK8icZNbQXXTJgxBCftsvz1zQAYlol0JXbUwMloUBmmhSEMdDcFwlAYwiSdTjFx4kTuueeecGEEY5JSYprmh14QwfWe5/XgzJs2beLrX/86b7/9NrFYDNeVmuP7zMXzPA0MnxmYtoXnam6upKS4Ms7IIweybXUTu9a1+lIC7JjFwNFllFYnWf32VrIpB2GYgMJzAsYiMAwTKbsDSdOwYUO56KJvc+GFFxaoXlJ6eJ7EsqwDEiD7DRzdbYpAl960aRM7d+4kmUzywAMPcNtttwEQjcb0Dw0AgUADynP1QooV2wwaW8m2FU10tWfC+ww9tIozLj+CWLHNstkb2bmujWWvbsRJu0w4aRinfnsyG5fu4o0Hl7FzXStCQHFVEWOOqWPZqxvpas0gDAMl8ySNMLAtG8fJMHHiRM466yxaWloYOnQoF198MbFYDMdxsG27QDJ+kPnIt2MeffRR5syZQ3l5Oa+++ipz584lEomSzToYJqE00KDVIKg/vAbDMli/cBduRi/mSacM58gvHEKqI8OTP3uLVFuGunEVjDxsILVjyhk5rZb3nlnLrHsXk03lAFA1opRYMsKmxbsAA9PS+rnmFFoFE0qQTncBcOGFF3LBBRfgeR4VFRWMGDEC/OcU2IsHCkCi0ej+lxxBZ2bPns3vfvc7tmzZQktLC7FYjKVLl2pVAYHnueSrQQUkIJaM8Nmrj6K8tpitqxtp3d7FhkU7WP/+TorK4lx812kMGj+Alq0dbF6+m/nPrGXRC+v41q9OYfzJQ9m0ZBev3rOYRa+sBwEX/+F0EPDkz99i17pWEILygUkSZRG2LGtEGAYCowc3/fSnP82NN97I6NGjQ4B8kHkIgGGaJq2trVx22WU888wzdHV1hdeZpo3nuQgDlFSMmFLDlpWNOBmJkpKjvjSWE74+njkPL+fNmcsprUow4/xDmXJaPcnKGH+44Hk2r9jNid+cyLjjh1AxuIR4SZSX/rCAF+58j2RFnPojaqitL6OkJkHNiHJe/+syFr+yHuX1vUwMw0YI7ekcNWokAMlkkpqaWs4552z+4z/+AyllqGIdCGSa5v4BR76hKYRgzpw5fOUrX2HHjh0F1wlh+FqDAqGoP6yWQeMqiSZMpIS2nV1sX9PMtjUteI5HcWWcSx84k8q6YlLtWdobUzRubmfbyiZGHlFL1YgyPMcjURylvSnFpmW7qR1ZTiRhEU1YSBf+ec8iVr61mS9dexzDJlaxadkunvnlu6x9dzujjxrIZ646kr/+92y2r25BGKYvwxSmaflOAcnYsWO59dZbOeWUU3AcJ1SPelsY3YHR0NDAJZdcwmuvvQaAbUdQSqIUeJ5ECO3KPfH8SYw5uo6/XPkymQ6XT14yhWPOGUeyNM7zv5vHklkb+dzVxzB8chXpLgflKbasaCJaZDFobAXSU6S7HOLJCPOfWQsShkweQLI0RnFFDCtq89pDS3j61ncAKB6QYNDYCioGFRNL2hgmtO1Ks/z1TbTvTpFv5OdTMpnktttu47zzzvvAUrS/0H6THFJqo7C1tZVPf/pM5s2bj21HfQkh/GsCnVd3cdJpIzj3uuNwHAmewvMkmZRL244uGje3sXLOFo77yngqBhUjhMKKWNhRC+lJsmk35H5SKuyoSSRmkU27eK5EeopI3MLNeHS1pomXRUFCvDhCy45O7v3+K0TiJtc89WVWzd3C4z99g+2rW9BsHLTNY2CaBp7nUlNTw7333suJJ55YIEHy1YregPHNb36Td999F9O0fRe29Mdv6GlRkmPOHsdZ/zmNnRtauP3cpzn5wkmc+K1JZNMuQkCm0yGTcqmoS5LpcgDttbOjJoZlkOl0UFL5XiowbYFla2PeSbtITwNw6axN7NrQyqgj6ygbWEQ8aes2TAMrZrFtVTO/P/8ZPEeGz8wQvqtZKIQw8DyHRCLB8uXLqa6uDp/7gUD7XXJs3ryZMWPGYFkWrltoWHcnwxSMPGIgX7tlBp7jYVhaD9baL7iOh/JAEdgzgFIYZs9gnZIKpfTaDj6TUmFaAsM08BypVQEEZsRk17pWMl0Og8dVYEZMdjS08tcfzKZxszbyS6oStO3qQgPExPMcxowZw/3338/kyZML9O78vuQzif/4j68wa9Y/C+dCQHFlnPbGFCiYckY9X/jhMUhPIqVi9dytjDl6EEKA5xvppqU9UW5GG+n591RKmwzd+6GU0oARAoXCMHwVyADLMv3vwXO1J29HQysP/Nc/adud6uNpaa+XEKCU5Omnn+bkk0/W3xyUHH1TvnjduHEjhxxyCIZhooRCeZIjvziGE746QXO90C0Ilq0N1aKKWPggQ2QI7UrViz7P6FMaLMH9euPc3d3JAQkRuHYVpmUiDHCznpYopREa5u3g4f95jVSnw8V/Oo2/3TKXrcubAAPLMnFdhzPOOIO77rqLysrKEAj5wAg+u/jii3nwwQexLBvX9QiYxKcun0o0GeH/bnyLSacO4/M/nK6B4PhAsA2kp5Ce/lvQfQyiYJz5Y+8+5sLvhGYcaKYRznPwvYKO5jSmYZDJaImlPDAjgq7mLE/dOpcda1v8HymeeOJJPvWpMw4Igzyg/SLf8ienqKjIXzgeKP35yje2kGrLMnhsJZWDklQNLaFycDHFAxIUD0iAIvToBAsCpb03BZxQqZBz9uYp6e6PD77PXZNLNZCexHN07EWYgq7WLKOOHMiplx7OYWfUUzumnK/87BMUlccBiet5WJbNc889x8033xwapMFrkKpjmiZ/+tOfePDBBzEMUwND6MV63NcmcMp3DqO0OsHAMeV85r+OwrQN3KwMpaF0Ncc3DMO3f/qOL3Qfe/cxB3Om/9bSVUofOIbIa9fAMA1KqhIkB8T955OkcnCSQWMqWTV3iwaG0HaIbdtMnpxzdx8otN8lh1KKO++8k6uuukrr2UiU53HoqcP43NVHY9mG9ukLXzzQN7fvLhH2Rj/7yusSQiA9iR21cLMewoBI3Gbd+zt56JpZpNsdAiNVKclLL73EcccdF7pqA/f1smXL+NrXvsbKlSsBww+CSg49eTjn/PQ4XMfD84OWlm3iOl4offL7sjeN3b6ka8+5CFy6IF1JoizGmre38vhP36StMYXARCmPz33uc8ycObNH2/2d9pvkCLiUUpIVK1YAvk7sSYRpsPilDax/fxdm1CSU5xRywe6cMJ/zBe39u/3Mv1d3jmyYhlaz0OpXptNhxOQqTv3OYQhTBwyFMDEMg5tuuon29vYCtSqbzfKXv9zL8uXLQwMcJGW1RZx+2eF4nqftCDTnzgdGfl96m4+PQj0SHGXvTCF3rxxgzIiJk/GY/8xa2nanME0rbK+pqYnOzs6CexwItF/Akf9wFy5cxD333IMQpu+dUihPYZiCRS+vJ9PhYFl7Dh6FD8g2MAyB53pIWXj93n4oITc1RKi6KRSO4zH5kyMYc0ydVvOEhxAmr7zyCrNmzQr7ZBgGixcv5uGHH/HdwDp+YdoGn/mvoyitTuBlC22njytvqTsoPFe7js2INuz7umc+iKIJm42LdrJuwQ4MM0hL0e2+9tprPP300+FvDhTar+BQSvHMM//QXhxfOthxCzthIj3FwhcaaNnRhRnZc2px8HDbdnWRTbkkK+LYERMn4xbYIai9C5J8rh3cw8lI4sU2n/j6RCoGJRECpNIZxddffz2tra0YhkEqleLBBx9k165dvu2kUFJy6KkjGDmtFifjhl63vmymf4d6U8tcR2cbJEoiRBMW7btTZDqdPlXLoB3DNJCuZPnrm2jb1YUwDaJJ2xf42mb74x//2OO+/Z2sf33J3qf8B9zR0anVCWGAUkSiFieefyiJshjNW9uIJ21cR+5xYYRJiqbBzg2trHxrC8MOrWbwxAF0taS1/i+0Edubt2Zvjsk0oas1S/1hNRz+qZG8fNdCEOBJWLJkCfPmzeOkk05i06ZN/PWvf8U0LVzPQwhF+aBipn95LKYpyGZVD669t+yJUNL5XifPlZi2SWl1EZ7jsXLOVjJdDgOGlhCJW3tc0EJoyelkPA45djBFZVEGjq7k/ZfXs+iFBkA7IXbu3Jm7/wFC+01yBA99+vTp+j0gDIOutgyptgzTzhrNSedPIV4SRYYGee8UPOiisiiVg4upGlbKstc28udLX2L9+7soroqTKI2BxFcZCj00e3NcQT+zGZdDTx1GzchSUBLhZ+s+8MD9CCGYNWsWbW1taM6qs4knzBjKwNHlOFkPIfaOHZHft3DcCF+i6thRWV0SIRQv/eE9/u/nb5NNu1QNL6F8YBF2TAf19qTSBhJ5xGE1nHbpVOrGVtC4odV3/2rJcdZZZ+2xnf5I+81bFXD7pqYmzjjjDBYtWoQwLMDDMAWnf/dwjjl3rE6EUz1jFL21CWBaBqZt0Lqri50NrSx4eg2bVzZx/FfHM/nU4cSKI7gZD9fxAIHh2wp7y9MV9MNzdCbs8797j1fvXUTg2SkuLmbBggV86lOfYs2aNb6t5VJWm+Scnx3PsIkD6GrLhK7af7cvhXaXDsghBJGoCQIaN3Xwyl3vs31tC0d8eiT1RwxkwNAS7KhBNuPtce7zP/NcDztmke50eeKnb7LqrS2+NqDjNcuWLWPEiBEHlLfK/NGPfnTtvr5p/kJMJBKMGDGCmTNnYpna1lBSsu697UTjNsMPq9aBPa+nmhFQviSQUuE6knhxhKphJQydVMWAoSW88dAyZt+3hM6WDJVDSigZkADRU8z/uyAp8GbZBtGEzZp3tpLuyAJ6X8T69et566239A8MvYAmnjyMIz87SjMDkYvjfBTqSzIKQ2BHLYRQrJ23nadueYdZ9y5i4JgKTrv0cMYcO5jSmgTSlbiOL833wJTyVbN4sU3brhR/u3EOq97aCsLwrUjF7bffzimnnFLQtwOB9ovN0X1BDhgwAMjnkjrQ9cyv59G6K8WJ35qIYRm5qHg36u7nFwItHTIeiZIoE04cSv3hNSx+eQP/vHshcx5dzsSTh3Hs2eOoHVOOUOBJqQNqe4iffJjxGaZBpsNh0CEVVA4qpmVbJwid0vL3v/896LnmrAIGTxhAtMgm3ZHFjHz4vSDBfQtAofCj6PqzVLvDohfXM+fRFTRuaqN2dBnfuv1UaseUYRoGTtYl2yl9cP5rJhHMjx0z2bS0icd++ia7N7T6X+ZSEKurq8PfHCjAgP1okOdHipctW+a/hyCzs6gshlKKd55cSWlVnKO+OAa3e2pItzYhz9A2AnEv8RxJJG5z1JcOYcJJQ5l931LmP72ahc+vY9RRdcz45kQGjqkgErPwHA/P1UE38QEWSF/jA3A9SSRmUT+1lrXztvsqRmDmCX+fiMfg8ZXUH15LutNBmH6k+0OsoR7xCRVICZ1a0tGYZtVbW/nbzXMBKB2Y5OyfHseEGUNx0y7SlXi++pM/5vyx9HVfK2LSuqOTp3/5Dq07OiiujJNJuWS7XIKs6jlz5vC5z33ugw+on9B+AQcUiuuampq8Bai9KSeefyiTTh1By7Z2SmuKcJ0PVvyhV2+U0KklmU6PWJHNWf81jSmnj2DWnxexeu5W1ry9lZHTapnxjUOpHVVOoiyKk3Z1moYh9ujr74u0TQWO41E3tpJEaZSu1mATlu998rO+kpVxkmVRnS8lPjgYA2YSXCs9zfUjUQsMwc71rTS8s51nfv0uAKVVCY784iEce+5YTNsk3Z71wSBAqIK8rA9yfyEEnispqozz5Z8ci+t4RKIWT93yNmve2aZjTh7U1taG1wdM8UCgfgGO0aNHU11dze7djRimhfRcZt27mOoRZYw7fgitOztDA/7DtB9QvrrhuYrOlgwDx5Rz3m0nsuCZBuY8upy1725n7bvbmXz6CKZ8cgRDJ1aRKI2Qas8iXeXvKf/gC1eDUuBmPcoHFhEtsjU4chkXKL+dRFmMREmEzpaMjqx/wMUjhM4GVFInHkYSNpGYyba1LayZu5XX7l9Ke1OKeEmE0UcP4qTzD6WmvpxUexrP8fOzlNIOiby8rA9C+bEqz9FjjBVFePTaN1nzzja9GUyAZVmcdNJJez1Osy9ovxjkUDi5ZWVllJeX849/PK0BIATZlMPGpbupHFxM7ehyvbf5IwbD8qWJYWjXqZf1cNIew6dUM+64IRiWwY61zWxZ1siSVzbQvKOTeHGU6hGlGLZBNuX6wboPy121avf+C+tItWqjPCDDNFBSMmxyNRNOHkZXawbTMvturMfciVBaFJXHaN+dYsE/Gnj57oUs+MdasimXYZOrOe17h3PqBZOJxC1S7VmCxMF8pvFhKXgO0tMxEtM0efY385n7+AoQAlNYeJ7Lt771Lb7xjW/knBQHyF4O2I/gyHmXtLpUX1/P1q1bWbRoIYbQlT+6WtOsX7iTyiElDBlXiZP1tD79EblPvpFt+Jwt3ekQiVuMO34IlUOK8RzJznWt7FjTwuq3ttCyvZOyuiSVdcW+PZILJv4rkCoFhi893n9una9W5V1vGCAlQyYOYPwJQ0i1Z0MJ1XebedVJHEmsOIIVsVjyz4289Pv3mPvEStp3p4gXRzj23PGccflUhk2sor0phZQqrLu1N1zWSiniyQimafDULe8w97EVCCEwhHbJT58+nd/+9rcUFxfv9WDmvqD9Bg7IPWjP80gkEtTU1PDEE4+TyWgOK4RBqj3D0lkbiCQi1I2uQP6bke3u0idIfch0OQwZX8WoI+uIJi22r2mmsyXD5mWNrH9/J52tGYaOryKWtMl0/Wspor1FWh1rb0zx/vPrSLdntSjxyfD7UTWilLHTB+NmZRj8622ugvt4ro5VlFTE2LamhWdue4fXH1zK7o1649WYYwZx6nemMP3L4zAtQVdb1s87Mz6U1NsTKaWwbIOmbZ3M/J/XWTprQzAqLEtLjV/96ldMmTKloGjEgQIM2I82BxTmJkkpSaVSvtj1YxrSZexxgzFtg21rWuhqSxMrifbp0v2w9w6liGlgmNDemMKOm8z4+kQGj6vizb8uC/cm7Fj7Puvf38FJ35rMqCMH0t7UhXIVRh+2SDAmO2axe2N7zhjPc2MH9+9qTNHZksaKmH7JnJ5Jk6EHzPGIJW2UhH/+ZRHz/742BIUQcMpFk5n62dGUDEjQ2ZZGKLAiZq99/HfnTxiCxo3tAEw+rZ4tK3aze0NbuPcjnU4VVNE80GyO/QoOKExr0NtIA7VCL5xUe4Zzrz8BO673ggduzr3BAbt7tqyIiZfV8Y6RR9RQO7qMeU+t4qU/LARgzdvb2LG6hcmn13PKtydh2oZ2WRp9pKIIbeYuemkdmU5/V6MSBLv8lNSeonXv72TDwp0cetJw2hq7sGyzMHjnBzdBUTIgQcOCHbzwuwVsWLgzTCsvrS3is1cdxaijBqKkoqs1g2EW9mtvLMz8frlZyeDxlXzz16ewbPZGVr65Sd/Hvy4ajea5lw8sewP6QZV1IXJ1VidPnsyxxx4HgGnofRwbFu7igWteJZtyiRdHuwX79k5uVEFU20/bSHdkiSdtPvGNQ/nKzz9B5ZASANqbUrzx16Xc872X2bBwN7GSSJ7t5GfQoo3wRGmUhgU7Wf9eUFUlcFWJ8L0wtLG/ZNZG0ikHO2pqJpCngih/b3skavHC7xZw/3/+k/Xv7QiBMeX0ei76/Sc5ZHodbtbDzUi9jzxPfdxbwCjIIDAExZVxFr+8nr/f8jbpDgfDsMhk0owePZpx48YfcHZGPu1XmyMgIXQB6EQiQTwe49lnnyGTyRBgt313F+8/18DIaQMpq0sSFOTY22K6+2LyHInyFAPHlDP66DqaNrfTuFmrEW07u1j00nqiCZMhEweEW2kBpKeIJSN0Nqd5+rZ32NEQVCkJgJwDB0oXRNi+pplYkc2oaQP1fhTPd7EagmjconVHF/9301ze+b/VunCC38yZ35/GKd+eTDwZIZNyEUEi416UFj3nB+yYjQBef2gpT9/2Lk7aBQz/3pJrrrmG008/PZQYB8HxESlYjK7rMn78eGpqapg9ezbZbAAQgZN2mf+PNcTiFgOGlSDMYIHt/QUQ9snQUXsvK0mUxpgwYyiZLofNyxrBz2xdPXcbzTs6GTphAMmKOFJCNGHR2ZLm7ze/zaq3tiKM7sAI3vvbaKU23te8s41kZVyDzTQxDEEkYrFqzlZm/uh1Ni3dHRr0kYTFV26cweGfrsfLSlzH6+Fs2NsLMkxJEYKmLe387aa3efuJVf5wdFEJyzK5/PLL+eEPf5ibxwMwxgH9BBwBdzFNk2w2y9SpU0kmk7z88ss6ixRACJLlMVbP28buje0ccnSdronr5dI89nafcgtMA8E0BeNnDEV6ks3LdoX1ZrevbmbZa5sYPK6K4gFxGuZt5/GfzmHdgh2+nRG02l2tovBVCFa8sZlUu0PtqDJMy2DOI8t54oa3dOKiL31qR5bx9V+cRP3UalLtWe0y3gdHAEhPp+FsXLyLh37wKi3buzAtgZtVftUUh69+9avcfvvtYUX7wM440IAB/cAgh55JfkFgMJlM+nsewDBhwknDOfpLozEsXVfKivKhg3IfpU+gE/GkVKTaMnzyksMpqS3i+d/M1zvlDIPmrR388dvPMeWMet5/riH4lS8xgn7lvw/+hpyKpd++9ehyVr21haphJax4Y7NfMNpAKY/6I2r5wn8fQ/mgJF2t2Y/F6M6nQI3C39HnOh4l1Qm+c/cZNG7u4MXfLdASzSfb1nvhXdclEol8bP3aF7TfDfKAAi4d+OKnTp1KJBLxS+WbSFfx9pMrWfv2NhLFUcoHJrVu7moPVr5XZG/3qUBVMQQdzSmmf/EQPveDo7FjFkrqhEIhBO8/1+DvKw/KY/YFDCiwPYL3SiAMk8ZNbRoYpoGSoJTH2OMHc/a1x1E2sIhUWyEwPi41KpCc+mgHiWEKakdWkGpzePep1T4wdFX2RCLBEUccURDTONBiG/nUL9SqfAqCgtXV1WzcuJF58+ZhW5ZfWEyy6q2t7GzQhZ0Hja0kGrdJdzq6YObHqFp0B0i6I8uwSdUkK2JsXtZINuWX3TQM30UbLPjualSvrRdep3QpTeHvEBQmTPjEUD7zn9NIlMXIdjqY9sdbtTw/Eq9TRAyKy+M0b+/kzYeX8fwd2pUshMC2LVzX4cwzz+RHP/oRQFg1/0AFBrD/D6/pjYJKgB0dHVx22WU8/vjj2HYE1/UQJkjXw4oYHHrKCCadPJyJJw8jm3ZIdzh9Rpj3FhUm3EnKqot48qa3eOvRFf4V+RKjN2nxL+/g/yZIb5cUV8T42q0nMWRiJZ1NaayotU/UFSUVGFBcHqe9KcX8v69hyayNbFik94Prs0sEruswdepU7rrrLsaMGaOj51a/0Nj/Lep3I8gPFpWVlfHrX/+a2tpa7rjjDv29a/j1ohTvPbuWhc83MPTQKk66YBLDplRr9+vHaJQWRtYFma4sW1c2Bt/28fqh7tDjk3Snw7Y1zQyZOACMjz9uEHildIkdyUt/ep/3nmtg13q9kcmwtCNEeh4SxRe/+CWuu+5aRo4cieu6WJZ1QHqnulO/sTkCys/eDA5BufHGG7n33nspKSkBJEpprlw7ppwTv3UoI4+sJVEegnW0vAAAIABJREFUD0tX5kjtdTsklBxSV2XfsrKZLcvzwbG37uW3JfQpU8te3eAnPWrHwMcxLt2ev6gFYe2v6hGlHHrKMKZ+ZjSxZATpHxgEiltvvZU777yjV2Dk9zF4v6d/wXX9hfodOKAnQGzb5txzzw13kwl0WnvTpnZad6WY+umRDB5XgWWZIePVE773DML8NJfgAUZiFs/fOb+gBP9eB4ff3PqFO1n26kYSxdGCCPreWky59nIMwLAE0WSECTOGUXdIBdtWN/pHGmjVsba2lu9973uUlpYWAAN62bLb7T69GevdI/D7m/qdWhVQMElBXVmAL33pS9x///2AQqDTLub9fTWLX1nPqGkDmfbZ0QwcU068JIoQugKIzIuDfFRR3/2hSVeRrIwx59EVrH9/px/f+6g2Rp93JbQ9hM7hemPmMgaNr6S0pohMR7YgdR4+mqqVPzYpFVZEZ+96jkfz1g5WzdnCO0+toXVHpx+Zz/HTyy67zP+dLMj4DfryQXOqegNIfwgc9kuDPKDu3COdTnPVVVdxzz336A8KDo4BhC7Nc+gnhzP6iDqGT66iqCKm682KvHwm8cHA0h0UQXcSJVFWvLGZJ65/k47mNHxgr9RHodyeeCUlE08ayuf++xgiCRunywm9Zx9lPJp03/UiFuxoaKNh/lZWz93G+rzERp03lvvdEUccwTPPPFOwVyN/QXcHRmtrK0uXLuX1119nx44dZDIZEokEU6ZM4dBDD6W+vp5kMglQcETa/gRIv5UcUMhRpJTE43FuueUWbNvm8ccfZ/fu3flXg+9BWvbPjbRs6aCmvpTSmiJtpAP4NZuUlAWZtH2J9vAh+zq+HbewIiZLXt3I07fM1cAQQaat34ePRXqo8CSmJf/ciHQVZ145jfKBRWS73BD83TMFeiQKBu9lcDyDCOcEJYjEbda/t523n1xN647OcEy6UILeaFZcXMyMGTP4zW9+Q0lJSa/ACCSJEILNmzfz4IMPcvvtt9Pa2opt28RicX9/uUdHRwcAkyZN4tprr+X4448nmUz2i0M2+7XkgMLU9Pz3S5cu5Re/+AXvvPMOmzZt8s/j0wtp9FF1fPKSwygfnMQQgmjCDg+iV1JHu9OdTp+THkiJYEHaMRPLNmnb2cm7T61m1l8WI93uIPggwMh38X603wQSZNDYCk759mHUT63BjBg4aRfPUTlXdi8u7WD+7Kgej/Sj3wKBm3XJZnQB7qWzNvK3n8/1f6XdydXV1Rx11FF84xvf4Mwzzwzb6w6+/HNIXn755dBOHD16NIcddhif+cxnqK+vx7JsOjo6ePfdd3nuuWdZvnw5O3fu5KyzzuKGG25g1KhR+93z1e/BEVBBUCqPM61bt44TTjiB5uZmpBR+LpZWsyaeNIzSqgTFVXEiCRvDEESLbOLJiHaLhqSlTmCMGpaBFTGwoxagaNnZxcaFu3jrkWVsWLxb7x70YM8R8O5AgJ5g6O2aPV3nvw84PnDUFw9hymn11IwsJZ6MIKXSlVMcfSyaPr4s14phCNqbUuxa10aqPYvn6AzgjqYUrTs72bqqmW0rm3QvhIlpGti2xe9//3vOOeccoOfRyfpaEaaNGIbBXXfdxZVXXsmQIUO48MILOe+888IqJFqNKwTvggUL+PnPf84//vEPhgwZwuOPP86kSZP2K0AOGHBAoQ2ilCKdTpNIJLj00kv585//TDQaw/MUComSXsEutHwafVQdX7t1RrjmhNBp41Z4oGSWtp1d7N7YTsP87WxavIu187cD9AKMvhZ77lUAuXOX6HatJp2FHxzQ1ls7FNwnkA5KSoor4ow+po4hE6sZMrGS8oFJikqjmFETNwCKJ0GBaZs0zN/BQz94lUxnttf5sWwLlD78M5NJc+KJJ/Hggw8Sj8ewLAvLsnqoOwHTMk2TmTNncvHFF3PIIWO5/fZfceyxx/b1SHvQDTfcwM9+9jPGjBnD3/72N4YOHRoGFfc1QA4ocHSnIJLe2NjIT37yE+67776C7w1T5/zoVAxdOHnUtIGcevFhlA5MIB3p182VdLVm2bmphZYtnbTt6qRlWwfbV7fQ6W9vNUyBUoafR9UXGHKfCcBEIPVZVR94TBYmCvAI7tM74IJXwxRIzwt/XzWilOrhpSQrEpQNjFM1rIzy2iRW1MCyTeyYiTAEi17ewOsPLKWjSR+TLKUEJZBe4bnqn/jEDH760+uYNm0aruti23avdlrw3dy5b3PeeV8nGo1yzz1/5sgjpzFnzhyeeOIJP9XE7uG9Gjt2LF/96ldRSh/VcN1113HTTTfxla98hd/97neYpj4AaF/vJDxgwZGvZgkhSKVSPPnkk7z22uu8887bbN++jZaWVnLpHACKwRMGUFwRI9WeBaV8rqpItTu07OjocRi9aZkoRbiRac9SQsPCIFjcmgZbRYyLFFNlxikycmeReCgcJWmTDqudNjY4nXRIN7yLgYFXcC8olCI5lSbITlbdpGW8JErxgBiWbeoiC6bAsg3smMWmJY10tqQL2o7FYgwaVMeUKYcxffp0Pv/5zzNw4MA+1Zv8IJ7jOFx++eU88MAD/OUvf+Gcc87BdV3+/Oc/c8UVV/T5LG3b5vzzv8XNN9+CZVmYpsnZZ5/Nq6++yh//+Ec+//nPk81msW37oOT4oBQ8qODgyYBmz57NFVdcwcqVKxFCn0vX1yHyhST80jj5XirYk3pTqD7lFKN6O8mMRC3j7VKGWkkqzAgJYWILM7QBpFJIpcggaZVZdrgp1mY7eC/bxEtd20KJIzDCdvcsTcgdHS18r1QfqmWOtMEdvCaTSe6883ecffaXwyv+ld4ffB9Ujz/qqKN4+OGHwz3kjz32GBdddBElJSVcfvnl1NfX+w4UePjhh3n99dfp6urixRdf5Ljj9DbphQsXcswxx/CFL3yB++67L5Qa+1J69GtXbl/U3YOVP2F33XUXv//971m3bj16keerQdotKYSu8ReARa9/pV3Brkch5eIjPb1K+YDRS3lcpJTzi0cxJlJClRUlgokUClcpPKVwlVuATwFYQlBrxRloxZkUqeA0Vcd/FI/gjfROHmhdSyaUQt3T4Hv2S0nygASInltUw5FLRXeAdXZ2cv31P2Xx4kVcc801JJPJAsYTzH++rRFUjJk7dy6tra186UtfIh6Pk81miUQiSCnJZrO4rsdnPnMWY8ceErZVV1fHypUr2bBhAwsWLAjBMWrUKE488UTmzZtHQ0MDY8aMCY39fUX9Mn1kT9RbWoIQgk2bNjFp0iSuvPJKli9f7m+xDciPNKNQShvqSnooKVFSUUGUwWaCsXYpo+wSKo0YhdJB5r0PXlW3v+HHFZP4Q/XRnJCoodaKIYFO5dIlPRwlCxdt3i89pUhJj07pkcEjKgzGRUq5qGQUT9TN4Jzi4f7V+f3IX9iy738qGGvun/THTmjX5KtJsGbNGn7xi18wffp0Xn/99dATlT//+WkiOs1HsWrVKhKJRJiZ251MM6fiBjsFhw4dSjSqC2eUlpaFoCsqKuLMM89k48aNzJ8/PzT49yUdUJKjMNUhl7LwxBNPcNlll9Hc3Azgq1Iyj6/rSY0gGBMpZVpsAEdEKygzI1QaUYpMC6F8l6cCJcCRkhaVpc1zuKdtDa+ldtBTtdL3+HTRYC4qHc1AK44jJRnl5eLlQnuq9ADoKXwCjxnBvbWUcZSHAQwwY1xZNp5PJgZye/MyFmdbyS1oDXgbg5MStdRYMWqNONVWlCLDxlMKUwjavCzbvTSbvS5WZdpY4bRqKZY3N1op1OMLVNHVq1fz6U9/mmuuuYarr74ay7LCBdo9Z6qjo53ly5czcuRIhg4dCuRUoOA6z3PZunUr5eXloVp12223sXZtA/F4nGOPnV7g9Ro0aBAAmzZtKgDovqIDBhz5wAhsjFQqxc0338ytt97qT1zwMKT/sPVk1plxTi0ayBlFgxhmJjGF0MtKKTyhl0S+piIAWxjUGnGGW8UMtOK5L1Fh2xFhcFnpWM4pHo6LJCVzVUHyAaH8Cua9xvryPlNCIZQI+6CUIqNcDASTIuX8pvpIbmlaynNdW30LQf9/WLSCXwyYSlppN4DsxWg2hMAUAkdKmmWWTU4nr6S281Z6F9vcLtzQvgkWswZgNutw/fXXs3TpUu68807KysoK4hxS6i0CmUyW5uZmysrKKCpKFiQVBozM82QYQMynsrIyZs6cyejRowskUiQSDX+/P+iAAEdvwGhubuaKK67gscceQxeC0wvXQCB9w7jOinN6YjDnFg+j3IjiInGUJKvyFqvqGYQTQuApiS0sVmdbeaR9fdCTEBgJYXF1xXg+WzSUdunvRBQi1HbyAdE9wtEX9ShYR26BdSqXCCbXVx5G3LB4smNjaEqvdTrY5HZRatg4Si/EIEjoN6T75M9jqWFTESvniHglXdLj2c4t/F/nRlZn2/DCOSScF9O0efLJJ2lububuu++mrq4uBEhAkYhNMpmko6ODdDpFSUlxwXwG6tf48eOJRqPhc92xYwc7d+7kiSee4OijjyYWi4Xj1+WZ9l+RhgPC5gh33nm6/ExbWxvf+tb5PPbYY0QisYLFJJHYGJySqOUP1UdzZflYYsKkUzo4Sqc2GL6Rqrl04f5rIYQ+GlkIPCQ3Ny8J/EC+m1aRECaXlY3ls0VDaZXZEBg6X4kPBYi+xht6nNBuUlMYOCg6lcsPKw7l9PjA0JvVKNP8qXUVRYYVOhd0G4TjDMetBJ5QZHwXsqckZxcP5S/Vx/K90nHUW0kk0pd8GlWe52LbEWbNmsUFF1zI1q1bC7xXQgji8TijRo1i/fr1bNmypcBGCNRf07R4+ul/MGfOHObMmcNbb73FJZdcgmVZ3H333SxfvryAEe7cqQOvVVVV+yVC3u/B0X0zTDab5Qc/uIYXXnge246SzabJ5+g1ZowrysZxS+VUqowYO9w0AGZQWEzleXPyFnFBeopSFBk2v2lZwfxMk6+Lg0DhoTi9aBBfSA6lTeqC1wEwPo6Hl188whQCBaSly3+WT2CcXRpe9/fOTcxsX0+FGSGrKzKA8o/HCTU8/V4o3WdL6MBas3RIK5cLSkdye9U0ZsSrkUhEnifLcRxsO8Krr87i4osvpq2tLQSGlJJoNMr48RNobm5m6dKlPYx20OrR1q1byWQytLe3k81mOe200xg0aBCmabJly2YNYsOgq6uLF154kerqaqZOnRp+vi+pX4Oju2dECMHdd9/Nvff+BduO4DhB+oMGxkArzrUVk/lqyQhapUMGj4hRmAPUG1fPv4+jJAOsKH9qWc3D7evzOKhW16rNGGcWDcIUAlehF+w+4Gr5AMkqSbkZ5eslI7ADvR64rXkpb6V3M8CMklWelooBQMgbdz5YlMIWulLhLi9NjRXn5gFHcE7xcFQeW8gHyMsvv8zVV18VSofA83TYYYdRUlLC3//+d9rb28PFbJomkUgk/BeNRonFYkQiEcrKyiguLvZVNCNkhJs2bWL27NlMmjSJUaNGhVrDvqR+DY78CLhhGLz77rvccMMNWJaF63rku38qzSjXVkzmqHgVrV7WN0D/dcn97sCoMmPc07qGP7StxMQg8HkFBvZou5hD7FK6pIu1j9Opg35awqBDuRwfr6FIaLNRIHBR3NC0mFVOO2VGlKySoZHfmxs5lEroayK++plVHleVTeDbpWNQKH+R5ABimhb33Xc/999/P6apD66RUnLkkUdw+umn88ILLzB79uzQu9XZ2Uk2m2Xnzh24bi49RUpJVVVV+P3s2bND4/26664D4Atf+AKJRCI8xmBfUr+OkAdcJLAzPvnJT+rzysOot+aFFoIbK6dwStEgWr0MRrf9BXtqP7jOVYoyM8KznZv538b3/QhAEJlWmBh4SI6NVXHLgKl4SqGE8g/a2ffkSkmFGeXEzS/RJNNo/5h2RIyLlPLTiimMsJO0KwfTtztCJ0EfpCWJ9nZZwiBmmPymZQX3t63tZqTrQGpZWRnvvPMugwbVhblVc+bM4bzzziMSifDUU08xevRoVqxYwZtvvkk0GuW0006jqqoqlASGYfDss8+ybds26urqOOOMM7j33nv57ne/y8knn8yjjz6KbdthftW+pH4NjvwdYQ899BAXXnghhmEipQaGiTaaLywdxSWlh9Dhad95YADuSVpAnqGvFCVmhJe6tnBd4yJSBekmmgwMJB6TIqX8fMARVJgRMkrmzobdR9IjGJcjPaqtGJ/Y/CKNXu7EqMD2Gh8p5WeVhzHMKqJdOZph5KtYvfXXF8SB3RUxDBSC6xrf58WubZiYeHjkx1nOOussHnnkETzPC+MTd955J1dffTVjx45l5syZjB07tscY8im/Lw888ABXXnklkUiEF198kQkTJhR4xvalatVv1ar8xd3e3s73v/993/jTE2v4nHxarJIvJ4dpFQL+pcTI97BIpTllqWnzfOdmru0VGFqdCDxDy7JtvJPeTdKw8NTeL3SwJ8qXdLYw2O6mcfNdtr7kMDBYlm3lR43vscntpNiI6Dyubp65HiRy9zCFICMlUWFwQckoRlhFeHiIvLkRQvDSSy+ybNmyMGtWKcXFF1/M5ZdfzooVKzjxxBN54IEHCm8jehZYaG1t5bvf/S6XXnopmUyGhx56iAkTJoSu+z32+2OifguO/EX+t7/9jY6ODj8J0D8HwxfyXywaSo2VIC3dUJ3a0yRqj5W/YQooMSM83L6e/21cSKYPYOSi4QYuiic7N7DO6aDEtHGlLFi0HwdIAnduTtJJkobNP7u20ykDHT43Zul775ZlW7lm9wJWZltICjscN3voZwh0HyBt0mF8pIzPFg3Lu4tfHV5BKpXml7+8rSCWYVkWN954I3feeSednZ18+9vfpqamhjvuuIN58+bR0tJCOp1m69atvPLKK3znO9+hvr6ee++9l5EjRzJv3jxmzJhRsKltXzCfHnPRX9Wq/IU2adIk1q5dS/BQtP7vcWqilh9XTMZC4KD26FINjE7QalTEMLEQ3N+2ljtaVxakT2jqntQXSCwdS5kRr+Z/KiZRZkTpkFptMYL75gcB/5058G2AMNLsqzvFps36bAff2TmX3TI4pqFnKnvQSp2V4MYBhzHRLqNTfnDVUwiBKyUxYdChPP67cQHz0o15tphmGjU1Nbz55pvU1dUVSGaARYsWcdttt/HMM8+QSqV6jXZHIlHKykr53ve+x6WXXkoikeih+u5rqQH9FBwBMAzDYMmSJRx33HEFh9nozauKK8vG883SkWx301o/7gsYfkRcCfCkJGFYuEgebGvg962rfGAElA+G7u8LAXJSvJbvl49jqJUkJR3SfvBM5LuLAz2eDwaWEMR5P1dKq3U2BkWGxVqnjR83LmR5tvt+ld4BDYoiw+KmysOZHquiU7kFgct/ZZu5SlJmRnmgrYHftiz3U01yWwBisRi/+MUvOP/888P09XA2/bYbGhqYPXs2CxcuZPHiJbS0tDJixDAmT57MUUcdzbHHTqeoqAg4WH1kjxTs0RBC8OSTT5LN5rZzGghc3zA+IV5Nu3T2GGsI1RFfYhQZFm3S4Y7WlfytY2MvwMjlFdHr53qhGgj+mdrOereTb5eM4qh4NZW+FMn6GbgCgV/X4QM/4MCrpBShnWMLg2Jh0SE93kzt5MbmxWx1U/S9zwMKAW3QKV2u3DWP/604lDOTQ+iSDq6SOXd3L/GfMGtACRzlcUKimqc6NtLgdvgt63lKp9O8+OKLXHDBBQXqTxhUlZL6+nrq6+v7HHewqzPwYP0rF/y+oH4JjnwX7iOPPOJPVOFBmiMiJQyyE7R5jj77qRc3X6GrVlJuRFnjtPGrluXMSe/Kc09Cz8XVnQq/13q9QYPTzg8a3+OUxEBOiFVzdLyKKjOGRPl5XBIPhfSTIftqPT8B3VQCWxhEhYFS0K4c5maaeK5zK093bgYC71lvqpTq1qpWffDtpR83LaTFc/lyyVBMFCklsf36X4qeDCYIPHZKl3orSX2kmAa3I2xbzy+sXbuW9vZ2ioqKQqkfGvd+HCQ/2yFf/QoAEdx7f0qLfOq34DBNk7a2tgKpASCRRDA4xE+dkCIvAzb4fZ6u7in9UCrNGLNTO/htywpWO22+3dK3nr6H3oW/UT5ALODlrm283LWN4+JVjI+UMd4uo95OUm3FiAsLU4AH/r6OQjIAEwNbCFwkGSlpkhk2ZjtZkm1lhdPCG6lddCkXE4MgWcbyj4TL9T73f273SE6CKP8+t7UuZbPs5MKSUZQaEdqkQ8TQJSC6L8xwwfpjPjpWxeupHWT8TWQBh29sbGThwoUcd9xx4aak7u10r4qY/113idMfqF+DY82aNXR1dQWfht+XmxEOsYt9v5UuoJD/2yBpz5GSiBCUmFEeamvgj21raJGZPoBRqI4ICDl990elCv4pHAQmJgLFG6ldvJHaRakRYbidoNqKU2vEqTMTFJsWA4woRWauSIGnJO3SpUu6NMssO70027wudntp1jtd7PLS4X0jWEikH2v416SLNYiCYg2e7+p9pH09650O/rNsPOOipex00zrXKvRWFeadmQg6lcOUaDkDzBhb3K4CltLY2MiyZcs49thjCyRDQPmJnb1RfwFEPvVbcCilWLx4MZ2deZX30ItxgBml1oqTlTLkdsGTCuwLVyqShk27zHJz8xJmtq9Dgh/Iyi+W0N3Y1sqWl6fN74kMDBS5ggomOljVKrMszGQh0xJeGxcmxYZNJB/MQFp6ZJRHhyqs/BGM2sREIcn625OimEyPD2CYncQWBkVYSCCFQ0Yp1mbbWJhpLmhPj0qrWNLv99vp3Vy1ewHfKR3FGUVDaJUZf4NUoZolhEBIhYuixoyR8FNWgvkxDBPHcXjvvQWhvWjb9geYvf5N/Q4c+VynoaEhzOmHIPoLSWFTYURw/FKWQruDQGh3J2jpsijbzK+al/F+phnoXhUkn1Plsnqlz5UHmQkOiZQwPFJEpYghENhCkFYencplrdPOwkwzO33OHriCAy4t/EpVQUxaokgpj5S3J64vwl9qw1/30vVBcWK8humxasZGShloxykSFkKBbWiAulIiBXRIh91uhnVOO+9lm3i+cxsdyiHIEgsAYmKywe3g+qbF7PKynFs8HE9JHfkXeb33mU5WSQZZcWKBFAgcusICPBobmwrsvP4oDT4M9Ttw5OufHR3t3b71ubsAQxgoXP3AdVwPoSAqDEwMZrav44+tq2iV/nFk5DaEdm9Pv5NUGBE+VTSIw6IVjLZLKDZtbAS2f+SBQCCVXoCukuz00qxzOvhH52Zmp3ZQqN+LvOUNOSWtbwpUtRyA9eKbECnl8rJxjLFLSBgWJgInlG6KbLB11b9DiRGhPBphdKSYExI1nF08nNe7dvHb1uWQ16dgY1OX8vhNy3KWZJu5rGwcA60YXdLznQ50U4+gxIiGY9LBQD2PmUw6NMAPguNjoPxJ3b59h/9pjlMBmMLQGbEyt/QsBBHDYJeb5s7WlTzXuTX0KOUK5vQW5INyI8oFJaM4MVFDqYhg+TaLXqiKrPKtCz9eItDu1cFWgsFmgmPiA1iebeWXTctZ7rQW9Lm7QfwhZgKA80rquahkNBFh+lw9Z0H0tIW0CziDLvpsoFPqh1pFfK00yScSVdzdtobnO7eGfQxg5QIvdm3jzdQuflgxgU8mBuEpRVbIcPEbCLJKMchOQDoYUW4eOzo6aW9vJ5lM7retrXuT+i04lFJhwYQcp9NUZkS1QS3AxsBEkFaSlzo2c13Tojwg9B7DCJSWCAZnFQ/h4pLRlBgRPCXxhA+G7itZBS+FMQgAQwkmRSq4t2Y697Wv5a7W1bh+ukmQ1du3i5i873P1o2wEP6mYzOnJQaFNEpCZz5F7CW3k/tSxHQ+FUDDIKuL6iimcEK3mZ81L6VIOhf0SdCqX/2lcyJvp3Xy7dDQDzQQeCheJ9JM0ywy7V7g7TpZUKkVxcTH/P1C/Akd3fbWw0kVQNEHnFtkYRIVJl3RZmm3h3ra1vJdp8lsSea+F3C0ARpUR478rJzIjVkuXcskE0AsX2J4XYPDer8xLWnmYCC4qHUO1EePmlqWkldcNIPl9y6dC4JoIfuwDo0vmjOpe4wDdY5Vh17pH2hVZJXGA05ODGB5J8uPdi1jrtoW2XBAwBMWznVt4pXMbP6iYyLHxasqMCJYw/IqN+bwjX4b5DMmXNAe6atVvwJEPiMAob2lpy7si90iWZlt4vH09Xcrj3cxu3kjt8q8w8h5yb8DQdkC9XcxtA45giB2nTWZ7pnN33/vQ1wLM20hk+Fm+7dLhc8XDcFD8smWZHy3PlwrdpUh32Sb5aulITkvWkeoGjO55S3ui/GonoVrke/JaPYfRdgm/qZ7GT5ve5+10Y4E3Kwi4ZpBc17SIiZFSPl80jDGRYtJ2Eauc9vAu+TZHZ2cnHR0dVFZW/H9hmPeL3Kr8iUyn08TjcV544QUuvPBC/4Ca7vlDhfps4E7tu2RmLh9qaqySWyunUmRYejef4bst/81EwRDc/kJJGBZ3tqzggTadMFkYV+lOgQomGWeX8tvqI0kYFo7cu7vfcjlmCk8qEobFLi/N/za+70vdfDVU9zXn29K2WY0ZY7XThlcwv3rzk2EY/OxnP+P73/8+6XSaSCTyLxMc+zPt95T1fGBks1ni8Tjbtm3j2mt/wu7duxFCV0rXpB+GjkqbWJgYmEEtQ3IivjCVIqh2fkS0ktsGTCUuDLrycrJ6qFEfgcKUbR8grvT4anE9k6IVeMi89vNVrJw9IlDEhcl3y8ZQ4pfY2dup2kKIUNpZhkG7dKgx4/xPxaGUGhF6Jkeq0KlhYdAsM7ogHJBbOv4zETpF5O6772bBggXEYrFwA9T+Sjn/d2m/giNflfI8j2g0yrPPPsc3vnEeS5YsRW+47x6w00BwkdpI9KFRCIrc9cGmqHGRUn5cOYm4MEn7CXd7ewNNbo+3do/Yo+69AAAgAElEQVQOsKKcmxxOqWF362OhTaTBq5jup544fvWQj2ODTyA5lFJEhUGrzDLSLuaKsnFEC9S+HLPR863liIFJwEoMgnph+LszDdauXcuFF17II488gm3bBQmFH9d+l4+L9hs4utsYlmXx4IMPcuGFF/D662+gbfGcxNCGqo5hiILF1f0193ANXymoteJcWTaeIVaCTunpPdUfEzfTqSsCC4NWL8sJiRrGR8roXsnDnwXwgSEQzIjXUGZEcPKk6cdBYWEFIYgIg0YvwxeSQ/hK6Qhfsco/GyQHZu18kD6EdMBUhNJGoZTENG2WL1/OJZdcwk9+8pMwfT0/Df1Aof0CDtXt4ZumyR133MH3v/99mpubse2Iz4lyKofyc4o8neNKb3aFpkIJI1GcXTScI2KVtHoO1j7YJ6DbBlcpEsLi2Fg1Ed+mKFx0KhzdUCvBaLsET+jCDftkIflzYCFolQ5fLx5JfaSktwvJ9/ZJJIOsBIfHKlD+LAfbZz3PxTQtUqkUt9xyCxdddFGYPHpQcnwAygeGYRj84Q9/4Ec/+hGd/6+9N4+zqyrzvb9rD2esqlNJJZWkMs8JJmEwAkLsEBTb274Guxvf7jftdcCrIJruazt8HFr04u3LFb3t7dZPoxdnRVAcXlCgBdumRWgVghiGMIbMc1LzOXXO3nut+8daaw+nKkkBlUoF8tTnfM6pM+y99trrt575eQYHcRzP1KNKbP8KxcXFaVzbcTafnryKZX4bxHL8yNYfW4vj7NwkLm2ZRdXUsR0PC4pd2J7QwXoXFqfS6RUy47NjthHFK/LtdHkl6lLiqPGR0dN6UqQUrY7H21vmm0WR1uEsJ9Zz+v+Uu7h+6nl8vmM1X+k834AkEX+jKMSWaP3ud7/Lhz/84WFFpU8FkIw7ONK7h80P/8hHPkK9XjdKnZZu0xzgb9vP4FMdZ7GuOINLW+Zw9eQzWey3mh2rmXNYUUXSKjz+sm0eHW6eugrxxPhZTpRSOErHYs3xy7QKHYgnMteWCIhT3DytpjK6jjQeH/HDioGuENRkxCWlrhT3SHM4B4lkid/Gu9uWMtsvUxQu5xQ6+MKUV/HuymJzfdp6leiK8NWvfpXrrrtuwuVrHI/GFRzNtu8nnniCDRs2mHL0utd12sM23S3yjWkX8Fdt8/EQ1InokwErCu1cWJpmLmBkyw/AsnyFtcXp9BnLFIJxXnQgFRSEw6J8mxnlyCLhJCdPQThEQsE4L5z0fXEch79qmZf+FMs1AP643MUsv0Rf1KCuIqpRgIfgvZWlXNNxpnGcJb4S+/yZz3yGH/7whziOk+n1MZFpXMGRtlhEUcSVV16ZyvKzZdQAFGfnJ/HVaa9mZW4SgzLU4RgC0x1JcWF+KlNMGEnCPRJdo4DLG0uzKApPVx4XIyfanOjrdQXUleQMv4KXMefqMYdGHJni5glNDNd476rpDashQ9aVppMXacuVLmjhIVjst8aeJtdxEI5O0OqLAt5cnsM/TH2Vsc4lXF0IlzAM+eu//mt27doVZwZOdBPvuIHDToIt/PWFL3yB3/72t/ZTjA0FiWJVrp3PTD6baW6BARWAMGZDpeOKqjJkrl9mUa7FXEQiG1tBZZpX4OLSdHplfVzFqeZrFghCpZjmFcgJW7Lf2q30c0445HGRQr97UsrQGO+5EoK8cFlfnh2P1XKNpbk2ZnnlrDVN6XvjCDgc1VlT7OTjk1bgkUQl29Zz3d3dfPSjH437lU908WrcwGGTYKSUHDhwgGuvvTYzBMdM5lS3wCcmn0mXV6Lf1qKy4RxCgDLlaYRPi2MTatImR20yXZRrZaqbp2EUzpNS2kVoQ6dEUUanyh79u+aZ8RP9ho3BGAKEgnPyk+PxWI5ccXyKjhsHXcYVQkRSCO5I1OANLbPY0KYVeyel2Ash+MUvfsFPf/pTcrlcDJCJSuMCDitKSSnxfZ9PfepTxrxnF7N+rjg5/qZ9GcvyrXTLuja7NsU5CSEIhaLF9Wh1rJJLfCwrUv2n0kz6VVLs+WSRXey+45i6WQnZcJdIKRoywjHDPFnjTcQrvbl4mfuji3WXhEeorM/G/I5ELPOEoCdqcGVlCRcUppIEXWrxqre3ly9+8YtUq9UJ7xgcF3BYZ5/jOGzbto077ridMLTmPrCL+o/LXawvz+ZwWMc3HuzmmCchtCUqLxwKRkyxJWIslR2PRX4rgUmjPZmsW6GtVofDetxaLCHtLIxQHDY+mJEqgIzbWA0HiNCceZZX1uM3c9vi+BSESWRq+m2zWdjF4X3tyyhgw39ELFI/+uij3HzzzaZafjhhRatx4xy25un1119PT09PsksZ2/k0t8hbWuYwIIPEg6uGBwMqZSKAlABleUbWk+sK3bo4tE1cThLpserx7Itq1IfliCdjPiRrOqzlJOkcQMzZFFB0XBbndF6Gtf75wtHxaGLkxC17z3whGJAhy3PtvL7clfKbJNzj5z//OUEQxIGJE5F7nHBwWHHK8zx6enq57777aDSCOKDQTvO60nSW5yrUVHTMIm1CGCEsY/LMmkWne0U84cSFk08WaS6nKAqHJ4I+E7DXHD6iXw+oUOdu25zfk0HCjkoXWShgK5ubj+PQ/qOHadqwFA9BVQa8tW0BSQaIiBvdPPTQJjZt2jShuccJB0dapLrvvl+bmrdWrtaT1uHkWV+ezYAMcTl+MeijkwGHWzQvT55IZXdDV+kgxOcyORDJYpFmmT3d6GN/WCXvuMiTricJhIKCa5aH4SiRknrDYWTOEZPRWxpKMscrc2Gx035g4uh8du3azT333GO+/jLnHAC33347PT09uLZuk/lOm5NnRa7CoLFOHWuitKiiw66FDUVoCiNpdXzt8OPkTXpaxDgU1akqyzeyljVr+Xm00ctz4SC5lNn5ZI3dhq67Rie0doS6krrtgjp2gH+8uQltBl5bnBYfOX2fHn/8carVGr7vT0iAnHBwSCnJ5XJUq1V27NiR+sT2koD15ZnYPk3H4xr6M2E2YBsMlw03sY0l1clUxpWu89Ti+GwaOsxB07gzC2T92jWlPR9pdNNQctz6DA4fcjKfUigGozDzfqikDm8RzUlRIx9LKEVAxCvy7ZmqlIlo9RDPPPNMLF1MNNFqXDiHEIJdu3axf7+uJqIb0OiFURAuq/Lt1GSo7RrH2T2U0taTQEU67wFrEk0pt1Fds/ZRHO9EkFIKqfQii1D8e20/gyokafySDR+xUUj31Q6w14pWSo37bmoXpwBTiVG3K7AjOBTWGZRhytN/7GMJoR2gXV6JxXG8VsIRd+3axZ49uydsMOIJBYdK3eCnnnqKnTt3xu/bKfeFw0K/lVCNLt5fKYWHoF/qOCsYLlY9Vu9FipMnywqhd96y4/FUo4/HUlUPm7mGEf5wcXii0ce9QwcQSud7M87cw86XQNAvQ55o9MUjBqipkABpctGPT/Z+5oTDLLeY+SyXy1Ov13nsscfi776swJFml08++SS9vb14no67sQu5IFza3RzhKC1LSuhSOA0lqcdVl7LWKgdl4qnESQniU8aLn3dcflnbz66oGpuss9aqxD9j6yTeOrCTw3IIX5i8+HFcMLEop+BIVGdfpNscWL1oUEa6LZxgVGNLb47T/DQ40oXg6hM2CeqEcw5LtiB0UjBAfzbNLZow7dHtHFov0ZaQRixWZSd2UIU81xggJ1yt2YzTArOLK1SKVsfnqXov/2oKqGVzT9LjtdxDJww9E/Tzk4GdeMYJyjhyP7tIBbAlxTWsbWpPVOVIVMc1CvnxFnTMDYRgqlNIfaJQRsvv7e2dsFmCJxwc9oJt/2ml7CIxodpuTvssRuEZtpYqXzjsD6scCKySm+zEAhiQIT8b3EnF8XWowzhMepz2a7zECLhlYLtp9GJ33zTXsJQ26+rOUN/u28pT9T7ywkXZ+KUTDJCM3C/gloFt9hNApyj3yoCD0VBi8BjNZmbAVoiDLiE9Dz09vTH3eNmJVXZhWgtF4t/Q9HyKRlqnWl64HJJ19kY180naqabDMR6oH2ZQRTjjpHvYmyuVos3x+ffqfu6q7jHRqXZszVwj/jWJcq4TpD5zZDMDMohjw0704rFRuTnhsLnRzTNBP8kiVthkgiNRQ1/JKOfURgkMqWjY+6ALM6TFr4lE46KQA3GivQZLApCaDI0h/fg3P/5cKPaEQ8YCJFIKecJDDoVD3DO4l0lOPuYeJ2ry0ze35LjsCAf4siliLZssU8c4Cmku8kTQy//sflSLhlZRPkHXEB9f6ejozx3ZYhaGBXLi9tsva9RkGOfiH/vAxKLhgApG/IotsDER6YRzjuHgyO6gu8OqYdOjE6tcpWX6XaHu2+FkFp9+LXDoUyG3De6kbuKV5AlYXM2LNmfK/nyh+3GeDfozymzWQjXSI2vBcnC4u7qXz3Y/SsXNDzuXFTHHavy6X2KOOwd383TQ29QOLtl2dgVVBlWoewlybNEqXShib5Dm8sm9bm9vp1AovPx0jvTFFgpaIdPe8mQXrZkiyUIdZ6KNYucJh74oYH8sUg0Hhz3K/UOH+NHAdlpdP25/NlYAifUpodsS+I5LpBSf736Mf68dSFmn0mNMj7P5kf488X38sH87/737EUquh2sWMVhZXrwgkFgjhU3lDZWk5Ho8E/Typd4nm8acjEcA99cOciAc0tVUjqPP2fyQSCn2xR2q9PXa33V0dGQyAycSnXCxykZdLl++nEqlQhha9mp0EaHYGVa16fIYcqfWN7Rf5LCssy0Y0OfI6BvJzbQOuFv6t/NEo4c2NzcMIC8EJCq1OJVSKCkpCA+pFF/ofdw0tGyu7q6fbZ7iSI/m/6z+BPDD/m184tDvqcmIolFsZWrXH62lLwYFiZIvlS4fdDga4mOHHuZgNMTw6ozWk+/SQHJA1lAGWEc7r51fD8ERWeeRenfqmMnmaBtsTsSWBSecc9jGiYsXL2bu3Ln6pE6yQ9RlyBONHgqOThM92u6hlAKlo0X3hFV2h5pzyBF3Y7u0HLaFA1zb/Qjbg0HanBxSEYtYVgk9HilUrC7YRRUpHfpScjwORUNcfeRhfjSwg2YwYEapR3r0B/FDpWCk4uPcVd3LxgO/Y2vQT9HxTI53ApKMP6f5kuzY0ZzOjl8gKAuPA9EQHzjwIFtDLQomP7cVDbMceVtjkFBGunnnUTYZm4vjCMGeoEaQFtQEBEGAEIIlS5Ycd/5PFo1bVO7cuXOZPn26eS8Jo2ig+NfqftNWeOSJtu+7xlS6pdFLVYX4eCQ7Ufxt7A3V/cIdHqn38t+OPMyzYT+tro+LFiWkagq+PuaiwiwqfZOLwsXBYXO9m6sO/I5fVvfF57X5C3bR+zh0uHlmeEVme2Xm+y3M91qY77cwz2thpldiulukzZQNTQCT8EGALUEv79n/G77Tt5UjskFReLGJVJqxSSNmpY0ECpX5XAgoCxcH+O3QIa7a/xueDPoY3tc8OxFWf/pFbR/9KsS34SYjbGj63NoEfO/QgdQxVXz/zzjjDObNm5f4VyaYWHXCWxAIIWg0GuTzeZYsWcLdd99NdkErngp6OWiy/6TS76UnyopUOeHQLRs81tDhGOn2YOkdm9QNtgDZXO/hI4c28Z62xVxcmkFZOAzIkIaKcLAd/MgAxAwF27Y4JxxKeEQotgUD3F7dxbf7tppvO/FOI9HixEyvzMJcK6tzUzi7MImpboFWx6fV9XTehmmU0xc16JchW4N+/tDo4be1g+yJahyMhlCAi67loYABFfBPPVu4dXAnf9Eyj/OLU+hyS7joVnANFekkL6PzWA7kCd3KGaWja5+N+vnxwA5+0L/dzNRIOpJ9nSjlAsHjjR72hIMsy1WySWnmFmgur1/XVJjpJAXgug5SwllnncWCBQszlUgmEkDGBRzWK75+/aXccsst7N+/H2FMlAC9UYNf1/bzxpZZ9ERBrH/YidJmRoXvOOwMBthc78ZWKhnZd5CWmW0tWodtwSAfP/wwf9Ho4XXF6SzOtTHdLTBkmkSGpke4lfZt27C88CgIh+4oYHOjmwfrh/nRwA72RzUcHCS67Vpo0plW5zu4oDiVi4vTme2VcYT2XYRKUlMhA2GQGaOHQ6vjsbowhdeUpvFf2hbxSKObe2r7+VV1P9tjy5yD7QS7PRjguu5HWTDQyh+VOpnntrA010qHW6BFeLgmay80HKMuI3bKIZ6q9/JY0Mvdg3s5LOu4CFPxVg2bt+FzmnSreqjezdJcBSF0IKlwsptZqCQtjse/1fbTE9Uzx1Emjm7FihXk8zkajQa+708oYMA4gMMq5VEUcdZZZ7Fo0aI4OtfehEEVcXt1N5eUu2KnXRoYqCQ3eXOjm14Z4OGZLqvHkgwTuV0ZgAgU3+/fxs8GdrG21MkZ/iRW5tvp8nR31ryjrUKBiSPqlQG7gl6eaPTxVNDL/bVDHJba8qL7metJDImY77fwx6Uu/rJ1Pm2OR11J+mSAEjqwEKHjwmyeRHqOIiBUEQNRgKcEK3OTWJ2fwhtLM/nRwA7uqu6lVzbwcAjNDu7isDXoZ2uvTqSa6RZZmGujw83joY0XdaUbaw7KkKeD/tiQocdv204fDxj2/US0+ungTv6kPJNW4WWsX7GnHfCEw3f7nqWRKmTnOLqG1dKlS3nDG94AEOulE43GjXMEQUBrawvr16/n4YcfZnCwSvqGbK538/PB3axvmcORqK47uJrfS6W94vuiGj8e2Gl2u5FEqhFHQBogCl3UYFCF3DG4hzvYwyyvzCyvSKvjkRcujhAESjKkIgZkyPZgMG6pDJiiCJiCchCieGN5Jv+5dQFn5idxOGrQEwU4QuA6ItZC7FATcce8FjrzDqEXrBJ6MfcTsMBv5e86VrG22MmXe5/i0UZvzEFCInTdeV3ceXdUY3etxrHIgipCkbTeHGkeRzJUJKLr1mCAR+rdvKY4LQarBUhdRkxzC3yr7zmebPSRNVdrWrt2LcuWLSMMwwnbfXbcOjvZHhzVapXVq1eza9cuI1oli3xFrsJ1U1Yzyc0xJCM8J6lSmBcOdw7u5tNHNsc311zCKEeQNSGKWM9Iqg4eizxjubHtjcHWaVS8s20R76ksxsehJ6rjOxpg9rTPp2uUzXK0Xw+URChoc3z2RjU+3/0Y99T2j6g8O2RtZM1Xr7A7/0icYvh7YoTjybhhgmSe18K3p1+Y/MKIU0Xhsj8a4or9v4kje5VRxJWSzJzZxc0338wrX/lKwjDE930mIo1b9RG7K1QqFf7mb/6GXC6HSndIxeHxRh839m+lKLzYMqU9zw59MuSG3mcR2K6y6Zs60gOyu19aYddcRHdJ1TK8a/5sx6j0n8AhRHOIZmBsrCzj/e3LkErRJxvkDDCSUBdGDQz99cQyppSKK370ygadboH/1nEW64rTURlAJyJPZJr6ND+iERv9NAMjec+2fUgaP9j2DzaHXPBcOMD3+7ebTryKUOoOvZFS/EP34xyIatjK7Hod6PNfeumlrF69mjAM8TxvwoaPjGtPQKVUHJ27Zs0aNm/eTLqJpIPCBTa2L+MdbYvoNc0sfeXwP3se5ccZPwIcm2uMdONH2i1HS8n3tfItubyyiPe1LaWqQl2r6QTkjyQ5FopQaYdjgOIjhx7kN0OHGP18DDty0/ft/wnoXpGr8JpiJ9PdIlLpBpo/r+7hYdO1VyAoCYfPTjmHC4vTCNCK/7Xdj3DH4B6SJpzWxBExc+ZMfvnLXzJnzpwYHBOVxg0ccUi3qUSyZcsWzj//fFP50BaS1vuMA7y3spQNbfPolyE39j/Ht03jyeGLvHn4ounZfu94CudxrwAg1nfeVJ7FJyavRKKoS4knEgfbWMvOWYDo3oHdqsE7991nwjKaG4qO5lqaN47kGt9UnsX/2zKXuX4LnhDa7IwWDyMFD9UP83eHfk+fqcOlWz3MZ5nfxo8HdnDf0EGyAaEadPl8nn/+539mw4YNGa4x0XQNS+POOdIA+drXvsb73/9+82kCELt7LfTb2BsOmsodzUpdoovY5P2IpCm9peHtl5tfH3fU8bNuzhmx2G/j2ilnM8dvYTAK8IQTi0In6kYnANEOzFbX5z9qB/ngwQeNNSipVD96jmoFKD3f60rTeFfrYpbk2lBoIMZltMwhhYKC4/F0o5f/sv9+BptC0c23UueywFW89a1v5YYbboiV8IkKCksnpdVyOvPrqquu4hvf+AbZ3c9S+v/ExQaw2G/jotI0zs1PMQWjJQejGvuiOndX9/JM0MfhqJ5aAjTtZDB6kCRczQXe376cd1QWcCSsxxl747EDZpLHpKTdzfHXB3/HvbUDjMwxhx2B4Q4+SYvweFvbQv5z64I4y/JYMyOVouLmuL73Sf5P79OpT9LATN87xcKFC3nggQcoFosZs+9EBsi4gyOdcSaEoF6vs27dOh5++GG0L1h3JR3pRlqR609b5vLRya/AQVBXIVJhqrGD5+i2wPuiGv//wA7uqu5hq7HtJ3Z9GD1ArALuIIlYlWvnC52voiBcAqNnjOdNTiuvHoJ90RB/ufdXKe5xLD9FmmNoy9g8v4WPTnoFry5MpUcGgMIRpjc7CbeyP7LndxH0y4A/3XuPzivPcC57Pv1epVLhwQcfZNasWbHUMNGBASeh7VlzDE0+n+eqq65CCIHnjZRKmdxUgWJtaRrXdKxkQAb0RA0aShEJXVChji4n0x3VaREeV1SW8NXOC7i8soiZXomIKFU/qdmkeTRKzu8AZxcmM9Mt6lJCJ2H3S8chhShmekVWF6ekxjqSHpYFhrUgrSlO5X9PeRWvKkzlcNRAQNzkR6ULXqQYgo0CjgRMcvP8SXlm0znikcav1q9fz6xZs04ZjmFpQnST7erqIkmfbWb78a9oER5Xti2lJwpQCnzHift3CKH9Fp5w8BztBzkS6TYGH6gs59qOs7mkNB1p7CfDw7JHHCmJVC6Z7ha5pNRFb2SSfU7iTbaRAwBvKnWZd48mWiVzqnueS/5TuYvPdJzNNDdPT9TQLRJSC/dY5md7bqkUa4qdqfnM3kML4nPOOSeTr3EqAANOYjfZNDgWLlxIV1cXUtqYo/QOmNzYFfl2lufbqKoo23cjtSZseLkjBDlHVx85EA2xNFfh0x1ncVVlKSZOleFF1oaNFM2x9AmmuHkW+W1UVYijTu5NtolWkYJFuTZKwiPbP9xSAn7HWNrWl2fx4UkrKOBSQ5Kzlc4ZHdjtvXMELPBasV6WYb4SI4add955LyqH5mTRSQEHJNxDCMHUqVNZt25d3L9BU9bU6CF4XbGLIZWYTUe6kc3RoY5wyDkugypEKsUVlSX8946zmOmWUETHAYh+38YTzfTLurPRSa7eniYpFB1unkWmXcBwi57ZrQ3HeHN5Nh+etIIiLkNEmSDPUTsrBbFYV3F9FvttqZlLwCFlxPTp05k5U4tep4o4ZemkgcMCI4oiSqUSF1xwAaDDmUeyweeEw+J8WxKOPYodyCYzWU+zBLqjOm8qz+bvp5zFUr/NcBCGnY+m93wczvDbTVejiZR7oCgIj2muTkPOFrhLnpURpT446QxcoE70wnslKvukoxdeWbAt0hLlxEZiX3bZZXR0dEzYnI1j0UkDhyV7c1avXs20aZ0EQSOVDAXxZCOoCN9E9oz+hqZTQnVvQA2QVfnJfKrjTJbmKqTzHo7mRc8Jh6luzuQuMGHEA93IRzfktP9rSgNdcl5hCh9sfwW+cEyx6hehM4nkhVCClkyPdf3KZnu+9rWvjQMLT4tVz4PSuseCBQv4oz9aG4e4N5MjBGXHSxJrXsC57GJwhKAvarDEb+PqSSuZ7ZVRyDiDLwsSI5ao1HiZOEqlAITQ4en2f02JaLXYb+Xjk1bS6vgMyWM3B3o+pACEbs6j/0/mLgwDOjunsnz58hgUpznH8yALBCklLS0trF69Wg/KabZa2UUgslLP8ySRtmwJwYAMWJ5v5+rJK6k4lis1O7GySv/E4xzaaCVTeRR2gbroYV9ZWcJsv8SQ6X9yNH3thZxbIJjs5IGEc9h4qQ0b/irWN2DibCijpQnDOQAuuugi5s+fTxA0cBx7azVJpTuu2p37hZIS2V2sL2pwXnEqH2g/Q/fjG8H5CNpr3B0FE5BzKJQQHDD9P6z6rd2pirdXFrCm2ElVhsPm+8WfWwPCJgHGArDQOsfFF1+M53mZNNhTiSaEzmG5x/Lly1mz5jUAw0QriaJbNmIl+4XScB1E0B02+JPyTC5rnYsHthMeaRGrgWRL0BsXoJsoN1ogaKiI/ZGtG6zfi5DM9sq8qTQbBydT9XGsgK1nRxHEXEtn+gVBgzVr1nDmmWfqMZ6CyjhMAHCkMwV93+e8884ln8/TrBCHSvsr3JRF5MWe1wLEFlB4e+tC5vgtRMiU5SVpNbw96DfJRxNnFxRKcCRq8JSpim49+R6Ct7ctZJHfxqAM4hyTsVygVrzslo34HauIX3LJJXR2dmbChU41OungAD1x1qKxZs0alixZQhgGhnvoyQ5Q7AlrY7pzW4C4Rv+Y45d4Q2kmZeGmTKLEnKo7arAtGKAoXBOtevJueJJbDzvCAQaUTtuyIfUr8u2sKXRSM2HlJ2LnFigQum+HPUcUhZRKJc4880ydGx9FpyTXgAkCjjTbnTFjBtOmTYvfTzvi7q3uoyCcuCjbWJ7bFw6Hojpvb1ugk3tio6htLSzYE1a5p7qPiuvHnahOFkCE0C2NXSG4fXC3eVd7uT0EFxdnMMMvUh1FE9LnTbGNQlBXkscb3cmYlK5RNmvWrPi9UxEYMEHAAXoSdRGGVqZOnQqkKyPq52eCAY5EDTwhYuvMWJAVNyKlq6S/qWUOZeGhUiERAocAxe+GDtIjG+SEO6Ygfb7jVUrhItgeDHJvVVdzccwmssBvZU2xk5oMdZ78WC9QcygHQUNK/tDoBkTcdXbu3LlMnTo1PuepKFLBBAOHrZe6fPlyAFNXN9E7hlTI5vqRuC2SMREAABO8SURBVDbtmFldzM7q4XAkavAXrXNN9cGErJn38UYfdw7upeLqvOnxdmxZIIdKd6r9et8zDJEUcQM4p9DBAr+FqozGnmuQgFMo2BEOUldaR7NGlIULFzJ58uQJ27FptDShwGHrF51//vlMnz49pUDqR78K+Xl1H6VUfNNYAkQIiJSiIBwuLs8YFlYiTEmf2wZ2sCesUnK8TGuDEwmStCNNtwvweKB+iH+r7rNXgEIx2c2xpjhVZ0OKsXe8WSes9hU5bDL55Iqke9eyZcviWmWnKjBgAoEjbdI9//zzWbBgAWBFK1MXCdjS6OFgWCenxlb3AANQoctlrslPpaCbP8cPicRDdz76fv82PCPz297cJ0oHSftlIiXx0HW1PnfkUZNolLgupzlFlnkVajLCOQFWNWtKFwL6ZINvmXKouuxOxJIlSzj33HNPSY94M00YcFjOYesYrVu3DoDINoo3IsOOYIC7qnuouDkdhKjGTqZVyvY4VyzPVSg56coYGqTaJiT4dt+z3NK/nbKjy89JKeEE6CDp4gqR1MDwhcPVh//AU3FrskT0nO+3MsMrUFdR7McZy7FgOFheeDxUP0zVdGyy+uFZZ53FypUr4wjrU1XfgAkEDtAAsRO6fv36lNXKxg05NFDcMbiLQ1GdnHCJxtBqZHe6UElaXJ/XlDrNJ1a00gGRETp74bPdj3Ln4C7KTtJYZqzs+mkxSild7CAvXHLC5R96tvDL2l7SQZIKhY9gVX4SkRh7K5HN9ZDoY9dkwNf6ngW0Pz6KQjzP5XWve20cbX2ac4whWdEqCAJWrVrFK16xMpXfkXCPJ4M+/rW6l4rj6zJjJ0C8QilmeeWRPs08f/rwZn7Uv4O841F0vaS1gR2PSsY9GrLJWkkykz5ei+MhUXyu5zG+3/8caWBYoWqSm2NFrhJbqcbWfKvnJFSKdifHLf07eLLRCwhTRFonNV166ZuRUk7oelSjpQkFDrvTWN3jmms+bTiJLc2jy+M0lOQngzt4LhygzbRTRo2h9QrtkV+Rq4zgkc9G7AZI/kf3I3y192m6ozqT3bypbm56ZaRLgabyIJKjqcxnAmHqQ0kiJSkIlzbX59lGPx899BC39G9vikpOYs0KwmOqWyBQYyvi6c1H0VCSSU6O+2oH+WrvU8l4VYTv+7z5zX9KW1sbQRCMGFl9qtGEuwLrLZdS8spXvjKuxK1JZ7O5uDze6OXz3Y8RmYSbSI2d9UqgM+xaHR9n2K7fnPehCzN/pfcpPn7o9/xscDcoaHdy5ISOaQqUJFK6JU1zyL0twCzRNbcaKkIqXbit4vj0yAY39m1j48EHuHfogO6m1MS97H854dDu5sa097rlyoGSlByXHtng44cfZihuRwCgePWrX83ll19OFGmgnMq6hqUJx/vsTXVdXar+i1/8Ig888AAHDx4kDHWnpBCJg8O9tQN8pfdp3ltZQoRO+B+LGCIbvOciUgsxM0oSgOgich4uD9WP8FD9CG8sz+Tc/FTOK3QwwyvpqogqoqEkIYpIRRmAeAh8HDzhUHJyNKRkWzTI/dWD/GpoLw8MaXOpM6yAdnYB5oTu8zGgAnLixe97iU9FksMlVIrPHPkDvXIoth4KoYMNP/nJT1IsFomiKCMKn8o04cAByU1xHIfOzk7+/u//nssvvxzHcZFSLwrtdXC4uf85pjh5NrTNp0824hpWY6GH5IQNmx9pF8wCxAJWALcP7uZfBvdwVn4Sy3IVzs5PZq5XZrpXpMPJU3KSuN8QyYCMOBLW2RvV2Br0s6l+hGeDfrY0egENnoh0sx4y504m7uijfT6U1ntCJfHRJusv9Gzh32v7UYZjCBNfdsUVV7BmzZpTosTn86GTUvFwNJS2+jiOw3vfexXf/OY3SNoWWN+HolV4vLOymLe3LaQmAyJUXH/phdwk7S0X7AwHeeu+X6ONlUc7zvAFm+7yBLp9QKdboOL4lFLNLkFbvYZkSL8K6YkC9oZVQrO8bZuE4dwiqwPZ4kHLcm18f/paDkdDcSXGF3LttkiF5hiao32xdws39T1ngBHXTefcc8/lpz/9KcViMS7x+VIABkxQzgFJSId9vu66z7Jnz27uuusuhPBRKojFn34Vcn3Pk/TKBldVliKUJDSV9VAmfUkIbTk6Rq8Mu2MqMF1ra2ZhjrQo45GmPkt8ITZCVqHokwF9MhjhtyOTa3ZmCanzc9Qx2KU6JCMORfW4ooidx+OR7QliC7nZBpsl01r5cz2P8eP+7chsQwE6Ojr45je/SVtbW6aS4UuFJpxCnqZ04Fprayv/+I//yKpVq1AqQJguqhYgAZJv9T3Lhw9t4kjUoOhq9m5vlTqK5Sj92oZFSKWV/IcaR0zx0KMBIx5p9kDmOTIdMbQAmO4Ckv1zzEOXCXJiP0pWdDraGJJrGlQhe8Oa7syb8tiPZErOtI82FjKUSbdV0Or4HJZ1PnH49/ywf7vJcEmA4fs+N954I/Pnz499Gi8VccrShAZHJmwiipg3bx433HAD8+bNQykbt2Nvmc79+FVtP2/f/2vuGthDXri6+YtZ9KjEuZZpRyyS11JK07W2zp0DNhT8WJK8anrOmlntJ7YTeTTCw3YjH36G5mM1n4vU9cOhqM4vh/bS6mh/i1IKxMj1qCwg4pgw/VXyOJSExz3V/bxl76/4VapItUqN4eabb2bt2rWZ+KmXEjBgAuscltKilQ1JePzxx3nnOy9n8+Y/GO+5ML6QpH0BwAKvhY9OXsmyXJuR80W8m6sm55wj9BLyjHj0v3oeM22Ihy92MzJGEney37A7/gulZGGnPSPNxgDizUEy1yvzuannsMivMCCDo/Ic+wtHaH7lKm0J2xEN8LXeZ7i7ujczBn1+SalU4qabbub1r7/klCzx+XxowoMDyLBrayrcvXs3Gzdu5M477wTAdX0Th5UsFEvn5Du4tGUmS/0KHV6BIi4+SYi1kroY9ZAMOSTrfK//OX4ysNP8WjQ9DwdFOrop244MisIlJ7RS65viA5nDmGcrqtdVRKAkDSQNlT2WY7ijzHCQZDfX+RySFbkKV3esYoZb1v1LTNhHWg9x0BHICkW/DNgWDPCvtX3c3L8tc73aQhgBihUrVvCVr3wlU/s2Lfq+1ABySoADsjfWAqReb/ChD32Qm266icHBQTwvh5QRUlpBxiqQ+rdtjs/SXBvLcxWmOUWKxqQqlaJHBjwZ9PLL6j7TJba5IWUzKPRibRaIOt0CbY7PJCfHK/LtLPJbmeoWmOLmmeTkyVtApjiiDUOPlGJfVGVfVONQ1ODJoI8t9R76ZcihaMg08dFk2zw3A8QaugvC5U9b5nBWfhIz3BJtjh/XF26gqMqQXeEAu8Iavxs6zAP1Q6nZ1huHbous88Mvu+wyPvvZz9LV1ZVpPvN8FP9TjU4ZcFiyi0lKGXvTv/e97/GlL32J3//+9wDkcnmiSHevBRsyKIgYqQtRloT5kyMCY2RQzPbKzPJKzPVbeENpBnO8MpPdfKxrhEpqHYC0eDQyuegCba6jfSahVOyNqmyud3Nv7QB7okEeqfea76adgslYE9VZf+bhMMsrUXF9FIruKOBAOEQ9NR+OUT+F4+C4LkFQB2DRokVs2LCBj33sYwAZJ99LkVuk6ZQDB2R33UajQT6fZ+/evVx33XXcfffdPPusjhbVpkVh/CJGTDBLJ1u8TcRLSQ5bvln5R9eD0uLOmflJnF+Yyh8VOlmWq1B2XHplQF1JAmP4hLTmcGyblz2bfqjYxJp3HEqOh6cEe6Matw3s5jf1AzwwdNj8qrl8qn7tGs6Zbg+dJteIaco0ZvB9lyDQJufp06fzute9jo0bN7Jq1SoajQau62bC0F/KwIBTFByQFbNsWR+Ahx56iFtvvZX/+I/7uffeXwNWbj5WR6csZ0i+N7JMP8crs6FlPheUOpnvlakRUY1CQnQlEwf9OKr+fswLy35PW9U0IJUSFB2XFuGxPxrihwPb+Wrv01iX6PCegFlDQaLcq/hT0P3BPU/Xm1q5cgVr117E+vXrec1rdA2xer1OLpd7SZprj0WnLDgsxTJ7FCGljEGye/dufvazn/HJT/4d/f0D+H4u3hU1pcFwLCdf1iFydmEyn5i0kkV+K1UZUjNJRW7aZHocZ+Oor81wjuSwGiihkhSFS4vrc1PfNq7tfiQ19mMBntR3DHdx3TihbOPGjbzrXe9i6dKlABnR9eXCLdJ0yoMDsmJWFEUopWKQ3H///bz//RvZsuVxPM8jDNN6x7FAAYmSq0WP2V6Z/9N5Pp1egd6oYUDhxF9VKDTDGPsF1AyUSOnWCWXH578e+B2/HjrI6HoCJtel5yNg1qxZXHvttfzZn/1ZnPttQfFy4xZpmtBOwNFS+gZ6nofneTEnueCCC7j99p/xt3/7t6YAgF0kw8Wm4bus1UckeRz+v9b5zPZLpp2aE5fxj0FxFIfbmFxjSkzTheh0U8sIxRy/JTXeLKdLHyH7niIMA9785jdz++23c9lll8Uc2HEcPM97SfswRkMvCXDA8Btod70oipgxYwbXXHMNt912G5MnT8b6q4cDpHkBJeQIQcXxCFCxxz324J8gQIxEsbXOhOdXZcitAzvMp2nQw8jA1wBqb2/n+uuv5+tf/zpLlizJiFD2PC93esmAI03phWsTp1zX5ZJLLuGJJ55g48aNph6vUWVFMyiyoBE41FTEjwd2IBS4xpQ83hUP0+KjUoo2J8ct/dsZTGVKJuO31yOM41Hb4mzxigcffJB3vOMdFIvF+FrSLZBfrtwiTS9JcACZRZSOFm1tbeW6667jF7/4BRdeeKFpGq89wJbbNMvt1rrzh3o33+1/jsluHinI1qw6rgfjxVFGr1KKipfjP4YO8rXep+0Vk+WCtlK9RCm9OcyZM4ebbrqJO+64I9Onz9YLe7nqFkejl4RCfjxq3t3tggD4wQ9+wD/90z/xyCOP0Ghob7Dn+UipjPk363me4ub52OSVrCtOp182UGhLlVXIx7w0jz5wLEpFSjHJzfFIvZurDvw2LiAdj1M4uK5jDA86jHzJkiW87W1v4wMf+ABAJiYqTaeBkaWXBTjSlPaw23xngC9/+cv85Cc/4YEHHqRWqwLg+znzPa2jCOMZn+Lm+VD7Gby+PJOqDGmgO9zafPCxzt8Gbb51FLS5OTYNHeKDhx6iVzbiMBcd7uGYEqqazjvvfN74xj/hyiuvpLW1NY4YsKbZ02A4Nr3swAFNiy4MM6bf73znO9x9991s2rSJrVt1NT8d1Kjr9lpHYFm4vKNtEW9tXYAnHPpkA88E+b1YP0c6G08qRagkJaFrY/1bdR//o/sRemWAg+6Qq6u1aF9FV1cX5557Hueddy7vfve7KZfL8UZgLVCngTE6elmCA7IedqUUYRjGpmCATZs28S//8i/ceeedbNq0KRX1m/g9AF5XmsG72haxPFehXwY0lMR3nBfkEEz7MhSKUOqymx1Onh3hIN/r38YtA9sIlDTAsCVUIzo7O3nb297Ga1/7Wi666CJAi082r9tpCng8Tcenly04LB0PJFu3buU973kP9913X8qJaMs76LCOuV4L68uz+bOW2XS4ebplg9DU1RXNTsFmH12TBVkJRSR1MEir6yMV3Dm4ix8MbONRU0TNci/H8ZAypKuri69//eusXbsW0MGBllOkjRGnQfH86GUPjjQ1e9qllORyOXbu3Mn73vc+7r77bjwvZ+R6hc4TTwIRV+YqXFqey+vLXUx2ffplSF1KlFDEvGSEiI50sKGHQ0m4OEJwT3Uf3+nfyuP1HoaQuIZbKIg5xrJly/ja177OOeecHYfHpMUnOA2KF0qnwTECNYPE8zyOHDnCxz/+cb71rW/hup5R0tMBiXp553Do8kq8stjBZeU5zPdb8IQumGBLe9qMJ+1+0N5ux1ijDkZD3Fc7xI8HtrMnqsaFGfQ5NFlgXHTRRXzpS19i4cKFw3IsTgPixdNpcByFRkrPHRoa4hvf+AZXX301AwMDNIeh2CwPSxXHZ6pbYHVhCsv9Nmb7ZdqdnKlDpb/bJwN2BANsD6vcP3SA/eEQg8YCBjZdq7mDruJ973s/V1/9d7S1VeKQj9PAGFs6DY5jULNH2iq1TzzxBFdccQUPPPBASnSx9bSEgUtziqvJrxApyUq7MOK89jTpozggbA1gfZ7ly5fxuc99nnXr1sVBgqeBcWLoNDiOQ+kF16y833DDDVx33XXs2bMnA5I0oMxR0kdsOoPIvNahG/q1Nc8CTJ48mQ0bNnDNNdcYr35ynNPAODF0GhyjoGZQ2Pccx6Gnp4cvf/nL3Hjjjezdu5fBwcH4d47j4jhu6jeQBkc60lYIjI6TACKfzzNz5kwuueQSPvShDzFr1qwRK36cBsaJodPgeJ6UBkq6Ake1WuW2227j1ltv5dlnn2XPnj0cPnz4OEcbTuVymZkzZzJt2jT+/M//nLe85S1Mnjw5o/vYcZwGxIml0+B4gZTWR6ylyOokBw4c4MEHH+Tee3/Nnj27OXToEH19fTQaDYKggTKxUrlcjlwuR6FQYMqUKUyfPp3Vq1fzqledy+LFi+JzNRoNfN8/LT6NM50Gx4ukdKyWzVNv7mo0ODhIT08PQ0NDDA0Nxb8plUrk8wWKxQKTJk3K/Mb6LCzoToNi/Ok0OMaA0lzE/m/jmSyHOB4FQRAXY7aP0zrFyaXT4DhB1GwGPlZSlNVbTnu1JxZN2BYEpzqlLUrPZ6GfBsXEoZdsJuBpOk0vlv4vg29yFmA27AoAAAAASUVORK5CYII=;" parent="1" vertex="1">
          <mxGeometry x="1473" y="190" width="69.98" height="64" as="geometry" />
        </mxCell>
        <mxCell id="JF5nL9rpV0ovMVN0kRnF-57" value="" style="shape=image;verticalLabelPosition=bottom;labelBackgroundColor=default;verticalAlign=top;aspect=fixed;imageAspect=0;image=data:image/png,iVBORw0KGgoAAAANSUhEUgAAARsAAAC4CAYAAADT0kjVAAAABHNCSVQICAgIfAhkiAAAABl0RVh0U29mdHdhcmUAZ25vbWUtc2NyZWVuc2hvdO8Dvz4AAAAtdEVYdENyZWF0aW9uIFRpbWUAV2VkIDA0IERlYyAyMDI0IDA0OjI4OjUzIFBNIElTVJ/TgIcAACAASURBVHic7L13eFz3eef7OXUqBsCgd5AECIBgryKpYklWsyJHcknseFM2TvfGcZr3Js6Nd7P73JvdZzd77ybrm2ya48hxEhfZkiVZvReSEkmwF/ReBmUw/dT7x4A0JRGDMyhD0D6f55nH8sODOb+ZOed7fr/3977fV0ilUjYuLi4ua4x4owfg4uLy44ErNi4uLgXBFRsXF5eC4IqNi4tLQXDFxsXFpSC4YuPi4lIQXLFxcXEpCK7YuLi4FARXbFxcXAqCKzYuLi4FwRUbFxeXguCKjYuLS0FwxcbFxaUguGLj4uJSEFyxcXFxKQiu2Li4uBQEV2xcXFwKgis2Li4uBcEVGxcXl4Lgio2Li0tBcMXGxcWlILhi4+LiUhBcsXFxcSkIrti4uLgUBFdsXFxcCoIrNi4uLgXBFRsXF5eC4IqNi4tLQZBv9ABWA9M00TQNTdPRdB1DNzBMA8uyFo4QUGQZWZbweDz4/T4URbmhY3b50UfTNBKJJPFEknQ6ja7rGIaBYZrIooikyCiygsfjIRDw4124NkXxR3MOcFOJja7rxGJxovPzzMzMMT0zy+R0lOhcHE3LoJkGGUPHMEwM44diIwgCsiwjSxJeVcWvevH5vBSFfFRVhAmXlhAOl1IWDuPzeW/wp3S5GclkNKLRKBOTU4xPRhgcnSQZTRDPpEim02TSGQxDxzJNdMNAliRkWUaSZRRVxef14vN48KleqqpKKS8vpbSkOHttlpbi83kRBOFGf8wVsa7FRtd14vEEc9F5pmfmGJ+aYXJyisnJCYaGRxgYGqG7d4SpqShYgCyAkuOpYAGWDYaFqkpUVpXStqmJhvpa6hvqaK5voLamkoqKMOVlYUKholX/PBOTU6RSaSzLXvQ4URRQFIWiYIDS0pKCP+kyGY1YPEZ0PoahmzmP9XhUSopDBAIBFKXwl1MsHicanSedzmCa1qLHiaKA1+uhproaSZJYjfvWsixmZ+cYHZtgeHSC/oFhevv6uNjdy7tnLpGZz2ArEpIiIIoCAtn/vRbbtjEtG8OwYOG1aWMtGzfWU19XQ31dLQ0N9VSWl1FRXkq4tIRQURCv9+Z7KAqpVGrxq/4GYBgm6XSaRDLJ5OQ0Fy5d5vjJ07z65nFOne9FlEV8XgW/R0GWJBRZXNbNmP2RLQzDRDNMYikdPZahtamWu+89yJ133MrO7Z2EggF8Pi+SJK3oc5mmxejoGN/41ncZHBzGNI1Fj5VlhZKSYtpaW7jn7tspC5ciy4W5kTOZDD29Axx75wRnzl0gFo8vemPaNlSUl7NrRye7d26noaFuxd+TUyzLIpVO8/aRd3n3RBcjo+NkMplFxyrLMjU1NXz25z5NWVkYWV7+OA3DIJFMMT0zx5tvH+Wxx3/AO++eI57M4C3y4FcVvJ7lL9MN00LTDTTdIKMZZNIG5WUB7rx1P7fs282O7Z00NzYQDPhvqpn4uhOboeERnn3+FR57/GmOvnEesUjBH1DxKBLSVVERVuXJdAUbsncOYFo2yYxOImNQWRLg9//dZ/nIfXdTVVWxonMkUyn++m+/xl9+/XHisXn8nsXFw7ZB00xSKZ1PPXwXv/35X6O5qWFF53fKG28d5a/+8uv84NnXCFYWIYkCoiDA+79vGyzbxjRtEtOz/PQnHuQP/uAL1FRXFWScsVicZ557kT/6wz8jbmbwBDxIgoCwyHMnndaRZQ9f/M2f41OffJji4uJln7u/f5B/fuwJ/utXHkUWBUI+FVWRst/TKl6b2Usye11alp19KCYzyLLMgZ1b+JVf+Cnuv/fu1TlZAVgXy6j5+RivvfEW333sebrOXMaQTfRMmtLqIIIkIkrZC36t1qwCcOUKkUQIeBU8ioxlmvzXr3yNJ37wEp/56Ye4964PUVQUXN5JbDBMA78iYSgS8hIzAFkUUSSR73zreR564H6qqyrxej3LO3cePPHkK7z17ilKq0JIioTAdYTmCjbYsg2lIS71D/L8i6/xsz/ziTUfI0BkZo4v/elXsD1QJF8TVF1krB7VxutRVzTzmopM853vPc33nn6BwZEJyouycRRZFD+wPFoNspdk9n1FUcCjCMhFIrYNF3v6+OM//Qu+8jf/xP/57z9PZ8dm/H7fqo9hNbmhYhOLxXnuhZd46vuvMjQ5zsREhPl4HNkjo0gSqrfwO0aCICAJApKYXWolUwkudvfwlf/v65w/08unPvUQLZs25P2+kiSysbkJWVWwbRaegrn+ICuuMcHm3MWLtHdsor6udpmfyhkjo2MMjE8Q19KUBxyI6sLN4PN5Gegf4+03TxZEbGLxOBe7exkcnaSxqsTRkshGAEmitrYaaRlL0iPH3uVf/+VJjp44xfT8HLpp4i1gjEoQstemKGY/q2mazM7OMh+N8uUv/xm/97u/wqGDewvyQFouN0xsxsYmeOq5l/jW4z/g4plukAW8XpVAcP2sQQVBIOBVsSybvoEhYtE46XSan//5T7BxQ1NeT0lZlunc0oFsSRiaAQ7W9IIAgWIfXWfPc+jg3jUXm57efpLJOGqOJd71EEWBaCrN0GSE6ekZysrCazTCLHNz85w9d46AV1latBewTBMM2LqlA4/q/IZMJpO8ffQ4j37rCY6+dYJ0JoXX7ymo0FwPSRKRJBHbtjl+6hyvvXmUxsbaZT0IC8UN2dC3LItLl/v4m7/5Bl1nL+Mt8hAIeJGk9ZlfIIoCgZCPmfk5vvv4szz66HcYHZtANxYP8n7wPUQaG+qpCpfikWVse+lQmSAIqIpM14kLjI1OreQjOOLi5R4S8Xk8y7iRRFUibWr0Dwytwcjey8zMLCdPniPk9zhavti2jUdVaayrorGhzvGuWXQ+xpF3TvJXX/0GL7x6BM3S8QXW1xa0IAgESv2cvXCRgcHhGz2cnNyQu1vTdMbHpzh3tpeykP+awO/6xhf0otk6f/N33+T7T7/AzMysI9GA7EXh9XrYtaedcEUpRo5t2muRJZHe3lHGxqfRNG0lw1+S06cvMhOZQ16G6CuyiJ5J09c/sAYj+yGWZTEVmeXEqfP4PM5mNrppUlZWwofv3Of4PMlUilOnz/HXX/1nXn7zXfyqhEdd/mzGtm1s28aysi/Tsq6+LMvGWvj35aDIEjOzs8TisWWPrxDckLs8o2VIaBkILG99aZP98awrr4Uf0LJtbLj6A1774175/8v9Qa/g8akUVwX54pf/jBOnzpPJUwBuPbiXyooK0pru/I+CKiORCcYmJvMcrXMsy+L0yR6mp+aWJf6qLJFKJuk6c2ENRvdD0uk0ExPTDA1OOU550HWTYFGIA/v3ODretm0uXrzMP3/n+zz14ltUlhblLcD2wm6dZdmYprUgMDa6aS5sbZtkNBPdsDBMC3Phde31uhIBWo+si90op9gLW62aYZDMaKQ0E1MzwTDBAtErEy7xo0gShmmSSGRIJjQwLZBFVL+KV5XwqQqqIi972SYKAmXhIN9+7HEqwsXs2b3D8d+2tm4iEChCyxjgd/Y3RT6VyOQkExOTNDXUL2vMuTBNk57eflKKBZ7l7dbIkkRkZo5nX3uH/7TK47uWyPQMIxOjqEXOH1R6QsNrKWxp3+z4HN///ks8/p3nqC0P5T1Gy7JJpDLMJTOYSZ1gQKWxsZqW5jpKQkUEi4JXl2KWZaNpGWbn5hmbmOTkxUFS0RSIArJXwe+RCHhVVFVZdFPwZmHdi41umKQ0nUw6OxOorQxz++7dNDQ0UF5eRmlJMaFgET6fD0EUUBbyHWzbzj4xDAvTNInOR5mNRhkfn+T8hUucPnOZ8fEZQmE/HkXJKzdCEAT8PpWXnj/K3h27adm0geJiZxdlZUU5ddVlFAW8WJbtKObgUWV6evvp6x9i/97dzgfqENM06esfwLbMZS2hrmCZFvH5JBOTU5SFV5Y4txiTkxEGBocJ+FRHx5uWRWVVmPYtzQSDztIWnn7mRV47cgQ1oOT1QNINk3gygyTKfOSew7S3tdFQW0O4tISikB+/14ssK8jyDzOYbTs7q9R1Ay2TIZpMk4qnmJuPMjkVYXBomNNnznP8yAXwSwSCXnyqfFPWT607sckmLxmk0jpGTGNzRxMtrRuoq6ulqrycmuoyGutrKS0ppqgoiN/nxev15iysvJJtmkqliEZjjE9M0T84wuXL/Zw5d4633zpFIORF8TgXHUkUSZs6x0+dYsfONm5xOEVXVZVtnZs5fe48vf3DjuIAiiTR2z1Cf9+os8HliWGYdJ0+h6VnkOXlX8SiJCIINt09vYSKgsjy6ud99A+NcPrcJbwOC2kzmsGmDU3s3t3paPewf2CI14+doHdkDK/f+ewpNpugpqaaB+/dzY7tW+ls30B1VSUlxcX4fN68xMEwTFKpFPFEgpmZWUZGJxh6aIL+sREud3dz8Xwvk1Oz+Iu9eFUFy7azdVZiYbK3l8sNERtBWMhKNbJB0iuzkExSw+tRaWqooaa2jsqiUjq2bKStbQNNjfWUl5UtK3FJFEUCfj8Bv5/ysjI2bWxm396dTE5GePf4SarCVbx5/DipTAo5j7qZYLGPkyfPcryzg727dzguKejsaKWpqYEzF/sciY0oCswnUkxMzTAXjVKyguzX66HrOq++eZx0Ko28ggtWkkQkEc6dv8TWLe34fKsrNpmMxvDIBP2Do4SCzt47ndKoLK+gs6PN0fGvvPYWl7r7MQwTn8Ndq/hckk3Nzdx3z2185CN3srWz3dHfLYYsSxQVBSkqClJTXUXnluz7DQ4Nc+78Jbq6LnD+Qi9Dk6Nc6hvCiM9Tf2AnFRXlKzrvWnNDxEZRFPxeD7IgkIil8XgVSktLCFb5aayt4cCh7dyybzdbOtrWrCZIVRTq62qorali/77d/Nn/+nteevVt5uejjncdFFliYGic8xd7mJ6edVzS0NTYQEVlFWnd+da54leYic/R3z/Azh3bHf/dUliWRTyR5MTZHnweAd8KanokUcC2TI6808VDD97PKmsiM7OzTEZmyWQMhCInW96giBLVFRU0NNQtcayNpum88PJbRCYmCTj4HmxA1w1Kior5xMce4GMfu5+qypWVteSisaGexoZ67rj9EAMDQ7zyxhGefvkIxCPcfcdhNjQ3rtm5V4MbIjY+r5e6umo6OjYyNTRDdVUF9919mHvuup32tlYCAYeR01VAFEVqqqv44y9+Dt2w+P4zL2BaluMdGU/Iy8TsNGfOnXcsNuVlYWqqKvH7vNi27Shvw6NIzE7P0NO7umKTyWiMjo2DyIprekRBQNc1nnvlbf59PEFVZfmq5qQMD48SmZ7C4zCz3LQsGhuraGlpoGiJeI1l2UxMTtHTO0osniYUWnrmZFs20USaf/urn+D+++9YU6G5Fp/XS3tbK+1trfzqL/6bgpxzNbhhMZtDB/bw/JOPMjcbpbS0GFnOBr1uVMJUUVERv/iZh0llUnznieeoDjuzl/CqMpHIFBcudnP3nbc7Pt/29g3cdXAXrx85js+zdLBTkSXGJ6Y4d7Gbjzs+y9Kk02kud/eiKkvX91yxxVjsOEEQsGyYisSYm4ui6zqq6iyQ64Te/gHGxyYczzzTGY1tW9vp7Ghd8ljTNDh3/iKWbKE4yKC+Etj1KBJ3f+i2ghXK3szcsJC2IAh4VA8VFWWoqmfBY+TGbu5tbt3Evh2dNFSGMYzcPi5XUCSJgaEJjp28mNe56utqaG3dRDzlLE9HEiUmx6Y5d6qfVCqd17lyEYvHOXHyNKokIuUQG9O0CAb8FIeCOb14BAFUn0pPXz/xeGLVxglw8mw3l/qGHGc4x2IZamtqHZV5mKZJd08vlq7n/B6uYNkWFvDQvbdRHi654dfuzcAN3T8TBFbNyGg18Ho87NjazoH9O0mknYmAIAhkNJ3ZuXlmZ+ccn6u6qpKNDU1k5pwJhyCAKQrMa0mGhkccn2cp5ubjvHGsC1FYvDjUsmwUWWbntna2bW0nkc4s+n6iKODzKly63EN0fvUyWueiUSYmp4nFk45ubMuy8fsV6mqrKQsvXatlWhYjYxOYpuEoHcGybAwLOjvaCRZw2X8zc/Nt1q8xG5oa2b5lC8nY4jfU+xElEd00mJyKOP4bn89HbU0FG5tr0A0TJ4miiiqhGRm6e/ocnycXhmEwNzdPT98IAix6ExumSX1dFbt3bqOxsYFkDiEWF4pXu06dYyYP8V2KwYEhYrGYo/IE24aMbrBrazsbmurwOFimWpbN1NQ0pmE6EjPbBtO2qaosR1VdP2snuGLzPkpKQjTU1RLwqY5TxUVJxLB0IpHpvM5VWRnm8G27SGY0R+dSZIlkIsGpM+fzOs9iJBLZBLy0ZizuWUP2xt20oYmOthZKiksw9MXrugRBwKPInD7dTSQye43p/Mq41N1LLB5DdRCvsbGJpzLccmAXjXU1jt7fti2i8zEsy8p6+Dg4C3BTJtfdKNxv6n3IskxFRQnt7U0YpuVoxiEJAqauMz09k9e5KirK2b93D4l4Bste+qaUJZFYdJ5jx05hms5iSrmYi0bpHxzE41VyPs1TaY3a2mqaGuopD5cQCviwcnwxoigwOTFHJDJHOseSKx+6zlxkdnYOxYl3jW0TT+m0tmx0bndhc9XD2Mmy/orvUSQyg+4wvvfjjis216E4FKKzrRVNN7BZWm0kScQyTWbnonmdJ1QUpL21hUw8g206s5yIx1JcOj9EPB5f8axhZmaWnt5+/J7cdTfplEF1VTWl4RIaaiu5ZU8nGU3PKcRqqZfJmQhz0fy+k+thWRavHz3N+MS0I7EB8MgSDfX1jk3rBVEgFAoiiqKjWaYoCEiiwMXL3SSTSUfn+HHHFZvr4PN5qKwszz6xHMxsREHAMi1isXhe51EUhfKKMNu3b0BRnHnciB4ZOyBz/mJ33hXn72d0fIqTXefxedScMxvVK1NeHqYoGCRcWkLLpuaFp/ni4/UqMiMjI0TyiGNdD9M0GRwaIaPr4DBwayPwmUc+TFV5qePziKJIbXUlsiznnLVdQZJEZFHgG4+/wGRk1vF5fpxxxeY6KIpCUahoIXDrLG5jmCbJPLekBUEgVBTkoQfuQpIVzBxbylfIlgTYnD13AS2zfLHRdZ2p8VkGesYXLTa0bZt0Rue2fdupqSxDEATCpaU0NTcyn9Ryzmy8qszl7j5GxiaWPUbIis2ly92YluGoSNSwLNKGxcED+yjOoxWPJErZDFxRcuw1JApgmwZPPfM83T29js/144orNtdBVRRCRUXoppNFVBbLstD0/G9+r9fD4YP7MWzB0dpfFkUsw+D5l98kmUrlfb4rROfniURnMXJkDlu2TSKjsWNrO6Ul2dqD4uIiGmvr0OczOYVYkWUunOtjeGhlHjyGYXCi6wyW5qxI1DJMjJjGzu2dBIIBx+eRZYn2zS2IsuJYbARBIOjz8MTTr/DE0y/SPzDo+Hw/jrhicx1EUURVVUfT6WsxlxFD8agqW9o34/V4st0KljilIAiYpsHbR04xP59YdtxmcjLC5HQENZCrWt4mmdJp2bThauzD4/FQWRGmsaYMWHy8oigwHU0wHpnOe3l5Lbpu8MrLx0inUkt2pLBsG1VRaG2up6amEjWPFsuSJLF5cws+vxfbwe9wBVWRGZ+c4vFnXuIb3/k+J7tOo+t5GKP9GOGKzSpwvbZKTpEkifLyMjZvbMDn9SwpHoKQnUVNTs8zFZlZdtxmdGyc0ZGxnMbdtg2ZjE5TU+N7EteKQkH2H9x+1TFxMeSAwnR0jrHx5S2lTNNkdm6erjM9pNLakjk2pmnhD/i5+55b8u7lLooiVZUVdLQ2UxwM5PXgKAn56e4b5JuP/YB/ePTbPPv86wwMDpFOp3+knPZWiis264R7PnSA0nAJuoMtbUEU8RZ56enrW3ZJQP/ACL19g6jK4rMFQYCQz7vQs+qHXS9CwQB7d23FsOycW/YBj8zM9DTDI8vz4UmmUnT39GIHFQQH8RrdMFFUL4cP7stbbK7w8P130txQh5bJb3ZSEvCSSsT51uPP8rkvfJlHv/Ftjp84w/DIGPPzMXe2gys264Y9u7aj+gOktKVtJ7JZugpnzpxjZnZ5OyF93WP0XhhedGliWhaqovAT9x4kGHhvBbTP52NzWyuxjImRY8teliQmJiYYHFqe2KSSKS5cvEyRKjkLDid1FE1g7+4dKMu0Jrn10C2UFYVJRvOvP5NliZKSAP6Qwl997Vvc/8C/5Qu/88d894mnli24P0qsO6e+5WAYBul0BuOa1iqSJOHxeG6aVPLNm1spVvyQIzv3CoIg4PeqHHn3NA//5BxtSxc1v4fR0TFm0jHswOI/v2XZSKrMrh1b8Xrfm+4fCPjpbGtDiunYxQosUg2gyBKXeobpOtuT3wAXmJuP8frb7yCJS7e0NS2LisoSdu1vw+/3L7sw0ufz8cjH7mEuNc/RrjOUOjTpuhZJFAn6Pfiby7k0MMh/+Yt/4L/91Tdoqqvio/feyp5dO2jb3ELA/+NVU3XTiE06nWYqMsPg0DAjo2NMTkboHRhlcnyWTFLDFGysax5+oiAgCiKiDYoqU1sbpq62kvJwKeXlYcrKwpSWlFBRHiYUCt3wql2vx8OunZsZHh8iGovlTF4ThGw2cXf3MJOT2RYv+Vg5DAyNEIvN481hEGWYFpotsH1rB6ry3vcWRZFg0MeWrU2MTU1h2fZ14ymCIJDWdSJzc0SmZyjPs3ldLBrn7ddP4S9d2lYzoxk01Ndyy/5dKyohEEWBQwf30tM/QHdvH4ZhLMsYXxJFJI+IZZlomo6ZTNCTTvCP/zrLv37/JUL+ADs7W9m3eytbt7RTX7+2DQjXA+tWbGzbJp5I0N3Ty6mzl+jtHyEyPcPc/Dzz0SiJeJzIdJT5aCLbYVISsq9rsQDLRpJFSkuCFJeECAR8BPwBfIEAPp8Xv8eP3+9nU3MNDfXV1FRVIooi6XTakdXAarJ75xZOnjnH1KnZJTNlBUEgbRiMjk0Qjc7nZQnZ3z/I3OxMzniNZVoIJnR0tF23kFGSZfbv284zL71JIpFAXGS8siyRTqUYHR3LS2wSiQTDYxNE4gkaS5fukppJ6xQHS9i+dYvjcyxGWbiUu24/xNDQGN/45pOUlTvP13k/oijiVbNiZdk2Y+OTpLUxbNNieGiQU2cvUFVZSVVpGVu2NrNpQzNNjQ2EQkUr6ku+Hll3YqNp2Rqjcxcvc+FcL5f6ejh5+jwDQ2NkNAPVI6PIIrKUXccXFTub5uqmycTUNOZEtk/P1V49ejYg27qxnqbGWmqrq/EHA0xOTuHPo73ratDR3kpFWTmZlE7At7TZtjegMjw2ylRkOi+xOXuxl/HxCMoiF7Nt23gUmdqKUirKy657jCJnl1gvvPEuRiyGzPXfS5Ulksk4ff2DbN/W6XiMs3NR+gYG8BR5lpx12raNKktUlodpXKVWN+1trTz80P1cvjxI16kzBEI+pBV2ixAFAa+q4F1Y2s/HY7zTdYZMSke2BLbvbKFl00aa6uppbKilsamWhvpaysJhx1081zPr5hNYlsXsXJTe3kGOHjvBU8+9wDtvnkctVvEHPAQDHopW0AdcFLNN2ZVFborp2TnGJyOk9eMYloUiSZQsY72+EmpraqgsLUNBdGQXGvCq9PUNMjYxyRaHht7pTIbzlwYYn5qltPj6MQPTsgkVF7Fn9+LG3dm8lE1IooRhWDnjNrMzUbrOXOAnH3rA0RgBpqdn6O3rp8inLh2vMS1qaipobWkgmEciXy5UVWH3zk6++Du/zO//3v/NdGoOi2yrm9VacsuSRNAnEfR5sG2bS32DnDzfQ2YuTU1tGXv3bWP/nl20t7RQ31BNRUWYYCBw08541oXYmKbJ9MwcP3j2Rb7+9cc4duwcZfUlVDSWFsxYS5ZEZEnF5109G8t88XjUbOua9gaGRiZQl3iaqbLEqbMX6RsYcexlPDIyRlJL56wzMkyTYDDArh1bFz1GkiQ2bWjGY0jYmrlowz1FlpiYnubIiXNYluUonmLb9tW6La+auyIdIK3pbG7ZwK4dzmdOTggE/BzYv4tHv/4/+Myv/x9EJicQBBtRXNxobLlkrTkUPIoCRX4My+SlN47xxNOvYSd0Hv74XTz80fvZsb2TivIyPEvUs61H1sXWd1//IL/1h/8Xf/Lf/5L+8XFqmsrybhz3o0LH5k10tLU6cgoURZHIxDyT4zOOK4+HhkcwDQ0lR+p/WjMRVC+tLRsWPUYQBPx+H02baygq8edMXjN0k/n5BNMzzvxtdF1nZHCS86f7HVV5J+IalZXVtGxcfLzLRVEUmpsa+PZX/19++ifvQ5AUpqOJnNaoq4EkigS8KpUVISobw7zxzkl+7fP/kV/7zT/gW489QXR+fk3PvxbcULFJplK8/sbb/PYX/oSud7uQsJAlcaHZ2Y0c2Y2jrraGutpa0klnSWCiVyIyN+M4S/fMmfOkEknUHDexnTEI2ApNDblNvAVBYPe2DsLhUrQcdV2iJKJbBr19/Vc9Y3IRicwwMRdB8C898bYsm0BApb62kvKK68eXVookSVRXVvBrv/Rz/Oc/+i3uvfMw0/MJZmNJx55Hy0EQBERRQJJFREHAH5AZGB3lz//ia3z+81/m6WdeWJsTrxE3bBk1Nxflzbfe4S/+/Gt0D/QjqiKKIq+KyNi2/YELwImv7HqgpLSEuppqQkXO2vP6fCpTkQiDQyO0bNq45Pu/9e5potH5RbdzLcsiFPJTX1/uyAumrW0ToVdDDIyML2pErsgSWCbnL1xmx7bOJYOdE5OTTE5O4fEtnSOV0Q12bWtnc0tzXrVQ+SJJIg31tRQVBWioq+PQgT2cPn2Wl18/wkwsiUeR8HkUxy2A8kUUBTxeBcuymZmf453TZ5j7+wQXL/fw6U8+QkVF2bp3DbwhYhOLxTn2Thd/9/f/wokz5ymtKEJaRttX07LQDRPdsLLdEAwLZBGvKuP1qNkKbFHIegAAIABJREFUadvGME0SaQ1dM7ENa8FpXUCQRJSFrgKSKCJJYkF3n66HR1VprK9hW0cL5y714lFzLyc9iszA4AjnL/Vy14duW/Q4y7JIJlN09w6TTKXxLuLLa5gWtdWVdGxpcdQgcOOGZgK+IHrGgEV20GRJREulefvYCT7+8E/gXSLO3zswRG/fAD4HCZnxVIZt27awsXl1dqGWoqS4mH27t7OlrYXzOzpo2biBy/1DjI+OMTg4wsTUDLJHxqPIeXVXdYooCnj9HnTT5Mz5S0xOTJLRDD72kw+wsblxXQePCy42pmlx5twl/vXbT/L6m+9SUZdfopdtZwOYWkqnuDhIZUUIbyCILKl4bBHJr1IU9FDk86IsGCFpus58Mk06pWOmdQzLwsDCsE0Ey0DXMiSTaeLxBKl0BsuykWVxyQDtWlFfV82+vTs50nUeVZVzeuLKksjw6ASXuwdzJvcZhsHI6BjxZBrLXtxWQjNMqqoq2dLe4misNdVVlIaCSAjYi7yvKAik0imOvXOWdEYjGFw8mG2aJj3dg3R3DziK16Q0k6amRiorCtMg7gqBgJ+9u3eyd/dO+geGOH32PEePnubsxV4SepJ0PMFEZBpNN5BEAUWSFvqirc75FUlCFkVmo/P8wz99G1WVeeShB9Z1/6qC303T0zM8+fTLPP7US1TmKTSWaWGaNl6fD4/lZe+OTg4f3kPnlnZqa6ooLSnB5/PmjNKn0xnSmaywRKPzzMzOMjY2QU/fAF1nu+kfGieZTGNjYOgakiQuu6J7uZSXhdncuol4WiccImdJuSAIpDWdyGyUyPQMtTXV1z1O03QuXrwMoo30/uTHa8hoBqHiYsf5KoGAn7r6KsrKQmQ07brLM0EQMHST8egcs7NzlBSHFl1KxeMJxsemmY3EqKgtyXluy7YpDgWoq62muDjkaLxrQXNTA81NDTz0kXuJRqOcOXeR4ydO8fjzrzMxOYttGgi2iWHo2W6rCzPole4mCYKAqshousGj//xd/H4/P/NTDy/Z/fNGUXCx+e73f8AbR98mFM6vLsS2bRKxNHYafuP3P8XHH3mIqqqKvHuBe70evF4PJcXF121elkqlGBgY4rkXX+M//Y//TVlx0FER4GpSXByioaHe8cWoqjLJZJye3v5FxSajaZw8fRbJtnPGFcyUQbGviLpaZ10JALZ1bOJkVyNd5y4uGgsSZBE5IHK5p4/qqgoU5frxoL7+fqYTUaSi3CkIlm2TSmt8/L4P0VRb6Xisa01xcTGHD+7n8MH9/OZv/BIDA0Oc6DrF8y+9wbMvv8Xo+BwlJX58XgVVllYlzqIqMpOzUZ5+7hVqK8t56CfuX4VPsvoUVGwGh4Z58+gpegfGKAosnSF7BdO0sG2bWw7u4rd/47O0tW1cs+Qmr9dLbW01m9taSaR0wqEb40dSVV7KZz56F6++9e6SgWJVlkkkEvT1D3Lb4Vuue0wymeKl145i5bDXtCybyuoSauvCeL3Of5+mxgaqqivJnDx7NTv2/UiiiEeAS5cus2fXtkWDz30DQ0RnZ5fsemlZNvPJDDt2bqMs7NxruNDU1tZQVhbm8MFb+PznogwNj3HqzBnefOtdjp+4yFwsQaDYS5HPu6JNjJDfR9fxczwRCrN37y5qqqtW8VOsDgV9ZD/3wqsMDQ+hKs5b7V7JZ7jrjkP87ud/mR3bOygpzvYGX4ukJkEQkGUFj0ddMM++MZSEijh8cB9pw1rSyEmWRMbHp3jz2Mnr/rtpmkTn45w705+zCVtGN9jU3MDGJuezKsjGbUqKS8mkF9+uFwUBSYBjx0/ldO7rOn2R0dEJPEvEa2zTIjWdZGt7G8XFxY7HWmgURSYYDFBRUUbLxmZu2beLTz7yUb707z/P//zvX+Y/fuk3uf/OQ0iiyNhElFRaW1YOjygKSKpEz9AAP3j2xTX4JCunIDMb27ZJpVK89OIRJsYjjhvDA0Sn49zz4Vv55CMPsmt7Z97LppuVYDDAzu1b0eMZJL+cM1gqiiKxRJLe/lFisTjBYOA9YpFKpRkdGydp6OSaA6Q1nfqG2rwrkEtKiikpDSHkiAUJgoBg27x79Byx2PUNv1KpFD29I0zPRPH5F19GWbaNJEvs2NpCZUXZTWMjIooigYCfQMBPfV0NW9p1Zufm2Ld7Gwf27eFS9wBnzp7lcu8QpmniW6Kf1/vxeFXGJyI8//zbfOKRhz5wHdxoCnLnmqZFX/8gfYOjJBIpgiFnNUeGaVJdUc59d9/O/j07CiY0NjaWaTnrVrZGqKpKQ10NDVUVzCXnc5YjCEK2qUoimWJwaJi2za3I14hTLB7PbiUHVYQcU/VMyqCqooqqyvx2djweD7VVFTTUVBJPJK67TLsy9JHJWaYis2QyGTye9y7VxscnmYvOo5sm/hzfvWlaqKqHBx64lUDw5vWEUVWFqsoKqior2LN7OxMTk7z25lFee/sEJ0+dJzI9hSxJjpdXoiiQSKTpHxzlck8v27duWVcP54IsowxD593jXRiigex19uFt2yaezPDh+w6zY0c7/gIaDWU7JRiO+hStJbIic9eHb8EX9C/p+C/LIqZlcPbcBQzzvW5/0eg8Fy9dxudZvIrdtkEwLSrCYUpLc+8CXY8NDTVs39JKWlt8KSUIAkrIw+DoCNFo7AP/fvFyDxkzg+LJfY2YhoVtCdx+20F8SyXt3CTIskxdXS2f+uTD/MHv/CqffPg+6hdaB+fjY6z6FEzR4M23jq07K9KCiI1umBzvOoOuaY53dizbZi6WZt/eXdQ57Ne8Wlimha5lCr7l/X5UReVDtx9E9fqXbPMiSxJGJsOxd7sw9PeKzcxslONd5/DlSBC0LIvyqmKqqsPLcpCrrq5kw4ZmUjm8ewUBQn6V/v7B69qZnj57nmQiuaj1xdWx6iaqIbFn1468Atk3C/V1tfzGL/8sv/Wrv0BZuJRMJnf30WuRRJF0KsXrb72TfWCuIwo0szF4/UgXyWTKcTq3IAj4fQp1tdUFzxvQdJ3ZuSiqIt3QjGJZltixrRPZFDEyuS8cWRKJJZN8/6UjaMZ7j52dnuf0u90L5SAf/Dy2bZPRDQ7v30XDMoW9LFxKdU0VqXSOcS74uVy4cJmpyPQH/vm5V44QmZ7JvTVvWZSEi9h3qINAwL/uU/SXi6qq3PmhQ/zO536JidE5xy17RFEgEU/x9mtnMPT11YO8IL+UZdlERmYx9cV3Qt5zvG1j2zYHd22hJBQseJArk84wPT2NX12dWq3lIooipaUltLbWU1wcWHI6bZkWsWic8fFJtIXlzNxclNGpKUxfjpYtQDKjsaG5kXDp8nZ2gsEg5eFwzjiXQLZO6ti7FxgZ/WFbXsMwGJ+YYGJyDl03c8YoNN2kqDjE7bceWFfBz7Ug4PeztbONn//Zh7Bw3pfMBnTbIpVKrbgf/Gqy5mJjmibxeAIdG9vptWFn+zU31tdkm7cVmFgiwcDgMB7V+fa6ZduYDjpa5ossyxzYt+OHvcdzICxUCPf1DZBKZ7sDTEWmGR0bwx9YfHfHtm1SSZ2G+jpKlrmNLEkSVRVh9mzbhGYYiwqjIAjE02mmpmeuboFrus7l7j5My8wZwAbQ0jp+1c+uHduWNc6bCVEUqSgPc89dt5HULcedOhEFbI/IfDyerRlcJxRGbBIJbFV0HHC90vws4Pcvy2x6pczMRnnn1AU8Su66pCsIgoCW0RibjCx57HLYvWMrJcWlpJfoZSSJIqoicvb8hav+NhOTU/QPDBLIYW4OYFg2VdVVK3K6Kw+XsH/nVpJpLXfzOo/E1PQ0kensUkrLaJw8eRpJtHPG9GzbxqMqVJaX0dhQt+xx3kz4/X7a2zdjZEysHG1z3oMAtiSgaxp2jr5ehWbN72TbtjF03fmsBn7YhvYGzJLT6TTD4xOc7xlEkZ1V7YqCQFrLMDK2sr7Wi7FxQxOh4iJM84PWGe8ZhyggiwKvvn2cuYXdnuHRSS5c6lu0qPSKHUdDfSUVZaV5dWl4P8XFIdo2t5BI6uTKS/OqChMT44xPTAGQSKV54bWjWKaZ8+FimhaVVWVs2bKBQGB17D/XO4oiUxYuRdQs5z2BAcFmYZa4fpaaBZk2CIKT+cG1x2dvHC2zvGzKlTAyNs6Fi/n1ORIEYaEv9vJa4S5FWVmYhrpqSopzt4XNFvfBy0dOEZmNomkaQ6MTXO4bWdy/xraxbJt7b91NafHyuwgABAMBNjQ3kUrl/t28qsLQ8BhDI2NZ7+noPM+8fhzN0HMG5NOaTkN9Lft2b1/ROG8mbJv84y42YNooirqufJzWXGwEQUSSZTBtnOf+C4DNVGSmoLkCtm3Tdeosr776OhXF+T05tbTO7NQHc0dWi707O9iyeSMZJ9uZpk1kKsLg0DAzc/M54yCmZaOZNju2da7YLNzv91FbXY2omQg5nsIeVabrQg9nL/WTSCYZGRkDBzdUMqkRLg3TvjnPrnw3MZZlkkgkyadwRrBtBMPC7/Otq926NR+JJIn4fT4E3fk0UBQFREHgyMlzzC+zl/VyuNzTy+tHTnK+d2TRtrSLIgpYokAikVyTHYDWlo1U1dYSX2L2JCDg98kMDY9wubuXWCyKmiNJzrIsMprJ5tYWfL6VJ8gFA17uu2cfqqpi5fi9Tc0gEUswPj5Jb28/Ab+ac1ZjWTbBgJfamgoqKp23rbnZyWQ0xsYnsLzyB/uiLYIoiwTCAQJB/7oy01pzsblSDyIoUn7p/7bN5FSUicnpqzsra8n8fIx/+uaTvPjK2wS9S7cP+QCCgCHYjI2Nr8kOQGN9PTVVlVhGbiETBAj4VAYHhzh34RIz0zN4c1RQ25aNoNk0NTbgXYVsXJ/Py8FbdiPJUk7RlRWZRCpJd08f3d09BH25xSajG2xp28iWzRvyfxDcxMRicY4ce4egV14y2RGy2+M+r5dDe7auqU3qcijAMkrAoyps7WjG51XzSL0WUBWJU2fOMDGxNoFXyC6dYrE4f/voN3n+5deJxebzKhS9giSJyCJcuNSNpq1+7Mbv97GxsY6WptqcW+CCIOBVVc5f6uHIsS5GxyYWtWuwbRuf18O2jmZCRYFV8c9VVTVbQGqL6Dm2aj2qzMzMDMeOd3HyzAV8HiXnci+e1mjb3MLm1k0rHuPNgqbr9A8M861vPoci4qhDq2FaeLxeDh/YhbKO6qKgQAFiWZY5sGcrPq8X02HAVxAEQkU+Xnz+Tc6d676apLaa6LrO0Mgo//CNx/jnbz/J5OQUPu/yngaKJCLZJq++cWTNZmKbmuvZtaN9yTYvsiQyOjZJd98gc3PRRYPDpmXj9/k4dHDnqhXseTwqWzrasHUbS19cbFRFYmxsgiPvnGRsIpL1683xvppm0tDQQMN1DM9WimVZRKPz/OtjT/I3//gtnnzmRS5cvJzTCqMQ9A8M8dQzL9HdM5DdZHEw3TY0A1lQ2L9317rrolmQ0ciyxPZtHTzzylEMY95RfZQggNej0NV1iVdeO0rzhgbaN29atYBXLB6np6ePF19+iz/734/iU8S8kvjejyiKGKbO8y+9yS/+/KcJl5as+nq5vr6WtpYWvvndF5bs1mmYSy/lDNNEUlV2blu96mBZlqmrraEsEGA8k1jUl1iWJCIzM0xG7CW9hk3LorKsmPq6qjWx/8xkNC739PEf/vR/MhWZo7OtmcP7d7Nn13ZaNjVTW1NFqCiIouRn+bBcNE1nZHScp37wIt976hnKaood7SrZto0iStSES9jc2rKu4jVQMLGR2da5BUlW0E2LfCIDZTXFPPHscyhemc/9ys9RUR5e9o1hWRaappNMpTl+8hT/+Oi3+e53XqRuU8WKkwcFAXTdon9onEuXeqmpqlz1G6O8LExTXR1Cylz0Js4HTTexBIn29s3vsaRYDfYe6OD1t1PEE8lFv1tJFFnqa7dtm1RG56P3HqS1aW06KCQSCU52nSaWShMu9jM2Psnffv0xvvqNx9m1bROffPgn2LV9G1XVFQT8PlRVQZblVd/pMU2TVCrN4NAIf//oN3nymRcxLcux8b6uG9TVV3HXPQdXJdi/2hREbCRJomXTBhprKpiJTDrqh3QFURQwTJtvP/EDhkfH+dLv/TqtLctbt8diMd4++i5f/ZfHeePICVRJoL6lctGxmKaVlwhJkkhFeZAfPPcCmzY2rbrYKIpCbX0le25po29obCHpcAWKkzHx6SItmzas+o2ze8dWTp69xNx8fEVCbtsQS2bo2NJBZdXadFCwLIt0OoNfkRGF7DK0vDSIbUNP/wh/9Kd/TiaS5vCt27n7roPs27uL1taNhEtXz47UMEwi09M89r0n+erffY/x6SmCJb68OnzEZhJUb6nkow/et2rjWk0KtqgTRZGHH7ybqdlZunsHKFqkx9D1kEQBy7Y59s4pPvtrX+LeDx/gzjsOs7llIyUlJdddm2qaxvTMLEPDI/T0DvD2seOcPHaJtKWR1tP41awp0fWERjPMrGtdZRnz8cWXAh/8jAJ+r4ennnide++8k5ZNzR8wiFopVRXl3HpoP11//y+UFvmRlik2pmVRVlHCtp2rtzS9ltbWjYiql7RuLCvgfgXbtsnMpNi8YSNl4fy6cTg+R/ZECz9yNqYoLCRICjYEPAq+SomeoSGG/mWKr33zaRRFobK8mFv2bKO5qYG62mrKy8KUlBRTHAotObOIRqNMz8wyOjbBxUvdHHmni64TPZiiTlJP4C/y5JWQF0um6dyxmfvuvy1v87NCUdAI0h23HeTF14/S1zeY03nu/QiCgCQI6LrB6MQYTz3/KkdOnifgD+LxqBSHAlSGQ9i2jW4YTIzPkcpkSOs6qUwKLZ1kemqG2Zl5REVEURe32UykNEJFRTx03y3ccesB/vAP/xsZM403h03ltYiigCGavPH2MTZuamT7ti2Ovx8nlJaWsGNbJ4lYhuKAb8llyGIYpkW4poRt29pWdXxXaG5qxIeClTFgmbmCtp1NZdu7p53KyvANCXgKgpC9VmQJ07KIxWLZlruWzczMFFORaYIBPx6vF0lWs/7Vsoy8sPci+WQ8C3VpmmZgLLRVzpgGuqmjaRni8RgzkRlm5+KoXgVFkZAE5z+saVr4vR7uvP0gH777NpR1tuV9hYL+etVVldx9x0GGB0Y4c/YSodL8rkJFkZBliZnZKKMT0+i6gW1DwO+hZMEeUjdMZmdj2W1XSUCWJbyKhCxJ+ItyP20SKY2iYJDbD+/j5z71CG1trfxT5/c4e/kypmU4ngEEi/28+tpRtm5pp72tZUX1Ru8nEPDT1NRAaXFgRV47Gd0gEAzRtkZbyaUlJdRUlnLZ783rwXItpmVj2DZ33nmA0tIb1xfqCqIooIoy11oeR6ZnmJiKYJgWumFlc4ssO5sxD0iqhKLKCGRjZOYVXyJRQFIkZFlEkSVkSaTIoV3utdi2TTSW4uEH7+a+u2/PqwVPoSn4o+JDt97C8MAoQ4NjpLTMoq0/FkMQsp4o2ZlJdoli2zbJdObqMaHi/J3mkvE0RUUh7ji8j09//EG2b+8E4GMfu5eJv44wODKKz+9sSaTIEj09w/T1jZBKpVZVbGRZpjxcyv5dHVzo7seyrGXVv2hpA5/HR1Pj2gRdVVWhfcsGLvT1MhWZXlYA2jQttLTJgX17CBWtrG4rF6IoonhUTMvKO+iuyBIKzj6b3wus4scwTYt4LM32zg5+6mMPsa2zffXefA0oeOFEZUU5H77rEPfdfxuGLaCbZj7FrNdFEISr8Zd8bzzLstHSGioe7rvjEL/4bz7OwQN7r/77fffcSXNtA6ItOjYvMkwLb9CLrMrOPUjyIOD3cf+H70AQZUdb3NdDsQXC/sCaru87O9qorqoks8yMasGy8aHQuaWdQGDtPKhVRaa6soJM2lhXZlOLYdv2Qi81KC8p44+/+Bvs271tVR9qa8ENqdLavn0rP/upR7h1zzbm4inHN/FqY1k2um4QGZnj333uM3zhC59l5/tMmUKhIj7+yXvp3N5GwkFVt23ZxJJp2jua2bG9dU0aqHm9Xg7s341mgb5E+cL1sCyLmroyNrTWrkqJwmI0NtYTKikmo+XvhWtaFv6Aj4O3byMUCqxpQWEwGGTXju0oaQtTMwvuNJAP2V73FpphUlNTxXe/9RX27tmB35//EqzQ3LCS0Pa2zXzpi5/ngTsOMJfSSS5hDLXaJDM686kMG5tqeeyxv+LTn35k0af8XR+6lUP7d1Ec8C06k7Btm0xKZ+DSOPfedgt/8qXf5e67bl+TsauqwubNLRSHAjn7di9GRjNobm5kS9vaVk/X19ZQ7AlgxvIv39ANE9Xn4567bkNV1vaJLUkS1dUVfP3r/w/ltTVMzydydom4UViWTWQujsfj5Wc+/iB/+7/+C7U11aueI7VWSH/0R3/0H27IiSWJUCjIlo7NBH1eei/2Mzs7j+KR19RkPJ3RmZtLUFdVzS985mF+9Rc/w9at7RQFg4vmgyiKQlm4lPh8irffOEkg9N7ZgG6YZHSDivIwf/D7v84nPvYROtpal9WlwAmCICBJEjPTU/QOjDIfTy6ZhXstc5PzHD6whwfuu5PwGrauVRSZy9099A70oxlGXkvcVDxDOFDMb3/+s5SUlKy5L4soipSVh9m3axuNNZVExqfpuTyMIYIsigiCeEP8qK/42cwnU6QyOvfddSu/8gs/xYP3301jfe2adYZdC25o8YSqqnS0tfLpj8vUlVfwyhtvc/LMBaYiswRD+SU0LYZl2+iGSTKjY2gGu7e3s3NrJ7t2dLJvz1aamxodvc/G5kYeevBuxscmePaFFwmGSxBFkeR8mpqqCg4d3s2HbjvIbYf3UVJcXJBU8Ud+4n7OXezl1TeOEZmLI8s5GprZYNo2RixDy8ZG9uzaSm1N9ZqOTxRFDh3ay8XLPXzrO88gF3mzeUFL3BtGKk1deTkPPnAHNTVVBbGGzXbz8LFv1zaqK8K0NDVz6swFeocHuHChm8G+cVAEPD4FVZFXpWg1F6ZpkcroaIZJWSjIA3ffytYtHezfs4OOzRvXdcvhxRBSqdS6WKDG4nGOnzzNq68f48zZbiYj4/T1j2KKoC5sDV7xubleUdqVjgy2lXWe0wwTQzPxqyrVdRVUVlZRXVnJ4f072L93Bw31dXnnbczHYpw4cZq/+7t/YmxmBsuyKAmUsGf3Vu6773Z27yy8g9wTTz3Lq2++y+hEBNMysK1sa9or345l2VeDnoIo4hcUDh3cxZ13HmLTxuY1H18ymeLNN9/lm995irlMAlPXc5qoiZKET5bZ0dnKgw/eS9vmljUf4/UwTZPZ2TkuXu6h6/R5Lp3vZzoWJTofZWIqwkRkFsuwkBQRWRKRxPden06x7YWAr2WhGya6kd1drCoPU1NdSXlFOa3N9dxxeD9bOztWbHB2I1k3YnOFWCxOd08vr71xlJdfOc5cJolpapiahpbJkMloZDQdw7Ku+hSLQtaOwquqyIqSzdqVZVQUasvK2Lu/g317drJzx7YV14xkNI2RkTFefvUNNE1j65Z2tmxpJ7yMLpKrxczsHJOTk8TjSXTDyPqYLFzvpmliGtkWOoqqUF1VSXlZeNUzm3NhGCbz8/P09g9kXedybD8qskxlVQU11VUE15HPcDwep39giEuXezhx+iJd57tJxJIYtoFl6OiahpbRSGcyZNIL8R7x2lncwn/b9hVHf7BBVWUCfh8enw9RlpAVD8GAnx2drRzau4Otne00NqxNekKhWXdi834GBrM/cHdPH/0DwwyNjDM4Osl0PIW5sK3s96rUlIVoqs/OXpqbGtjQ3Ehry8Y1Xyq4/HiS0TQmJiYZGh5hYHCYvv4hevuH6O0bYWQ4kp1pywL2guDYV8TGshEtEEwbwYaqqlI6O5vZ1tFGU2M9ra2baGioW7N4341k3YuNbWeXAfaCMbdt2VfT2LOPiOyjQxB4zxJLELLT2psleOZy82EvLN0ty8a2rav/bZoWyVSKZDKJpmnoun4130oQBAJ+HwG/H58vW0GezQ8Tr16768k3eDVZ92Lj4nIzYlkW5sJD0rZsrg1UiaJ49fXj9DBcX1ZeLi4/IlwRE5cf4n4bLi4uBcEVGxcXl4Lgio2Li0tBcMXGxcWlILhi4+LiUhBcsXFxcSkIrti4uLgUBFdsXFxcCoIrNi4uLgXBFRsXF5eC4IqNi4tLQXBro1xc1jO2BUYK9Axo85CJg5EGUwPrGiN5UQZJBdkLniB4isFbDHk0u1trXLFxcVkPWAYkprKvaD/EByE5AKlh0E3ABEtfeBlZEbKv6awhiNmXKIOogKBkxUcRoKgDirZAcROE6qHoxng8uWLj4nIjsHSIT8H8IEQvQ+wSpKOQnoPUJKSnIDMB+jRYLOnb/B6uNY0RAd874G8EbyX4KyBQCuWHoHov+Namf/r1cP1sXFwKhalBfBJiA/z/7Z1pbBznecd/ey+Xu8sll/chUhJ136rtWLJjxZZ8xHEcp0lhJE1Qxyn6JTV6fCkKFChQoGjRfmncFGiDBkXcNICT1GnsNLEdxI1jWJEsRZYlWbYO6iIl3scu9z5m+uGZ0a6o5SFyd7ik3h8wWO5yyRkuZ5553uf4P8SuQuQyTFyAqTMQ/bDwPtuMbSnoRY/mZgNan4A1B6D7Magv7zz62SjD+IIc5IzRt+7q0YxVKKqGbBwSozB9CQY/gP5fwvgxyEXBgXgflVpj2GY8mgy+DkOvQz4BO3vAVXkZ0qX9iVoOpodkjalr0LoLnDXGmvHuUSBTKEqi5SCfgqGT8PF34fL3ZElkGpjlnJbrBHLA+GUYvyDXrgW7XDzDp+HMd+DqK8aH54K9/wA9h8AXLs8RKhQrlRvvw6m/g5GjklGyIVdctdyHbUB6QrwuC1iasYlcg+k+yE/KWjAJnPxbuPoarPtdWPMw1FRu4qJCUXXoeZi+ASdehNGjEDsnyyUb1VnVlo1kYm7nAAASVElEQVRDJmbJrpZmbELd4O+AEQrWOn4B0iOQGIDh96D9AHQ9CG6/WlopVjdaDsbeh5P/BEO/gfQo2HKzG5mZqZk7TdXMFo+5E7SsBK4tYGnGpn499DwJyesw9KvCWjQfgfGjEO2DqY9g8hS07IOmHVVXaKRQlI3YMFx7G/peKVxZxVkgil6zAQ4vOPzgDILTL7FOuwMcHrC7wWaMcLYV/byWkaK+XEI8ptQVib0sNoNlc8g+LWBpxsYTgO5D4HCBloKxI/K6DTE8+TEYehMG34b2J6DnIDTtgWCPLK9s1vyRCoUlpCOQmAR3GFwucNQaBsUtBsThNpInbvHy3X55r7sJPPXgqBEj4/JJJbDdZfziImuTS0ImDtkIpIZg+iSkc5CdhkS/1Obo2YUbHIdHjtEClp5w8wSh53GpTHzrKxAfBi0JNq1gdEjD4E+g/yfQ/jj0fgE674eaZnAHlKejWB0EOqDzgARcXUHwd4KvFWrCkjCpqRfP3hsq7zmfS8LYeej7bxj4X4hdRgKoC8DhBqc1o5jLV9Sna5CZhjeeg9HDoEVLr1U1m7h9wa2w9Ruw7YvgqlUGR7FK0G9dMtlu+6KCu9ZlGXf872Hi7fkD0jlgze/Bjj+Gzvsqfnjlu8JtdvFSHv5n2PiH4OmBfKk96uDSIXURTv0N/OhBOPaiVFJq2bIdjkKxPNhkiWRuZSkDXuiubdC6B3Z8HbIsLODsCYI3WOkjA8pdt2izQ6ATtn9NslSXXoHRd8E1830AacgOQWYILn4HBt+Apn3QdRBadorhUigUd4Y7AIG2hV3ZGtIdXmNNTVxliqTreyXY5Q1DXwMMvFa6mMk0+vGLELsI0cswcQrC26DxXmkUqw0XBcoUCsWc2Ozg9EFNB6QHEYsy23uRJM+K9GyKCXaA+9PgawaHXXoxNKOHaqbRMRdz6atw/SoMvQPh4zCxHxq2QsNmCbZ5lLejUMyLzQmOMDDMrMZGB9whIwtmTYC4shIT3iB0fRJC6+BICkY/lEInPV16GWuWc+tRGH0LBt+C4EbofAw69kPDevB1qapkxepH16RIUMsbwlh34N3reUmNzxW00YHAJqhpX+qRLhhrJSaO/iP0/RAS54FZDM5MdApFS+GdsPnPYP2jRn2AR/4RqjJZsVrQcpBPSy1NakyU+bx1UNsmqgoLqU0bOgw/Pjh3o2cOWPsHsOOPoG1vuY5+TqwVz9r7DWjeC2e+DQOvyt7ny4fZkACzDkyehSN/Akdd0P0l2PBZaN4FNXUVP3SFwhJGzkLfT2HgdZi+COgS/1zzBbjnBahbM/fPa1nIpmT1ZFYql0IH6npETMsirDU2Lh+03yfLoPBaOPtNSY8vpJDYBmKOo/JBXv+BLLX866B1P6w5BC07Knn0CkX50bIi09L/Dlz5d0jEIT0GmUnQjcK8XBSu/EDCCOufhuAcS59sEhIT868aNKTdyN9Srr9kXqyXBfUEoHEbeL8mafILP5M+KhIL83LMx+yI0fB5DWIXJKgc6IDGB6B1t9wBLBAEUigWRWQARt6H0RMQ+RjiV2Hq/YI3ckuXuCbn+/AJaLt/bmOTnobp63MbGx0IbpHqZod1ojrLo0Hs9EBoE/g6wNMNV7th6A1IDS68BspshdBj0sYfPSciz6OnYWQb1LVBcBM07IJgF7hqKvs3KRRzkUtDckKE5iaOQaQfJs5KaCA9JIZlPhkKm33++GRqAib7Cr9vJjqymmh9SDLFFrK8guduP2z8LNRvgAshuP6WaLPmIguvbb7lLpCFyaMwcVSeh3ZA6yFo2ileVG2HrFFdPtUeoag8+QwkpyA+ILrDU5fFmxl8TYyPaRDmuwp1m3SHt+ye30Akh2DyxNyhiTzQ8aD0JlpIdUxXaNoMDX8NF++Dc98XY5Ez1MPuNNFkfsg6MHUaxk8DHqjbBF1PQuc+GWnhDklPljI8inKha5DPQjYBmSlIjMDIabj2Mxg+DJmIXHEOFnbl6cgbnfXQ8DvQ/SmpDp4NLQ/xfpj67RzGxi6Gq3mTtCpYSHUYG5A2902fh9Z74fwP4fhfSR+VQ19ca8ktHk8aYqfgzCn4AAkqtz0Caz8D3fuLGkFVCl2xGIzmy2wcJi/D1V/Bhf+E6AUgXdB5utPaOc0Gzibo+Qrs/4v5BwokJyExXtA5LnGYOGqh+VHwNFqmY2NSfaNctJzogkxdgOPfFFEubUo+vHKNtbC5wOYDhw+cAajbAh2HoGMfhHrUlAjFwtDzEL0Box/DwJsw+h4kByWLlJ0GMsAibpZmXKV5P2z7U+jcb+g/zeOB3zgOZ/4NrnyvtLHRAE873P8i9ByQMIaFVJ+xAUCXNe3keRh4Fy6+BJMny6vjelM9zSZKad5W8IShpgnqNkDTA9C8VdxW1ZulMImNwOQlUZ8cfB2SCchGJVaSmbi1On4xN8ccULsR1j4lnnfDNinqWwhnXoIz34Lp07dfJ+b5HlgPT78DNUHLxeuqZxl1CzZRKmvaKVP8gq1w/dcweBimTpXHy7mZ9dJFxjQWgWlERW3st5KSvNYhQkf+dRDshdBa8LeplPrdgpaDdBSmrkGkT6ZWxgYgbpRcRE+JB2KuwBerJlEsHdr1DHQehM5PQmi9VMgvhGxShg/Ersx+DN526Pg0+Jan3adKjU0RgVYIfB4adkJwM/S/KanDzATY8uUJsxSfJHoGUgMyY3nIeK12PdRthlCvKBLWBOXu42sBb70su+6kd0VRnWhZkfVMjkD8mmSRkhHxZCLnIHpWeo6KDctSryANsPshsE5urr1flazTnQZvYzcgdh3y06WPSQP8a6H395d4wIun+o2NSf168LdD+z6ZVTV+AmLnC2MyyhXbLfW7Un2Q6IPrxnO3B5oel16tUA/4m0QTxN0ELr/UETm9lgfgFHeAlhNvwMwcZUYgk5IA79jHMP4uRE4V+vLKPbnSzDR5myG0F9Y8CVuflfNmMdnR4dNSNlLqR3XAWSc3zLbdSzvuJVClMZsFMHDMGAB2RDRYSVmXTNIo9J5oyD842AOtT0PTLqjrgrpOESayOQ3VfKcYH5VmtxgdNE2CuVpOvBctA+kpmLwCo2clLT38KqSR/2VxgV0lzikdoBZqWqH3WdjyvEiyLPr3afDOX8LllyE7fPsx54GWR2DbC9D7xOL3s0RWjmczk/Y90PIS9B+Gs/8B/f8jdx8rnAnzhDTREbe779vQZxgUm11a+Bvvh8Zd0LBRDJAvrJZcVpJPS+/RxCWp3h08AmNvSTc1GnIl5uS9Hip7wzKzTBqw5euw5UsQ3rR0PZnkFETOQ2q09BWtA03bYe3Bpe1niaxcY2N3ylq3cx/Ud8PYF+HCT8XokCpPEHmh2EDOoFThNR2InYbkZRh8FezmmA4XBLZAaCfUGQHn2iaJTams1+LJJqTGJDYM04MQuSii38kxyGZl1FA+LcvuXJSbAtnlGPQ2H6ZNczVCz1Ow+RkIbYHaZlk2LZWBwzLWxV5CKCsHtD8F7Y8u+01u5RobE3cAXBukqSywFrr2Q//bMHJYZBFneiGVomQfSlLiAhmjGtpssotegrFj4K4zYjw+efTUiTiYb42UpfsaJQDtDUhv190+ZysVkRqsVET6jOIjkLhqzEuaks86H4dsTJ6n+o0lNrfG4qzSIDc9Gd9aaHkAOh+C8C4IbxRvplw6TFe+D/HLt/9NZqym64BIuywzK9/YgCxZPHWiLN+wUe4aI3tl/O/4KUhcts7o3HZs3H4S5CYgOyFfF6c9XbXgbQFvG3gaxNB4gvK60yMGyR0GT5P8va4aec38vtMNzhXWcKprxgjYLKSikE8Z86fjkImK3EL2BuTysvTJGFs6Aqlxad5NDUF+hlExP/PlsM+mkaldB+Hd0HI/tO2Dxq3lLZvQ8lI1PHFKsmQzz+8csO4J2bevoXz7XSSrw9jcxJgy2PUgtO6FkQfh2i9g9Ih4E6n+wrTA5exMmG3/ehySlyBx6VYjZHpErqAIWfu6wNsonpG3rmB4nD7wGFWhDo+ILjl8xqMZpHYVRruasSUbhuKhERG12xceyNbyMq8I3egNMuIfWk428vIeLSONifmUsUWN55rxPAOJMTEy6QikJiE9LiUIyQuQnWXZYwZyl/tMNv9P9hoJ/AZ6oXkfdD8mcZlKVOvmUnDjGGRKDKTTHWLsNnwZ6jeXf9+LYLn/RZXD5YOO+0TbJjoAH/1IpjykbkBuCrSEvK+a2qHmix/oUYhHIf5RIRN283sU2jHsiGfkaTUqo5uk8dTpAXdQvCWnMU/a7uLmKFhTYtXhWrjOSTYpRkbPQy4jz0GWMtlkwcCko7K0SY+KEUldgvRkYbbYbMsc87Faw1k3P/NacIbkAm9/BLZ8WarPKxknycTgwo8hF7/1nNHtYK+Djc9J7U6VtN+s3NT3YkiMw8Wfw7nvwvgRCajZtOVZXlWa2QxRqeeUeF7q98yk1Oc227ieUj+z3B5mOcjbZWv5FGz+Kqx7fOHtBUtl8hz8127wUlSUihi+0D3wmZfF660SVq9nU4qaEGz+HKw7CBPn5K5w8duFkvPV1PhdqjemGljpn6/pUWrI8nT987DxKajrldYWq1pZ4mNSa1YckzKPLbQBDv6L5Y2W83F3GRubQ7JX7oAsJQId0PsYjHwE196AydMSaDOrRVcTK/0iX27M9LXTD027Yc1T0LxNWgD8rRIvs3LKR+wq9L18a4lHHpkqu/vPIdBTddnLu8vYFOOqFYXA0HoI7YLG7eKWTnwE4ydh6oPKVpEqqhtzqWlWitfvgcY90LBBAq7hXXMLWVWSbEJU/8aOF26KOaDlIdj8PHQcqMpWmbvX2JjY7FLZW9cJ7fth6gqMnICx96S5LXpeNEq0VOEfq4zP6sRcamqIyJSvQ4YkBtqh4R4prajrWf7lSWwIxj+E7JQEzk3tm03PQc8TVTs5VhmbYjxBaNkpW/ZZGDoFA7+AsZNG4dgoZMYljWtF5ami8pgGRrdJds7TLCp2vjXQfC90PQqtO5f1EG8jNgyTFwvnXv1u2P4CdD1sXXB6EShjMxuuGuj6hGzpiBieqz+HwV9CfBDIgBaTlC8oo7PS0AHsol9k88rmb4POz0HPYxDesPwezGw43eCul7IGrx0OfAvC2y2b2b1Y7q7U96IxO4dzUnQ2eQmu/Rou/StE+w1tV8qrJKioDGYmKY8URTbdC93PQPsnINRtjHQ2u/Or9A6i56XGJhWRymDnymhlUcbmTtE1kSzNTMuQvOkhmDgPg7+B4f+D5HghjV7F5+tdg1a02TwQ3CBFd+Ft0LAOalvB3SCFb043K+YfpmuyLVTJrwpQxmap5FLS4p+4IenI+Iispyc/hqkzMoAMbpWOVFQOM3tkntX+TVC/05D46JGGXX8X1DRKINXCiZB3O8rYlBNdk7RkdEC0U2J9kLguBVix6zIoPjVUCDAvRbf2bqe4b8zEWSd1L7VdUNsGNXWGpOsGCK4Bf7MyLsuIMjaVJhOX2cvj56U7N3bZ0FiZkqFl6XGRpCxGZboKzNZmYXeBt9MIlIak+93XAaHtUL9JvBh/kzIuVYQyNstB5BqMX5TZWONnYOo9yBlylfkUaEmp69EShY7vYlarESrZr2WM2nF4DQEyLzhdovETPgQNWyHcK1KsFk94VNwZythUC5FrMHkVJg0DNPG+VDFrOtiKNnRpHrXN1SG5grgpoeGQWhfdCG7pxvrS44bwQQjvgfAWaNooEy5Wmm6PQhmbqsHUf9FyIiRlejmpKYheh+kbMN0P0SswfQ4iH0j6dmbcx3wsrnZeLk+oeNmjFb1W/D0bUFMLdQ+Bfw3U90KgCwItRlrXJ96Mw9DhcTiNDMxqde9WL8rYVDW6GJ5cCrJpUaPLxWXLRiCbgvR0QSozNSFfpydEKyZ1A9LDoi1jXuwzJR7KdJg3H82vnYC7GTxtMq7EXQ/eBpE6ddVCTYMYE1eNGA+XYVictYYQmFviLSugfkSxMFZOkv6uxCYXnMNdeii9lhWDk0tDLiGZsJwhq5lLiEHKRUXoW9cL8pv5tOFBZUTwSsvK79M1eU3Ll9gZhtKfIbBlc4iX4fTKaw6XURDnMjYk1uIMGjrLhhFx+8HukboWl2/ZRbgV1qE8m7sFXQctbXhK2SLDkzLkOxEjk88WWjBmYneJZCg2qbK1uwxj4zKMjatgHBWKGShjo1AoLEF18igUCktQxkahUFiCMjYKhcISlLFRKBSWoIyNQqGwBGVsFAqFJShjo1AoLEEZG4VCYQn/D9pdpFAwufbVAAAAAElFTkSuQmCC;" parent="1" vertex="1">
          <mxGeometry x="1323" y="660" width="61.52" height="40" as="geometry" />
        </mxCell>
        <mxCell id="JF5nL9rpV0ovMVN0kRnF-58" value="" style="shape=image;verticalLabelPosition=bottom;labelBackgroundColor=default;verticalAlign=top;aspect=fixed;imageAspect=0;image=data:image/png,iVBORw0KGgoAAAANSUhEUgAAAL8AAAC0CAYAAADFLf3FAAAABHNCSVQICAgIfAhkiAAAABl0RVh0U29mdHdhcmUAZ25vbWUtc2NyZWVuc2hvdO8Dvz4AAAAtdEVYdENyZWF0aW9uIFRpbWUAV2VkIDA0IERlYyAyMDI0IDA0OjMyOjQ3IFBNIElTVHXojtUAACAASURBVHic7Z1pkCTHdd9/mVV9zbX37L3YxeyBXSwugsRBgIJ4QuJ9iTRlKRS0qA+SFSFH2CErQnZIDtthhu3wpXAE5bBlS6IIihIlBXgBIECQxEEQAIHlntjdmZ37Pnbu6aMy0x8yq7tnCZLTXdU9PTv9jygOOLNVlVX18uU7/u+lMMYYmmhiE0Ku9wCaaGK90BT+JjYtmsLfxKZFU/ib2LRoCn8TmxZN4W9i06Ip/E1sWjSFv4lNi6bwN7Fp0RT+JjYtmsLfxKZFU/ib2LRoCn8TmxZ+1Au8MTHNY69d5NnuPi6MT3N9eYWG4omWDSZVKPDiP/8nnNqzk0BrPCkRQqzj4KqDMQaMQUiJmu5l6a/fgVFZhPAb/3mMwWAgsxev4zii7QBy13H8/W9Bth9FtG1HAMYo94w+BoNAIKVESonnebE8Z9XCP76wxB9841n+38vnIg+iphACtEb6HrnZFa6MTXJyz06EEBhjGl9Y3gRCCIwOMEZQ6HsWEywgZGbDPIsQErMyilrqAR1gzkHOB6/zQbz9b8c/+Ah+13sREozRCAQIg9YapRRBEOB5Hr4fbbJXJfzfvtzLbzz2dUbnF6u+cd3gNL8xBlrSPHmhm4/efRLphH/DwRgMYBBIIVBDT0Ihj8i0Y3TQ+BOgqHQkeB3gAUmJwKCmfoga+gGFc19Adr6V5B2/SeL2X8EAaAVCFpWWUgqtNYlEAimrs94rPuvbl3t59H99eWMIPljNLwRGG/B9/vZKHysFKyQNLyhvAhMKj/RQC9Po6z0Iz4eNMo/damtNN4UxCqELGB0gk9uQW3aB9FEj3yP71OdY/uqn0bPXENIDo+1K4M43xpDP59FaVzWUioR/fGGJ33js641l068FQtgVQEqWllc4NzBSfHkbTfsLYxAmAEANPYee6UEk2qwQrfPY1gSncIRTSgK7igmBNYFUHiEkMr0DEhnU4NdY+ou7yJ39KzsBYNUEACgUClV9x4qE/w++8ezG0fjlMKa0AhjDNy9cBUBvMJu/OGGxy7+a+CHksxiZxGAwG+hZihBO8BEY3KQw2jq8AIltIJJkn/ocK9/+fXBa3mi1agUIgqDiW69Z+N+YmG585/anoahtAGN45tpQUfNsJM0vhBMQ6aNXFtCjZyEjESZAYFeFjYyiIhLCrnBCgFEg04iWbeRf/xOWv/nbYCRID6P1Kh+g0m+5ZuF/7LWLFV244WCMNdc8n8HZRXpGJ/CFQOuNY/rYcRoEBj13mWDoO8jENqsFoTjJbwqUR+OMAm2QbTsILn2R5W/8FhRWgNU+gFKqolusWfif7e6rcPQNBmf3y6TP5MIi37rShwHUBjJ9jDEu7Adq9CwoMEgb/dkgz1AJVoejjZ3kbdsJLn2R7HP/AYTvTCT7byp1fNcs/BfGpysde2MhFH4p0fk8rw+NFyM+G8XxFbjxaij0Pg0pgXCO7kY3eX4abpwAaINo3Ur+tf9B4Y1/sEkwNwFqJvzXl1cqHXdjwQmH1hrSKS6MjDM+O0dCyo3j+Arr1JqVafTYdxB+WZRnI4y/SqyeABqQiJQk+/RvouZH3d81lcZ71yz8G16xOAdXa4NIpfjx0DhnR6cwGPQG0PwhpQFjCEbPYgpLCPf5bkaT50aIG3wA4bVg8svknvu3iGLyq7Jrbi5imzN9PCGgoLgwbE0fKWXDC3/5xw8ufxmhFUbIm9rkuRGrJoBWiFQHwbUvURg9ZykTpkZmz00BF+9Xjurw9Bu9ZHN5OxkaWHuGPomQHiYIUBOvYpA2IgINPfa4UfTRMAiZwBQK5F/+vP20TeH/GXBCYrSGZILvDY4xtbyyMbS+VggEwegZzPIEwk9X/LFvFpT8M43wk6jhF1ATF0FWRlXbXMIPRdNHCEGQzfLKtUHAukqNOgmsva9tiHPgKczyNMJLudDn5oTAKjHht2EWxgn6n6k4aLH5hD8UcGOJbt883+2cKBdDbzAUTR7PxwQKNfE6CDDi5o3vrwWl5xaQADX8Ajqfregam0/4y2kNUvJs3xAFpSzFuQGpkUIIBBohJGq2FzV5AZFOI/TNHd//eRBu1TM6QCRbUSMvoBeGKrpGfMJfrlFreZTfq1qEDq6UXF/Jc35gBAENGfIMnTsw6MlXMDO9CK+jmNaP4uyGz1rOcK3XAY5uUu37FsLmPNA27Lk4hZm/VtElIpcxlg8mjKbURouGHHCz6l5Vwb1w6UuWV3J86cwl7j5yEKU0nt9Yi6EN7fkYDWrkDCSw9n/xb9W9g/DcYmFJXU0+4yYv9r5VfkthnFowGjxQ0+sh/OHsFQJchU1N4PkgIwo+FEsbhZCgNWeGJxHG4MkSy7NRMr5WuQt0dpag70lEMmEFJ/xjNVgl+AJjAlA5EJLaVsVYujJeyk7oqM8Rsj8NGF9gZvsrOj0e4Q81sTFsT6fYmUyQ0zpWXSIFTK7kWNBlpk9EAdXaQCLB0MwsPaOTdO3rJFAK3/NiGHF8MMagZq6ir19GtFgWJ0TQ1UUqd+j7pCCzF2EK4T+IYdRvBoORCVgZx+gVEGn7uwgrmABX6C4wK9crOjc2ze95ErWwyK/edz9//OjDzGTzJD0RSwRFG0PCk/yf77/KHz3zEqRTxaKGKFrDGINMJuibnuX5gRFu3buraPc3guYPbWMQqP4XQIIwZZVQ1V/YXkN66KVpkg/9Mal7fgeTXwCZqFnOzKgAkWyjcPlxcs//HqBtXW4EP8sWwNj+Dia3TsIvEKANY3NLtGYytLZkYrl0OX7prpP80ZPPI0Q6embTmT5SCnSgOD8ygRACr4zqsN4TwNJ0QUpB0PPXCD9Ziu1HXPmEkBi1jOzYT6LrQ8hMOybdVtNnDofs7bsf/C2YwnUEadeapDo4VWDNt0JlVYbxeHdCoLSGTIZXB4fpmZhCG0NBKbQxkQ+lNdoYDm5t58jObZggQIS2f7VwX0JpDS1pnu/uZ3p+0Qo/6y/4NiriQpwzQ+j5PoxIFpmdkaI8uDqAwgqy4zDejuPWlDIK44rEa3Logv1ZWLargLEtSWLxMoyld1eC2ITfGIOXTNA3McOPxyaduWP/V7oIULWHvRJsbUnz4VNdsJKz7SrKw59VjBlhuzqIVJIzQ+NcnZ5dFf5bT4SUBoCg+3HXlMqLHtt3Jp3A9sORu+5C+D7GKIT0HUOyHodwajum1KKofCWMR/iLQmjAwJneIQSroydRIIQg0DYpdfrwfgiCUow7qu0bmhFK81rPAIgSeWrdUJZvEEIQDH0b8llL5Ipo7piwKsooTKIV7/CH3TW9+j1zTRbVyi8am+YPufJk0jx5+Rrz2SwyJrak1VRWSN+yr5P9u7aj8kGRlhCH9qclzdcv9tiVgPU1e4wrzhDSR81NoGcHnXaObiIIY8DY8KZItOIffJv9vdiYfYyiINaMjtEGkgnOjkwxPLccmyYxxhQ7rB3duY3Te3dhstmS6RPxoxltwPN4fmCUmaUsYZeE9YKNXdtQsRp/GT3fA4nWYsliFNhAgQS1grf3EWSqhTCitNkQn/C75TRMWrx0pReIhy0ZaqWCUiSTSe4+sMeaBpRleyOOGyEoYHipu/eGNHx9Ye/r3qQQ6KlXIZdFyJSNikSkM1gynIHA4B/9WPE5N5vWh7i5PaEg+h7/+8yFElsyJtMn1P6PHN5Pe2sGXVDRhd+N21YHGf7v62+syn7WG0IIjLDdiXV2kWDwNUja0j073OqfVYTBAyNAgr//TqdY1t/BXw/Eq/mLbEmPnpFpJucWigIb9eUaY/BcQ9L7ug7S2dEGStkHiBrvxy36nuSNsSlWsrlivL/eQhHylwQGvTCAGnsRkWwt9uapekIWNbyHCebwDj6KbN3nVoPNZ+9D3JTmUPtLSVYpXnSmj3KdtaIgNH2U1rRm0nTt2uFMH2LR/hpASqYXlnitd6h4r3oLRak3j0CNvg4rSyAykdsRmtCPkT5mReEfficikbaO9eZT+kDcwh+aOZ4gVyjw+JV+m6U08Syr5UzEz9zeVVpp4iC6GYNM+MwtLfNUj63uWg+Kc7E3jzEEPU/E05vHGMd/FxiTRyRb8DvvLv1+E2p9qEUxizFIBEjBlckZsrk8CS8eEyLU/gL4hZNdeNr1aokS7rQXLo0bwaWxKbTSJDyv/qZP2JunsIga+jYi0Uoc7EebtfYw+XnEzhOI7aftfdyxGVET8royli15bXyG1wZGi4UisTi+2CW8s6ONu/bvgkBBlZsTFFFOdUinODM0xtWJqeKqVS/NaFcxO56g/2WMWsTu3hDR5AknrxCQ13g7TyPbd4AKbLZ1Ezq7UAvhd1rUTyaYmZ3j5aFxG7IzxKJFw2v4QvKpO05ALm+TaXEku4zBTyUZnJjm/Pi0i/XXT/OHnceEEARX/8Y5uNF784SOsjEFRDKFt+8RVwgSvRpsI6Nmwm+c9j/XP0yhUMB3pk8cjm9Y2ndv1yHA2G8XE9XBGA1S8tq1AXCb1tVD+ItENikxhTx64geuH3P03jx2MREYlUO0dOIfeod7X3WkNDQgamLzF02ITJrn+oYZm1+y2pl4El7hz+M7t3Jqb2esVIdw3E9d6Wchm6ubZixqfSRq9Cxm5TrCT8VnkggQuoDo2IvcdqC4f9dmdXahVprfJYy8hM/gxDQXx6dL2cUYzJ7Qh+jsaOMdXQdhZcXmAOKI+miDSCY4PzJJ3/WF2Mb982CMsQU6AoLhp9FLky6rG7EiLiTIYQCNf/AjCKSL7ZcxY+t1lI1pvVGbam33cNb08fnRtYFihjYqhyTUVoGyvSpvP7C3FKePJdvr+C+e4LlL3WW/r2WRR1k7QqVRE2fs7+Pove8iPcYYjJb4R9+H3fLH9ruvKX//TTn9yuYsit9p/RrG1Eb4Q5anMZBK8lfnrlBQyglu9EcNJ5IAHjy4m307t6Hz+ZLpE2Xc2KJopMdjF66Wwqs11FZFfr300NevocfOIlKpIrktMn8fgdHLyC1H8XafRkjPcvelV9/DT9qfidYy2vj6tQqLr3XJjQgF0fPonZmjd+o6xzp3YIwjwEUM3XlSorTh9v17OLxjKyOzg8hkAhVD4wjjxn1tapap+UV2tLfaUC21CXuGDrzAoKbPoGd7ER2d1kGFyKuONW803q570BNnQBfcYlbv7LVCeCn0RLetR5Y2jLteqJ3wl2VejTE8ffYyx97zdowxVW8aHCL8aEoppO9x975OXrw2ZJV+OOkiJIQAkJKFbJ7vXurhE/fdiTYGP2o+4afADtfHaIEaPQcepZ40IqJmFMIKnd9B0P84QfeXYxp1BEgP4beB8ImqCKOgtpqfUmjyaz2D/M57bYetOEKextg++8IYPn7qGH/2ygWyKqaEFyA9SZBd4ZtXB/jk/XeV7PIafCghbOMovTxD8MYXEakUuB0WI/sbJqSEaIRMQTr+xgKVw4WUTYmush4ToHbCXw4p6Zua4fr8Alvb24rOTpQHtptK2EXzbccOscX3yeZyJUGJovnDnkNScnlimpVsjnQqGcu4fwLGECbS9MIAen4E2bbNtlGP415lSshSQSor8q4Vys259dL8te3N55ZuPI+JhWVe7LONROPaAVE4pzrp+zx4ZJ/rwhYx3m8vbG38ZJK+yRleHhixLM8aaKjySE7Q/wL4OL9ofUspNwNqK/xOED3fZ3lpme9eHSTcOykulmfoU3zqrhOgguia351rjCGRTDBzfY7ne0fc/eKhaKy6lTEY48K33Y8hvGSxA3GjxMNvVtRF+MGA7/PGxHT8LE/sEnr3kUPgirxjifcbg3I1yQOTM2iliuOOSyOX+xFqbhA91wMyiYmhN08TPx81N3sQAqU0IpPhlb4RLoxOuERqjEIkBLvb0vziLXuhULANrcL7V4Mi1UFBS4anrvTSf30+1lXL3ka4hBMUer6DKWQhjt48TawJtdf8IcszIZmbm+f86CSEhK04PrDTni2pFO88dgSWsngiPqqD5/uMTV3n8tiUW1ViEv7iymdNHj38DKKQdZsq1zaj3IRF7ZvRO0FRykA6xUvdAyil8GNsaKW1DZ+ePrgHEp6tJ4iL6mCs6fNSd1+JohGDYJZ683joxeuoqYsY1x26qfPrg7ULf0QTQmsNqRRfuXiNyaWV2NiSRfqBELx1fyd3HdiNycfE8cdRNBIJHr/cS951iovDJCnvzRMMv4ie7UEky3ZUb6LmWLvwRzUhjEH4HsvLy3THzPKUQhAoTefWLZza0wkr2VIWOYZx43u8MTlL75Tt5WlEtFWr1JvH3kNPvw5Z15tnnRI+mxG11/zl5zrOzPff6Cn+/7i6OmhjTZ979nUiEr7V2LFEfSAkBD/nxh1VQEu9eRLo3DJq+EeQFuC0/mYuMKkn6iP8olQmiOfx2MWeotDGFe/33PUePXkruzra0YVCdOEXAkLrzGj++vzV4pijan478Q1mvgc1/CwiuaVo8jQ1f31QH7On/HwpmJhbpG9yBkk87UEs1UGitebY3l3saW8FR6GO7le4sUnJwMwc07Nzrod/tHELVzigJi5hcjmESBRNqibqg8qEP3L0RICULObzfOv8VVtbFDPVASF45Nb9lsZSbm5VPW4r/sL3mZhf5Ikr/YCNXlU77mL/IaBw7duQBOLg7jdRESoLdcbgPEop0YWA71ztL2Zo42xohTF86GRX2c4tMcT7jcHzJdmVHM/3DTubvXqqgz1fYHILqIFvud48QSzc/SbWjsps/qhCGp6f8Oi9Psf03HxsPTHLQ553Hj5AOpl0m9bFYPeH40sm6J+YYWUlS0JWR3UodpgzBjXyY0x+lpBc2zR56os1C39sbEmtEckUPVMz/KDfEsaUjsn0cULakU7xoaOHSnZ/lHE7U0prEOkUrw2NcXZsEqjOXynvzVPo+QcXC4jem6eJylG5wxuDCZHwJNmlLK8NTxaFPpaGVpSYnh+44xgsZ0s8H3uTyg83bmMMvu8xN7/IubFpN+7KolWlQnWJUQF6+DuW5iHc2Mv+TfNY43HDO6sEay5mKfJNwp/VwA1OGQPpJGf7h1nK5mhxhSJxlDdqbZDA0T27kOkknpRIPwZzwpk4fibNqz0DfPa+O4ot0ysbX4CUPoXx85jcIsJvtZEeWf+O0DcFjAHhAQmErKw2a+3/OptFZjKWplDtBBBh7a2lOjzTM8DA7Dwn9+y0pk8VNvTqy9vuEMYYju3cxgOH9vLixWvQlgGlI5cDhj//8kfn+cP3P8LB7VuKhe1ru4QBYyu01JWvoCeGoA1MDoQB3ZT9ymG5gaDArMxUdOrahX85i9faglYmWp2ssGWC0vfIzmd5Y3SS23bvLCaPonZ1CEOe7Zk0v3n/XeyQkkRri51wUTWrsdvcq1yBxXy+5Lyu8bp2fB5GB5DeiXf8w4iUR6OUFm5cCIwGr+NwZWeZNRpKyd/+I4KWtN28DaKZPsYgPInJ5vj1u07wp7/+Ufen6KZPeB07RIHRETuevSkEGjvWSiZsMb6vFWhAerGPbHPDkGlZe4H+mjX/Pfs7eXlkEplJocPmOBFMH6MN+An+7soA/60Q0JJMVH6tN0G5MOrQuYzlyqshw43vK3gHxdVNei7U0IzurCfWrGZP7O2EQsFq5qi0gdBxloLlXI4LAyNVe+w/eelSBKZYB1uDI7xHpdGecm5QjYa2qY9KsGbN/9CtB3ns9YuoQMcT9QnJbkrz9+cu89auQ7E1hirv5FxrVKr5Kz2nidphzZL2nuOH2d3eigkK0TsLrBICw3d7h4sktDioDk00sRasWfj379jK3q0dxTbacUROjNHg+YzOLdEzOoHv4vTNCdBEPbBm4TfG8MGug2CEU/pVGFnlcBlSmfCZWFjkiav9GOJraNVEEz8PFRnYj54+jpA47yIep9eyPAu8OjhGWCAeh+PbRBM/DxUR247v66StNYPdopBomt+552Fh+xsj40zMzuF7MtaePk008dNQkdnTkvD59duPlhpDVRNfCuEc3LAn5tnhCS6M2cL29dj8uYnNhzULvzaWQffuk0dhaQUZZifjKBSRAp0vcGZorFiS2BT+JmqNCopZnOnTuYPt2zpQQRBbaaPSGloyPPPGNbK5PF4stbdNNPGzUYHNb02fg9vaeaTrEKxk8TwZ3fTBZUlTSZ7pGWB0cbmp9ZuoCypyeAOtSSWT3HHLPigElt8SE9XBJs7gTO8g7j+bk6CJmqKyMkasQN5/YDft7a0ESsVj+oQ/PY+v/PhysfSwGfFpopaoKNrjOWG858AejmzfYnti2j9WP4JyWoOU/GBwjHwQFOP9TTRRK1Sk+YUQFJRmW0cbRzt3QqCimz324vbwJHMrOV6+0m93WW9SHZqoISrK8NoJYFeB93Ttx0v6NkkVk+kjpCQbFPhGd5+NAjVNnyZqiIqEv9z0ed+pY7QmU5boFoXeDCWqgxCgNGeGJorx/ybVoYlaoaJy97DDmsayPPdva2d+fMZOoagTwGV2SSS4MjnNpeFxTh7YQ6AUvrexyv3Ki1aaaFxUXDkS9qY3xvBrtx+LpzEUFJ1emUowMnWdHw2NF3t5biQhKi+jLO8i1zzqc1SCyjehLtPwv3CyC554Lr6GVlojheX0v9o/zK/dfye+5xWFfyPY/+UaP6cU88vZZie2OsAACd9nbzq95nMqFn4hRLG/ztFd2zi8fQt9y1nbjSGG0kalLNXhB33DTM0vsnNLOyr0BzYAjDEUlCbhe/z3773Cn3zje/htrQThyrhBnmPDwBiQAvIBdx/YxdP/4rfWfGrlmt/d0AAdmTS/dOIIX/jBGWR7Kypw/Weq+cAi7Oqg8VJJzg6O8cbULA91tLlbNn7kJ2yf5zkFca5/lOmVLKRTEARNwa8FQoUSKBbzhYpOrUr4LdXB9tx8y9FD8NyrhDW4UZ3e0PZHCs71DfFw18FiG/NGF34hbCNez5MMTF3n3PgktLUhBWjPawp/LVAMLkCiwsBIVa0SbNTH2rF37dlF5/atqEIQ3fENtb8jun3tYrfdwJrKnZn1QHktwo9HJrgyOIaXTqB10+ZvRFQl/MbZ4MYYbuvczlv27cZk3Q6IMdi1xhjwfJ4bHGdqcRkhzIZp7+RJ287qwsAISOmc3aat34ioXvMLQV4pkskkt+21VAdh/xid62NsmWSgAn7Y3ecWk8YPeYZKYSGX5+8u9UAmRaBNSFFd7+E1cQOq7hBVXmz+zlsP0t7WShBjgUto5nz5XGkHxEY2fYwp7c87OLvAuaFxSCRWNehqorFQtfAbY4r96d9+7BC7OlohCKq/YAgnJOEqcn5ojJVcPrbti2qF8on5/MWrCE+Wmns1Bb8hEVnzK61py2Q4umt7MQQah/bXAJ7H+NIKr10bRLh7Nar2N6a0v8DfX+zBeF5J8Bt0wm52RFLU5RyWz5w+BqKs8DxqttcYZCLB/MIiT3cPALahVSNq/jC+L4Tg+uIyr49O23cBTZOngRFJ+IucCizVwTI+yyqzqr+wFX4AKbkwNoVWmoSjOjTaBBDC7QEMPHOpm+V83mYdm1q/oRHdRMeS3To72rhrz45SgUsUlHd1SKc5MzxO9+S05f00oONrjEG7HSW/cuEahUIez/ea9n6DI7Lwh5rYF5JP3XEccvkSDydiQytjDF4qweDUDK8PT7g1pbGowuHzJzzJcjbH6OQUSGkfvYHG2cRPIobgjKM4Y7i36xCEe+rGwO8vHkLyWu8AaF0scGkUCGErzgBe7R3i0vQcJFMNNcYm3hyxCH/4s2vHFo7v3YnKx9jOUGvIpHnyci/z2WyJQ9QgKKdb/3BkgqWFJfyEF43h2kRdEIvZI7BFJ3s6XEOr5WU8GYPNKwRGG0TC5/LkdfpnF4uRlUbQrOFYfCkpFALOD45BKPhN4W94xKL5hRC2h4+U3HFgD2gXp48j2wtFW/+5i92l3zeAYJVnngdn5/n21X7IZFC6Gd/fCIi+ARalhJcAHrxlH/s6t6Pz+ZLtX/2FLdXBGEj4PHbhaim82gCCVb4p3YXRCa7PzSPLk1sNMEGb+OmIRfhDqoPShtv37+bIzm1u58YYPn7I7xeSa2MzTC8sFs2s9TZ9yvcNfuZCNyKRwITdLBpgcjbxsxGb5g/pB0jJ6T07KYYkYyK64UkWggJPnbsKNMb2RWGCLxcovnbpGiaZKD1zlHLO8GfoTN9kx5s+6zqgujLGN0HY00cYw8dOHeXPX7lAVtnJEAlhtldKgnyBJ7oH+Mzb7ynG19drAoTOLsZwcXiMkYVlSCddTWmEZy5/HlfUb7TmBrHZwHDKQZZVtq3TN4xN+IUQSGkF4u4jB2hPJ8kuZ+N5QBdRwpN0T86wuJKlNV2Kpa/HBBBCoJTCk5KvnbsMvgypqNEc8iI3CtCGds+jJZWy9ImNLv9hrbnSzCq1WuGvwzeMTfgBhJAordmSSfPgwT08fukaQvhOcxHpAZWx2xd1j0/zcv8w7zpxK4ExJGLYtLpSlHZ4t8/zjSv9ru2KRBsdPbknBSjNFt/nrz7zAR4+2cVKLlf0LzYqtNKkkgle7xngV774ODP5AOF7Vj42uvCH9q4xho+c6uLx81fdQ0WMfDjTx0/4zE/P8trwJO+6rWtVvL+e2j/0bzxP0j8xxcziMsiY4vvOfzJKsXtbB79w8lZ8KUi1pNnoql8bqyA60klbCyLKKPDrgJg1v+vpAzxw7HAZv9+V8lX7kM721cZAMsGP+4bJ5fMkE4lVEZd6wRhjewkZw7cu9TI6t4BIp2PK6howAgzcu283Cc+joBS+lLBhKpnfHFobhCzfcNCunev1VDWRGiMEezva+MWjByGfRwh3m2q9+htYns/1DjE8t1hsWVHvkKeBYl7jhwOj6EIQT1jXWME3js798dNdLpAgS/mNm+hYb8Qv/G5WZ1JJ3nn0CCyulPbuiqL5hQBt8BIe4zOzXBmfdpq2vsJfZLFKydT8PG+MT0IqGZvJE+7PpD3J27oOF3+93jmNEcLTIwAAD05JREFUmxGxC3/YuMkYw+mDeyDhxZPuDwVdW9Pnpe4+BDj6dH3t/XDZfm10ivND43iplO3NE+UZyydPQfHIoX10drTa1Y31iWjd7KiJ8IfHPft2cWrvLkxo+kRleeJYnqkkf3H2CjnXIVqI+mp+KWxx+rm+EYJCUGKwRkluuYnjSQkrOT59922AdRKb2eLaIHbhD+1VpQ17t23h1L7dkMvjhTZxDFEfpGRsdoGrY1PODKkfx99SOQTL+Txfv3INWtK2uW5MWt8Yg+9L7jq0z/5JN7V+rVATzY8QBFphhODO/Z0gpUvSxGH62BXASMFT5y67X9cn01vem2dodpGXeoYgmYxOaSjLYutsjoeO3cKxnVsbyjm8GVGTaI8QAl/Yfp4fPHkrnVs70IVCdOF3QiBc9vPr14bcZKsPya1cCM8Pjlh5D7V2DJNaCgnZHPfdsp/2lgyB1k1nt4aoTagz1GLacHLfbna0pEEp65zGpcU8yfD0LJPX55CiPg2tynvzfOm1i5hEwv4hjudyq6WXTvKWg7tXPU9T89cGNdP8xagI8MAte4shUCCyljQAvs/EwhLPuR3ba83yLO/NM7+S5YXB8aKNHlnwjUEKoFDg+I6tPHhoP8Uaiabg1ww1S42W2+H/+M7bEDJsaBVDLNwYPM8ju5Ll+92D9Ul2iZJT/Ur3ANl83rI3o5pyxcsLyBc4tGM7u7d1UHArZdPkqR1qJvzlztrdRw6Q9nwnJDHY/eEkSiS4PDnD8kqWhFdb00c4SoMQgr+51E02m0NGTd5BWfbaIJIJ3nP0oKNKl95hE7VBTUkxwgljSyrJh04chjg2sHDCorVGpNO83j/KxbEpENSsoVW46YQnBLl8gSujU+BJIk9kKPkLStHu+XzwzuMIRMO1aLkZUVPhL7IuheD9dxyDXN4mhCAy1cFog5+QzM0v8PrQmKNI1UZgQv/Fk5ILg6NcnpwBR6qLDOdEozX7trRyeNcONKap9euA2mp+Z4tjDKf27SaVSaGjJoSgeK5SBjJpXujupxAENdOW1pyy//3i0Dgzs3N45SWL1V/YOvBCIJTiY6ePrnuF2mZCzYU/JHQe2b6Fd9yyz7Yz9GKgOogS1eGrl3oZX1ouJtjiRLE3jyfRSnN2cBSERLhJHZ3IFvL3Ne87dbz4+6bJU3vU1uwxlsevjKYtk+buQ/sglyv18owh6iM8jyCX4+roVFFQ4xSc8t48A7NzPHOlF+ESULFRGgJF59YOju3eUSr0bmr+mqP2ml8ILDfLcPfB3XjpZHQuDKyu/Pd9nrl0tehMxyk45b15Lo5OMTI9i4xju6GQ0iAEZHN85LbDbMukrQnU1Pp1Qc1LoMJkDcD9B/ZydPtWTKFQYnlWf+GSeSAlX7ncjzYm9th4uMkcwCvdfYhEosS0jIXSIKBQ4IGjtyA9WwMdt+nWxJuj5sJvqQ6CQGsO7NrO3m1bIZ+33T1ioAQgBEjB3PwS18anVvHt40C4B3AhUHz1Yg8mmXTpigha300cIQRBIWDr1g5O796JLWFsOrv1Ql00f3kG9v5b9oHvW2c1JtNHeB6LuTzfvHC1GJOPQ4Asi9P+7J+Z4+rMnI3vx+LoYksfczkeOLiX43t2og3NrG4dUZfK75ADL4BP33WC1kQSo3Q8QuQEXRcCvt9tWZ5xOb3hKgLw5PnLqydU1ElrXBw/CDiyewfpZJKC0s34fh1RF+EP7X4N3HZgD7s7WkDHQHJz5xtjIOnTc32WsetzJByjNOoECKNVQgi+dLEHo8s6RUQVUAlBIaCjo50PnThMseNdU/Drhrr1/AhDhhjDB48dAq2iUx3sha1fkUrRMzHNizGxPIuF6p5k/Poc09fn3XZDEcdrL+60foHOthYeOHaL7QjRpDTUFXUT/vJs6C+fPrF647oYTB9fCgrZPGeGJ8v8jOq1vxCCwJ3/rYs9jMwtIHw/HuEMH1fDHbt3kkkm7R7DNOP79USsTat+FoSLXwshuG3/bjKZDCuBsq35otj+ThgDrSGT4kf9w8wvr9CWSaO0qVqblmv4VwdHCbJ5/EzGbsIRmdLgdpwRgo87SkNc3P0wIVekZDTQXNKOxxR29wDia1hVxTeua6szgf0421vSfOj4LZB3/SdjoToYRCrF93uHGJxbRAqB71lfo5rDk5Kk77O4vML5sSlIJ63zG1OkB0B6Hg8eP2z/O4YoT7ngCyGQsvrnr8WR8CRSCFpTSdvQwLgGxLGsppW/v7ppfgipwZD0fR4+cYSvvHIWr70VrYguUFojXBvzH1ztZ09rhoK9cIlOUQECrWlNJni2u5+zwxPIVKrUhLbaCRB+HJfYuv/gHvZt7ShGlaoZZznC6whgJV9gZnmZhKirfvuZKGhNRyrJs9eGmM/mEZ4XT69Op5SSXmXPWlfht1rJNbTavZN0ayu5IKJAwSqOP60t/Ounnue/fu9ldISxGiAhBTO5gBURUg5ENDPCTVLpSfRKjk/ccQIglhWlnIYhpeQL332ZLzzzEsktrQQqypuIDwZISsnQcpaV8j9EFH4jBGDYkclUdF7dhd9zD3pqz07edmA3z/WP4LVmUIEK/1E1F7Y/HdVhNlDM5hajjhaw18MPtxYllkkK4HmStx45YH/tfJNIo3WmnxSCheVlnrjUzcDyChgNDUOZcO/U8+xRzs+KMD4hwCjFrvYGFv7QFi0ozZa2Fm7bv5vnuvsRtESjC9iLl5JeUtqXG9GdEpRFjKJGpkJKgyfRuQJ3H9hN1/YOF5mKHuUJxymlpPf6Ai8NjOJ1tBWZro3i+ArET650EYMdIEBpbt2xvaLT6675oeT4PnR4H3/xcoZ8GEGJogHKzo8lFg8Yymz0mLLRnpQES8s8fPgOtre1opRGFhkT0cwe4agYZ/pHyGfzyEzaFg9JWUoqrjNif6faZsVNIeBIZwMLP5SoDgDvOn6YXe0tDC0s2Z0M43gZ5T/jRBxOmZQ2xOl5nDq0F6REBQqJjKz5hRBF5f7181eg5YbmuQ1h9tyAON6pEBit8VrSHNixraLT6x4KCBNQSmt2bengeOeOklYKP9TNCGOQCFQ+z62d23nXkQMIsJynGEwesI7f3EqWb/YOQ9gtI6o52ahwq7uUEpPL8cjhAxzZ1lHRJdYlDlaegf3svaco9tgPqcI3KYQACgH7dm7nwM5tNqsbQ3y/nDrycs8Aprw15M2qTNyk9qQtBrq36xAdLZU5vOsi/KHjK4TgXaeOkfATCEzJKbvZPpjTwMoY8D3ee+t+PEe+i4PSUE7j/tuzV0rmzs2q9aFUD5EvsKW9nUePHapYiayb5g/ZmNtbM/zu/acxiyu2sL1hwnIxIhRCpWhLJHj/7UdLNO+Yojw2iqb40cAIUff/a3g4IRdCYPJ5HrplHw91HbJVcBVg3dJ/5Vz533jgHrYmfIijtrcRYcLePIZd7RmO7e0EiNXk8aTkbN8ww0tZ8H37Cm+29wirnHetNEJ6/LN33Q9CICqM566r8AshCJTiaOd2fvUX3opeWCTh35D82Ohwdrdxmv+Xj95C0vOKZkocml+59/S1K33MLiziJfzGjfBEwY25nHyOj912hHecOGLpIRUmCtdN+I3joAgEUkp+/533ceeB3QTZHCKOUsFGgXBPKWzV1ofvvK0Y0o2DyGZrDjy0UlwcGre3tH+8Od5fiPB5nFlsCgXaUmn+3cffV6rZrvB51yz8cfPMQ63neRKlDbu3dPAfP/IejNaI8iqv8mOjoZjJBKM17ekUJ/fuiq03T1iyKYXg2tR1Xh8Zh2TSbgAY3v9mQLnGF3bjk2Q2x//8yDs5smNriRJe4WXXTfhhdbWU0ppHTnbxx+9/BD2/aLV/6eYbU4u5Dyal3XHlQ6eOsq01E1tvnvD9GeDs2CRDkzPIVAzbJDUSygQfQHiSYG6e33rHvXzyvjsJXCt3S+GuzJBZ87+uxS7n5fF+IQRBoPiX736Q33vPg5jZeRKeLEaGYANqf/fh7HZDed5x4ggJ34+tN0/o6KI1L1zuBenZkPHNYvLcIPie56HnF/nEPbfzbz78bjRWLkMZqpnwe55X0YUrgRACiWU6amP4/Mfey+/+4v0UZuaQuL12y1P1G2gS2Ekd0N7Rxp17dsbGO3IXJ9wp5qnLfZBOlSbWBnpHb4pywRe2MEfNLfDRO0/w55/9GK2pZFE2QuVZqYxWZPbUcgKEHxKsRvtPn3yUf/XRd6OWV9CFYLUTXNRqDTwRwvS7EJDL8daDnZzYsxMglpLF8r6kPdNzdE/MIBJ+SUlsRM1fHuUrNxm1Rs8v8tsP38NffvbjSEePka6hQCiblb7TitYJ3/drYvtDGSXXXT/Qmj9838N89XOf5GhrBrOwBLj2HvaE1XSIRpsETgCFC3HefnAvrZl0sTdP5EL4Mu3+nQtXwQ+VA433Ln4Wbgxrh8IcxvJXVvCU4k//0Qf4L5/+gBV4wCsTfCEEvl85R7OiM4QQJBIJ8vl8xTday7WhRH3wgIJSvP/0ce47tI/PP/F9/vxHF1lcWYZUikQygdLaVm+FCF9gIzAZnSAGSpHOZHj40N5SeDeOcZlSa5Y/O3fZJraAhk/v3mDHF3+Hbd3iCUlBKdRKFh94d9dB/v0nHuX2vbuKXKhyUwcgkUhU9U4rni5SSpLJJIVCIbr2ehOUO8C+tFGgnR1t/OdPvZ9fufc0n3/mJV7uG2bm+iykk4hkCulJjNasSmqutwAYgxASU8ize0s7D3cdAihuoBFHTyEpJQOTM8zMLlJWFBDXE9QG4fjcCm7TIBIBqFwevbxCojXDQ10H+dyDd/GJe+8AsGbODQGSUBlXG4ypis8fToAgCFBKVXXjn4VVHQgoEbfu7zrE33cd4uVrAzx58RrfudrHSwOjqEIBUkmQnhWCqFsfxfMQ1gTRmtt2bWdHRzuBUngyHu5+oDXCGJ6+2MNiPg+JRGOseD8PZQrTKI1Rge3hVFCc2L+LX3rgTt514gjvO2036tDaFulIId3jlWz8qGZ41cUs4azzfR+lVLEXS2zdkd1DlXNXlNZoY7jv1kPcd+sh/un8In2z81wameTSyBiXxqa5NrfAWDbPbC6/7kIQtk//+O1dq7RVHNc1rvLriWuDtiAmnUSrBhd8AGNI+R4pKbl3/3ZO7drK8d2d3H5gD4e3d7B/+1YAlC7lgMIqNSklUsqqnNs3gzDN/nhNbFI0TlOXJpqoM5rC38SmRVP4m9i0aAp/E5sW/x8oDwpJAE5mbgAAAABJRU5ErkJggg==;" parent="1" vertex="1">
          <mxGeometry x="1354.74" y="140" width="53.06" height="50" as="geometry" />
        </mxCell>
        <mxCell id="JF5nL9rpV0ovMVN0kRnF-59" value="" style="shape=image;verticalLabelPosition=bottom;labelBackgroundColor=default;verticalAlign=top;aspect=fixed;imageAspect=0;image=data:image/png,iVBORw0KGgoAAAANSUhEUgAAAK8AAACtCAYAAADGWi9+AAAABHNCSVQICAgIfAhkiAAAABl0RVh0U29mdHdhcmUAZ25vbWUtc2NyZWVuc2hvdO8Dvz4AAAAtdEVYdENyZWF0aW9uIFRpbWUAV2VkIDA0IERlYyAyMDI0IDA0OjMzOjU5IFBNIElTVLaXV2QAACAASURBVHic7L1Zs2XJdd/3W5m59z7n3FtDd6G70QAIAqYAkiIJUCJI2yQlUSKtCMmhB4cYtvzgL6B3fwU/O/xgh/1g+cVhh0OyTAdMQoAwA40G0N3oET2gJ3R1V1XXfOsO55y9d67lh8w9nHPPraFRXVW31XkrK/eZ9pB77ZX/9V8rV4qZGR+Xj8sxLO5+n8DH5ePyQcvHwvtxObblY+H9uBzb8rHwflyObflYeD8ux7Z8LLwfl2NbPhbej8uxLeF2v2hmxBhRVcyM40APG4aYYGIwPl3J/5kBgjB83G93G3IPT3i9dMdf72oZfQ4gBiap7b8i6frv6wXcfhERRATnHN57RG593nIrJ4WZ0bYtMca7dqL3rKzf/A03fdPFy6bf3u+yfu6HPlx70h6Eh+9XKN57Qgg3FeKbCq+q0jTNsdCym8qK5oWkaaXTtDJWVGu/45jd9CSl3aMoHD/Nu6mICEVR4NxmdHuk8KoqdV1/qCf3YRc1xeGIRGprEAMnDi8h3Vwzohm+e7rN8k1nGIIfBNigYGrgpEc8AGgSU3MQgShGRKkQSvGY2W0Nvw96KctyowBvFF4zo67rY6txu2JqiBNMjajgJQtmvqkmSkuDx5MkZRhne0DxIAivgTPDRFYgkEWHM4+T9CCKCSjggZK0/REwyUWEsiwPPYgbhbdpmuOJcdeLjdo2aS7EQDRBCRWk9hiGeUEcaIQYwYf0u/utuPrHqdsYYdnoIq1v8eYAj7NkhDoRxEn/kH4UiveeoihW3jskvGbGcrm8pyf2qxfDTBAx+qsRAdXUmmK6xJAsAI5oSmuGE4eapWFJBLVOYgf8eP9KQq0JoSeJdUgH3ZEY8argPOYcKtBqS5CCUgp0HfOKIFmDH0eRrqpq5WE8RJUdS41rkmQ0t+m9fJNEiGpYbAnVFChQoCCNrAktGtAyqFrtjbv7Wsyyph0PIcM5mi+pQyAYhKyeS3OYOTSAmCTh7S9jMFiPY4kxEsIgsoeEV1Xv6QndjWKZ5xQxVDN3K8lgQ8E5QaqTXLmx5LU33+D5V99i59o+Otnm4MwnOXPmIU4+/ih1cOwd7FOIwyMYipMEGrsB6l4Pw4YiOIK4hMMlP6DmiWWDhX1mTeQhlE/Npnz69BaPBCjUiBjiQLpn0Q2Y434/lx+krMvmIeE9jkZa8kEYZi1tfYC5E1gp1DpnqzUWtsW/+vZT/A//61f55fk5VA/BsiZIpG32CFvbPPxnf8Dpv/gjqukUfxCJhes1XuEDTd3gRPCd1ftB7372J2jnU7jpbpLZKBZxOgz3HYvQaiSK4UOgmS8pDnb47Ccr/vmn4Z9NHVVYsgzGbD5hoZF4IrCtoO5+w6EPVtZl8xDmXSwW9/SE7kYxS9pJLeKcoY2ARNQ7rh94/rv//v/hf/m332d6+mHYOomjIegu4owDFU43nosXLnLy977IV/7lv+D6VolvC4qyYLFcUPoiG0DQNjVO3AfyXSRBvAPh7aCPGaKrWNVMKcsKNWVe15RlSYgRdiPLyYI/fUz4bz/7KA81c5bBIMzwavjMtR1HzQswmUz67Y8AkQLWUUXimS+Vtt5HdEmQwP/4b77P//R/f49Tn/w8rjpNWyvSKtRGfWMf5+F6s8fnH3qYySvv8L3/+X/jpJCgcBsJLmACy7qmaVskG3gf7EStpw5EkxEmdnTFDGfJtT0+pFky5GLdwKIh5HON4rCZY688yf95Ef6v93awEIg0NG1D0OSwOco5c9zKR0J4pffrG94LEhQpSp58/l3+1b/+Pv7xXyOW+0S/TxUMYsD0FLPiMU7gmG8VnD+hLLYc9S/e4tL3nmJ7a0ozXyJqoEYTY3YSJBqq88V/oGpZmxq3qNJvjy6xZxAM8CFQOofWLbFuOPDKZ+eex9sz/O+XG549gJkvkWaZBVewY6p118tHQng7DGgKXgKRFpWKbz75GhfO77I1K3FBsHaJcy2+NKIXdDJhOYdy32hU2N0ObBcz3vz2j2nbyFY5wdoWVWUyqXDeI2KIuF9NeHsBvkUV+hYxTOirmKEOapSmjXgVtqoJzhzXD65wyhvXFzO+dWUPlQlTXxKlY2Xu9x27O+UjIbzSwwbBtMUVM97dXfLTV95nurWN1xanW0wnJ1CLLNsbaNhlz+0SyymPxRmzay0lgdgqtl9z8ZdnmW2XyUDSZDg1y8QVd1F1d1oZtS7TXnKzapnfzd6zMZwQhGhG69NIEDXSti3TGNh5zLg62+ehGyVvLmZciUl9qzwYDODdKh8J4e1dTpKG+NLNeO3tS/y7Z19m8tgnqaISWyMi4Ep8MUN8hY+CaM2NLUW3S3ythO1t4tVrTF58kfNhjjph4ioO2oh0IjcKC91Y1dDcEnM7rjmmwix976hqZKdJdk70f5o0aIiCrwHvkUlJrUZtLZ9oH6EJkUdOKt+/tOClxRwpFK/HOtDsUPlICK/RaV2li6564qnXERdQbZP7QQbhEslCMArIocOxgHOON197HblxkLSaRYL3eRi3DwwVGLV2OzWzDWa2EkedaEHLRFq+piySIkK7XDLdV3ZCRMR4+so+0lS4sXv5I1A+EsLbRYgB+AJuRPjr7zxFVU2xWNOYjoSI/sZ3gjR4ndJ+fBm4/vqbhAvXCEWKSptIFxcx6K3umIeE6zYhRCdLR1XL31n/rWTLLeHv0TVlTBCbhpMLx26hVIXnict7NGZ0l2AfEbrheAnvSFgY30zIFnSion78yg1eeWeHSTUFbWkxhskUgyZM97rTwJ0WBj8pYVmzeO0dnAFeqNQgCyh3IKRHVVl5CIZ2XMfnuN4NqUrfjv+iN0opcSgT73l3foKXFjJobFnD7Xmnx02kj5fwyjA0IqPhuAs6txaRwF996wmWOiH4kLSSCznEZdVwkhy40ivgHC8rTpiGgl8+9QKL5RzxQqGarPy1Yw8Pwu0ILH3bnXenQQdNSm5XP0unPexLNT/E2QhLLEQy6LRw1N4xm7eUMUL7MF+9cpDOs3N6jM8/9+1xw8LHSnjHw/TqUJ2Ex4mwaBb87IW3wM9wAj44EEeCBBuwJ1mDddo3R5xVoWD+xjvU13fQHLwTZFXrj9seRzMIxCHMy9AOmnO9bn6/E/gBrye4JB38yOdgBniYA26/QetIhfHTGzc4iJqiyjqDsOu/1Kkfa94Ps3Q0EapIbFkuGjS7Tduo4Cr+/Y9e5e3rRrF9gqLZRVxkYS5pMHHgAkgJUoGUtDgiBSoFkYBKgUpAZgWVNtRP/gzvlPcRJrqFxghqWNSV1jE4FASyB22kzaUTwvSwQccVu/x+alVto/CmW5WruP4B9AheLLUKDmPWBITIvCpoMKaTORfrR/iraxFRJS4dcxq0mdOqUWc67riJ77ES3hSPm7RkdJ5yUmSNpMTmABH40YvnuPb+dbZmJ6gbpT1YMK3K3pjpAKP1McDZCWDDMG0Yakkrn3v1NbbM4dvIoqlXceiKBh85EbIWWzHQ6FDP2MDqRhPr2x4GyWrtwyHJ4N1SrIXpMPJ0x2nbSNtGqqpkOp2gaty4eo13r++D97g2UkjAhRJR+rDJ4wYcjpfwdsInwlIkRUdJxLShLBxXdud88/kLTE6dQWNNpGBWbhHaZuW3SNaSfWTMOn6FVoVq+wTXzl7gxpvvcroswQ/evPUi+davwwUYnCi3Mt7WIcaRNV/HIQaDdH7eO0JIc9hijDSqTLzjhUs3OL9c4oOh2mKERA2Ogt6PUzlWwisy4EuNyQEgpsS2xRdbvPDmBZ579QJl5akXO0TnqRUktvQ3vSvZBduRn4MRBUUocUVF7RylOvaefZkToSLSJlpuFCmTdXgfPNNp01sJbD6J9P+mz29Wcz8k7vowRddfYrYLRBynT2zx5p7y/IFilRDbBSrgnOHQ4bqOUTlWwosN5H3lhJCn/YirqDH+5vvPINUWQRZMJhEmJXMVxA2xuSuwIVvnHR7u9ak4zAfqpmEWKs7+/HXqG9fp5mmm32aXNNIHBnVMwRgK3C7/232v16g3c14wGJjrjIeIoKq0bRyCt0UIolz3Wzz1bo3QUoSQGQbrxfZ4gYZjJ7wZtipIzG+ox3vPtaXy7Z+8hnhF632WixtElGI6pW21hws9bBjRXh0FZyLgHNpG2rrFlyUSArtnz7F7/jzVdApCNs6yoJih0uFOsnElfTuuskHgxt6+gT0Y4hhuVVUTa9AJ6ni2QdtGmqalbVrausFPT/DK1Ru0KngcjWl2PyvH0XF8vIQ3D9GC0NJQy5y4TJfw9MvneOPGI5yYFFhxgrJ6GB8NaWtcCL1g4lyKBfABfEBdQJ0nike9pw0er4HtGKinDnMNWxHOvfomqi2UHu88LiaGYS7K3BRRSSKwkf4ahFkt4eMiMwUBwUOeegQSDQ84W62i1lfUcLnV3vAjMxXkqVBpxq1zKSqiMeWhheP5csKPdwzfCvu2RKWgpUB63Ht8yvESXkkWtjjwwfASMEmu369963sc7O/ifQcRMoFP3rTOSidDBzJ+HjkHSN8zDzor8KGgaRVXllx8/kXK/TkHyxoJLiX6aFtm4gjR+nxo6yzBCmPQsRQ9S7AB73IUtGDD9tAtAw+86pHrIYUklpDa+Pb5d7GyZLv1NM0CenfNx5j3wyvSdbEBARcdoRIu7ESeevky/cTSkUtVeqmU0Qg+eo/kwOipLxKLsdsuaerEHReTCfHCJep3zxMmJU3TJA0OFCqUNniubskS8MFCKle6QYa2d0zcpCRs7rB2iTfPUwvhXRXKJWhUtHvCj1mU+vESXrM+nlYQ4qJFguN7z7/G62eXzLaLNGOYgfRZb9fLaoRZFmDvwTlcFEI5pRFDTXnvmec5Xc5oF3VCiMERVfFhlFpppNVXDm7ckiVYF9LbKT1kt6Nr5yDBRU4UM84enOSZ63vIxEFREDdkmTwO5VgJb6/dsjB5DRjKEy+8y+6O4otkzCEDTFhvexyR255S7RwDlhKQzIoJE6loFeYYQRsuvf4L6mt7bIWC+XJJDI65pYmerDAEDO3YeXEES7DOMW+CB0O7im+75wQhQZfcrldnxqKMnGHC/kHF0xcWSBlwHnyXm+V4ye7xEt6kICSPwC1uNuHdy+f58fNvEh5+bJiNK6PvrbVkL1ff9qzA4Ho1M1xUggpt3ULwuBDQnX12f/ke1daENkY0KjFTUy7DgsOMwAbmQFdZghWqjFW+eCMu7rFxr8zzAyp9O65YYkiWsUHaBad8xUvXat6fH9BKnWHP8ZuYeayEt6PKnOYoL2e8dE559tm3mW0FZOkx8WAeJG/n1sTlNn2uzoM5RD1YgeExPCoetVRbr0wnJVMr8NuPIVca7NnnuDJpmE5n+IVQugq/VATwUXEKHunb0MUfkGZDhEyD6Zom7eoqo7cWkNPVzq1tQOsQFYgOUde3zjyieTs6Io6H6ylvFpd5tDCe1lM82zpO6JjDOV7Se6yE1zK2M7M010zgm995nuLMwzRxmZLldYaYjeZ7rVWka6GbkttzvtD7+s2GrJKqLeXWhLfefAN/YwGqOC/Ui3nKNGqW2dJbsQYGvSAeop9vb+juMG53/mt1HTKQzy8GYdYW3LDIqcbx4/euYzbBnAyj2jEqx0p4+3smhjjP1Vr42g+eYXv7FOIiUXQwPDZJxopTIt99kewi7l0JWNcrLn1mXcbFquTg3XO0b59jUhUYKbevelJ4IUcM8XdgmN22/Mh4o3OM5NeZihvH8YgZrcC0LTig5hTwowvXud6CZsjwsfDejdJjv2yd5yokY0Sj4avAd3/2HmevCk6E0kNjWfd1v+92d2j/ABnn9UxDKn28rRvcsUk2HOpTVslLz75K6R2NtszKAnO34jRWLmuVpx1h1nUIMf5sJahs5fu35oU7iNKaUWqFk5ZJAeeaUzwzdynzJKO+zn1vXczGAwonHkzhXeFoR5FWnQEkilDwN9/9GU35UKKrXItJohoyebDCNKw8CFnAxSTH20pWwjI4LFyOvXWDsRfFmFYVV37+Brs3bqAWEY39lPKbC9PhmRQjdq5vVwYHsb61ESyQ/HojHl5hLNbwtIFIxUSNZaiJ8gm+cf4GXg0du6ltoBDTvwdTIz+QwjsObEmWeN7OsQTOe96/dp0XXj+HuRJyEIr5Iv1uA9OwafoOMtIw+XMj5+nNXifLw6khmHOEwhMvXeH6uXO4wjOvG7DBUbDJCNtomHFYux7WvNK3Mso4Yvn1UQ/LqrHXoSLDAdEZ3mARGyqBpy7tsLMbERKuV1WikHNVfKx577h0niqzRCs1dURjEqKoihH44bPv8Mr5XVxZULGPRqWWbSIpP0MEVIQ2t5JnH3RVXMrBoNINqx0bUaAWUJX0Hj75/F1iIpgGJrFh/tRzFFPhIBRM66qnmsba9VBUmSZ+2hSsdVhMLIG1Q6sNWCv5vaFNTEJ+L4JEh0VSf+jhuIYxfE3dKUg09plTS0FZF5wOB5xvTvHX1wwnSrvcpW4irRmxjbTEj4X3Tot1BpUI0Qm+dERtEFOCtIjAD148R73bsDXdpghTvAlSL+hnIsDK/K5N6q/nFjq4YF2I5FjOh+nlYsZy0RCqimvvnqO5tsfEOeq4XHHTbgouX63dfgcY0LVHfbYKG1iDDWtwgyNYCxGcE0LwOC9EA1c3/GK+S2wF5yq08lRNNl0tw4YH1G38AAtvGlrrfKOQBtUa5z0Xru3z1R++xfajn8Ziw0GtlL6giE3vhU07kKHdyDiMS2eYyfDT7vXIso/iKSdT9t67SPPeJU6EkK11486goRxRN38ma9+5FQ7dRBy4nFilaVrquqGJkRNVwY+u73J1fwF+ytwUa42YA57sjq/r3pUHUniT8Bnd3CyxlsI72ghmgadfeZezV2pCIaBztCxZRKPyPlNpm3t7XRl1nMRgyEtHRNAJTNpXN1nSE4oJTQi4CPuvvIWva1zZTaIcMQrd/jewBR1XfRSFdjs020a6zTYfs4MxbRup67SunnMO5xyTIvDLfeX56w7vUrCpFIb3Q7zGB4m5uBflgRReJHl8EKOQSBBDFJyraMT42veehXJKfXAJYR+ZFCzM5eTLa06CjjozOwQf0uux+1YGhkIGpdtNP3I+0CA0dcuJ6TbvvPgqzd4+uM7wG2HejuVYG/Y7p8FRkAJuBjdWvwNrQiz9c9d7vbtcEz39lQXSe4ch1M0Sxym+dnmJU2MrehYFBBV87zZ+MFXvAym8prnDLE1xjwbtosYH4/rS+OHz7+AKmJQBaFg2DWEyIQKS2YKV2Qkdk7AGG9LrcUDNwFQgjpTLUdK2uLRyUBtZaM10WhHPvU999SoRxeX13lTzDAshe66kZwtuxRLcruYdU2EDNXaYFutaABRC8JR5Oai2aYlti5kx9QUv7h1wdW74aFyzBdHS2GO2GYI8COWBFF7JgkT2uTdURA9iyjd+9C6/mG+xPREaN8X8aYIGJDZ473AScC5VEY/PbSuCknz8iY1wqDgiieNUSTMh1Lm8NJRHXQFSIBYwF5AGZhQsp466WXACz9mXXqN0vheUZlljiRRAxeHUpfXeNMUgOPWIykaW4Hbptg6eHILxZknTKkjU1OZtZ2Ctom3EmxCcJ4ijkIC217i2nPKDK+DLBYUpc9fBDeNBjfN9IIWXPCfM5STOQRQfJogEvvmDJ2gPDlLMrSli2mvMmzoIzDrmdq3KsC1DcEoadUfMA8lJwaSkqGbM65YwmbL7yqsUu3OWMeLLgARPrFsKBbeMmSPOfzK0R8U2wOHt9XKkkJM1bo/ju+NJz2VLdz5Z0NWM7XKb+fyAJ65dppUpJ+oqLUSYaA0e1MR8D6TwpsRxaREnE4+Y4lzgrctLnnv9MmE6zXdLBojAzbHiiD5Yq2x4nd4b508QEcwL0QtBAiIBV1Usz19g5823mG1v0bQtvgyYGSEaEjWNHd29H7V3agTd7vc3MmTjqxz3i2UP4lyRiedny5rXF57QekI0ajl6nw9CeSCFN+HUpH0Rh9VLnPd8/4VXefPCPltbp1I+gg0czgY5+RXOYaDPxATnHRYjroZisk0THFYELrzwEifKimaRztOFgKr1awKPMeoYq/bnfCRcWI1RuLs18beGQevYPrnFe7vK05d38VNH0zZpGYBs4D2I5YEUXusoJ8nrQGtDE43vP3eeRZvwrHWWPKxQRF1mpNRa3/bMw03+6JgJ0rGx0eMhKYKsiBAWBhJoCkdVCDtnz7J3YYeZFNRNiwah8WA+G1N0AruKVftdH0lHD/G8K4LHEdcz/mytdp6+ng3JUMuZoWWBn0dcrHjuIrTeCL5O/Tbm/x6w8kAK70ruAjWkqjh3eYcnn32TyZlHoW17JiH9YDNFlBgFeqy3+W9ImL8CFWzQukiKeTAFj0MsLeBnAorQ7uxx4603KaYebdv0vhtW6ktafNXYur06aN6Vc84P1aEFWLrPbgKfuvxsfZ4JABz1fJ+HZlu8cL3k4n5NWUSCdV7Ij4X3touY9c6CEFtwU5569xKvv3sZ7wJ+edAHppO/1wuvYxBeJ33rvEe8y9WP2tBXcwGX21YcrQhRHNE5VDwtQu2FZgrOR/yypZg9hNtr2X35Z+yVDdvmKFuHRqWMsnKeR2nY9ViIvh9IAe6C4fMoknI4gLPEfae4B9I6FeZwKpkuTHM3uulNIp5upjRkp4oJEWGrFuLDnrbd4+Vl5OcXACpEmgzdPoYNt11MxvyipxHhX3/1Cdg6QVkGJIQ8pN0hbLhFlVErmefsTTZJr7E0Hwwc5oQYlcnWFufPvoe/uk+MkVYVbdocF28903QUth1/lrYHXEqnfXsempUJnvTv2VCTRbgChdbhA6RMP05ht1KmtccdRB424/+7eBHRAHi6fBMPYnkghbezii0q4o13diJPvXSespygzQL1Y9ctK5p3tY4MrtusaWeSF5nudpq3XDIgOxgBIVFJVUFz6RrLty5QVCVt2zIpS+JN6a7bkIgs9TaGBWuXyAB4Vv46FgaGHGYbnSJqLKqI3zOmVJSx5QcHN7g093jC4OZ+AMv9Fd5OXfbU0aBxTCxNZXGerz3xCu/PJ2xV25jW1LHtb8ZtHWJlY/3z4YNOqw1p76HDwZK1nbrRhE4nmIQU+eYD1196MydOUiZFSUtn0efjdyDzdhmB3B+CZQPy8EUcxUgwatOIYRv6K52P0KAN+HKGt5rr7jQ/uFJnvt0OH6e7Z/dZrO+r8FoWjo60HwQlcbjOg6rjO0++RtNOCMUUEaWxuHKTjqzk+AU6iDEaSnM7ptu6qMNugere2idXA8l4sc9OjqDeM5OC3dffY3fvAAkF7WJJo22PZVdyOYwdFz1LsIESE8PQlXBIWK1HzTBm1FoXaAw5drmriooQ5ku8n7IvwEQp92Z888rVvN7bMMr1x8lD3Saq8l6W+yq8w+xeybm7UtbCaMl9Ks7z1nuX+Pnb7+O2T6DNPhpbCNPUia5LcX9EJcUkgEMst116p9yuaI8BhfSKMn1HsqZ1Sfhym/YPIg7vPe3uDa6dPUtVefaXy36Hg+zZWsuArTtGYcyKjJgEG82iWK23oXkz9ygiKze8GxWKCK50LLVBQmBaK89cqblwI2IoMdao5oUPH6AZFvdX82Y6ytSwBkSS8C5NaMwA4ds/e5s3399hciIg9UXEQe1PJFpBAuTcDBsrOU8DHrHcMm7d4Rtg5OEyJwORFMOrriDi0V7rOsynjJPBHGE2oQ01Oy/+DM+SeekJBCQ7U8ZZHtdrYhBS/IHH40xw5lLV9OAlmDRe87h7TwfhPWrlzYxtxcCJy49wcr97McxvccCSgogtHNsnhMv7M/79xSZNeG32aCwFSMWoRHRkEN6/cp9hQ4IHJqSU+erxIoRYU0nDom158uVrhO0zxMbh3RbeHNLMb48wvUPYAGS1OxqCbZT/gRzrkIfrHopi1E2NGdy4dJ3lpetsh0DTtuko3bT4UU3D+VHpoawPneyq2fiSB22bd3Vz2JB/PGYbxoyGaUQspV81MdpozLzw890b2NJwxYzGK2VOMD8YhPe33F/YACQBAoJBmzhM7ADn4PzFOd945m3K6mRKkRQqHI5C65EXTo6uDO3YJl8lwY48sby9tr/8hQ4Tk2mzloBMKuor16jfuciW90QXcyzsYPR0bTLENhAko7+bsQT9Pm7DcL2Ve7cL1ukMuGjKxDl+cOU6l/dqlIqlKRYtMSh99pf/gDFv0jMCopi1ScNEwwVBKPnxc+e4dG1BKARPpKGgdYEir6Ew6vIPn9LpsGlvzHVDeN72JWEyRRrYf/MsbrnAFS5pOlYFdxxU3u27b49gJMYasxPYFU07+u2tYhqOwsndgKVmBDHeWzh+etETSGmr8G2yFLoH6j47L+6v8IokA1oUtE7DtQG+Yi6O//c7z8OswrV7lL5hacZSHK5ww82z1VROY2PlKANmHVqMX9va9gptlUeJJHjDkG0GTR76t3zBtTfeYX5jJ61hgfRyJTJQVoPGHLEIfaYf+mF/JSqugwFptwMA6pgJGZibo3ns8ZMyCPCKCjDBLOI4xdev7OPMmLTGftFSmBuoxPsLee8/z2s5eswQmhhRacA87+xEnvnlNcJsgqX54MkYESBPW9+02MgY7x2FAVehwCpDIWvbK7XLItnvL9FmXjyuNRqE4Arqy9fYOXceQYmxIZjinNFqRBFcF7wuh9kDsgY89JCprtS0eKGymhkyMzc31bqrdZiJMcx+RiAazHzJy3s1F3fBqbJHcleTta7cAq582OUBEF5BzCNuRh0irR0QgG9+/3XOxQlTjCgVTfSUYpRmxGgp78JIaHWT8LqUCkqcgM+ty0LbectYZSjEhZXtrrrcrmacdKgLVCEwIRC9R6WgjI5zL/ycmQDBMXEOiw0aBAueFL7QBcm4HEzjkyBG7dedGFdbq91766OGmGGqRI19ClVVQzVmje97tmJYidPl6Usuf+4QCUx8zY2DLb5x3DlqLwAAIABJREFULlKUSmmeucsTALobeB/LfYYNw5TxNjYUzhHClCgFTzzzc5qD3TxjIofw0Qkomb88XD8M2NC/z2EDy4swbxrqkB4IXxaYF+r3L9Nc3qWmoJlsEV2Fi0JcLmjqvA5ED0my8yAfYX2u3aaRJNmqm7XszVzfq0zFYcMvXW/arqRk3uzz1N5l9m2LWe1TXjPncszGf+CYNz29kqZia4P4CS+9c5UnX3ybYmtrJGRjfuBohuHOYcPm3x+FOcdcRXcJ5oSlJCMyBtAiEK8fsP/GOapywrXlkigFUhtBI750mT7b8JDdBnuwzjKsswlHQYZ1vNv9btwmg9QwZ7haKbYKnrh2g1/ciFQEXDRaeTBCYu47bOgtZydIXSPAd597h/euLgnBJyv7Dp5w64z1Q/UwM7Fi5G94f32fnbHW5S7r8KIvAmLgo9GYobOSaTHh6osvM437iDeWy5ptVzKtJrTaru3YgG4uXjLcDgn1qKxq025X60zCet3MNPRB6lkrZ2MCRIiNsX1ywvs1/OTydaQU2jYSMR6EeZn3Pbaho1yiKX4SOFhEvv+zC1RnPoUPBWkm283pn274g5wyiaMmWmYBNOvb24EfXd4GssZzwuBkFkCVmQSKCOYFnQWaZYvt7XKyvorYPrNpgauV5XyR3MuajB/Fsj2WBKd3C6/DhJEAb6LQ8iejtlsYcPT4boBU/evugZEslGq0hYe9A2buBE9fKDlQZVLaA5PP4T7HNnRDsKX1gX3J6+f3+NELr0OoaJd7OPHA4Zu5juUGTLdZdFc0b8aMHba8FWvR7d8kT483+qnyJo5WoSiLLNCOECYsD/b4p1/6LH//9z/F/Po+IUamoaQxTwyH4YfL2zdzRnTFVliCzTX1xSqsT5ck2V6VfoawE8muYxnNsgaHY7HcY3sy5edXjfP7Nb5XGGPa7f6UcOuvfHglgX6HQwltRPyEH7x8kcuLgq2TJWHeoExwruuszcVsmOwYOzyYPmHoZB320X0+Mn76feVvubVfOyQlaezmGUk2WlDMBRYSEVGwKbYwJlPhv/l7v8XONHJy65Ow2GfXClxxgshVHCV0C1abZevfiBpXNO0Y1w4aVnoBspH26wR6k0dNBbx11zVy7XbfHV+sgTkIC2V5usSLcq6p+Ol55Tc+VxAnkVID6jZPgr1X5b4Kb5drAQGTwFyFr3/7ScrZlOAcRkiOgd4SP3JPvUGSYMPw/tCOPVpZDXWCsba3Q1S+jPefhdeG44gDFJwvcM4x393h86cDv/PHfxuvCpP3cLbN3rKhkMDDOmWJDjkWRoJ6yPs2Pi+RQ9tdFsvBCFu9xPHV95r56G5MjYCosZwJsoRZqxS+5bvvvs9f/tYXCK2mNWu6eX73qdx3s1EcaARXel5+b8Fz7+wQfKCp5+BCvsG3DxuOruODDhr4dliLbhax0L032hWOGBUnKdNOqxGtd/knf/YVThXCtnf8yZmSG25BGRz7ekB50Ka5dhtYhZu7djfh/YGxGddxf2RijS6B4a1LejAXrqGwimoBThp+tmx5bU8J3qHcf4vtngivZdBlrN6cZCykzhcp+Osfv8ClhcP5gLdI24X9yVEMwu3XOz5nG/1eOoeCHaLiEHDOgaXUoeIEmgP+2V/8EWZC6+AvHz3BvN5PzgNZEnXMAGzygt2O4OqIHdjUjiu5/20jPbexAhZrJlaxFKGylp3iDN85e72n84Z90b8mjyb3otwT2JA0VmaENnCSzgv7S+MnL50nuhk4D3FBNCFk2HDTZ7z7vGMEhg/6tstcfrNu7ZBETwEz6Ow+CUq+QfmSUDPKUECbgufrxYIv/vYX+c3PPYywwFzkt7c9X5o+wgv7NY8o7M4CvlE2j7rKLXWKrLYDlbjeDiUZp5o8cxs6cwhzAjDUhJkHN/dcnRqVLLk6r3j64pz2N5RQdHTh2kkJ9wwH3zPN29ExahHL03iWmlaoAccrb/ySV395Eb+1TbAF2i6JFtI8MTYzAndS++yRvwprkS1z1+/P4fLChIt6SShK9Oou//mffJlPnNjmRozM28i2F/7emZKD0DJtKqJ4Ujz3YcZgzBKsvD9amirTwokhYDw7Y1R1EwWYR40Rz9G1q9pSUDEK8yytIbqEbye18sqO8sa1ZTKBtSGqEi1RdjrSwvei3BvhzZ1rBhFF20Wa7iNpJoAIPPHaRd45ewkfjC3bYeIdMWyjAuod6uXOq3PE3EqOYZCbVHCZmnNEEwyH5jSnMa9NkSYTObx4xBU4KWldiZWCaGT68CP8+W8+jGeJMcMQgsKXPhE5XcCezZjMyamUhviGPs6hjy1IMQ+WW2eSs0ymKpa3La+2aYJT61sxxanlbcOr9VSc9PdlMBRX184AQalboa5qZu0SjZ5HS+XCfsmTlzWff2RhSp1jMkxidl58hIRXeu0HXgpUCkxbJtZQOcfBMvLN5y/AqTPgKhqZ4LynkDZpGjZoljusPe6+qfFza2cHjEaS9FRiTUPpJ+zsXOe3v3CG3//dL6LLBVsojhIV4ctnTvL4dMl+uUzXIx27MBxvfPxOxUpuE/a2wQvXvc6QaOCxR3z2odrRiNbfl65drZBGoaStVRLmqxVOFo4fXr9CM29wbcnSR3y2Bdw9dl7cG+E1G2bkqmKhJFqLLXaAll9eOuC7L76LnDiDBEdNQWvg2jndVPSbMQO3Uwem4FdnLWTEfhjgBXyoMFX+7mccZ7YcrUwJ6lB1LJ1wyhlfPmXsyz5ehpT5N2MJVt7vjtv9ddfUf3qT/h+f9wgy3Mad67F9x2pUzvGjG3tcvt6gmkYob0Zjiqjc01DJewQbOpcrqCpLNdQJrkzLQ/3NT99mEUumwaHzXfaXLa15qpAsqFuxDYzawwcfmrtRO3utrwbBO5a1MptV/PM/+8MEhVwBKKUp4h1m8GePP8bU9llY7IfwHmuOrPV1lmD94lbcwzYa7tnQ5j81XXm90mnj9lAdDm4CTpTr9ZQfXy1w3piIQ1TxOY/FvYw2u2ewgWztWtugCuZLJDgOxPNvf/hzKKf4eodSD3ChxFwguE7DsHEIH4byoR0PnmOf/Uaj5gNU1uAEIjiLNOr55Kc/xd//8qegOSCaUHvFi0dxCAv++MSEx7emLGJEHMm7aAn3J43lRpMxZWVi5tikGg//K0I6gj5HupkZee82wY888XOYAJrBkhmooKJsL0/wV+evcD3AtqXFDyKeJjNKHynh7YoAzjsKl4wbs4KX39njF+83BG9YVIpQUlUliKONXZq5m1e6tSP6vAx5cncWCBHpl2E19wGqDC3m1o4NUUpsccBf/N2/hXOOFqXyUItSm+EaaHzkpET++LHT7BEpWkepB9ShxUlBiIpKfYglcD1mlz5gqHcprw3/I3fE4b8MM/KeUmtDu5ojwlZmZHSwrePcT+N5amefX+4KaMM+TQp87x/CjxRs6EYhQXyaEVHEJeJmfPW7L7Oz1zItCqyY0UhB2zYgSiMOzRZ3er43VzIrkHkABuFNuQ9EXFqZ3Qn6gWpmO5yglo6l/TFhIRWBBf/Vf/I5zEJa08IUcYJ3kYk6al9gtPzTMxUhtDgqtnSfhasRLfGxQWWeWYXMFGTmwK1FmcFgbK06fRLvjIHrpwelESdRapYySprlrJLSt66b0ZGrs+51NsYkLUAo5iinkaU+zNPv1IhPQuvFKPPkgo8Y20DvIBBxaGxwvmKnNl54872UHwRIa0zYyCWbrX67ue69l7BhzEKA4XzBcvcSX/qtz/C5X38IbEHwBYpR4SktpCVlLYLWfHYW+NKpimteaIqH2FpMkOWSpQeVAP0VrF3NePgfwYXVgHn6dhj+WemtRBfLCv7dhJHH6HjA1wmLN3hOmfHvrpxnZzll1kzZ94rrlxO7N+XeaF4hC2Ha1nqJuIIX3jnPT195l+rkqd7NuOraytb2LRmAsVU+sstlaDv89ivX8bHMkjdwvss//oPH+eSJMqU4xeOcJ5jgOxwLNGI8Ogv8p6c9++2ShZswZUKFYSHlAKanym7Snx1m7Sm+w2VgGFiBGnccO3FoW8GEiVOe3Nnh9RtznDqC5Ai35Eb9AFJy5+XewQZLmLGxlpDno/3w5Wtc3m3RTjveZaC/YkSvswQb6vg3R15I9518vk0beezMFv/gdx/CYk00aDRrPTPMgQvKTArEzUDgDz8x4VEW7JsmoFOBSSC0BUqXXefovzF2TaPU4YvpYIRlimQQwPWMOUcL7LjtqmFoBJzSthVPXWuxCoIqbca79lESXnprWVCMMCm4MZ/ztR+8SnjkM0SBPqp2rbN+lboyU+J24IcN7arWyYIonTGjiSkQmB8s+OLf+hx/8IXPo3GeWQRJQThmLIMiRIq6AClZWsvvPlzyO1tLdnWf3faAOiyQ1ijrJLzYeFgfwYY1KNTlaFhJLC2r768s/H0TmVpXHGNM3bWq6YGp6wYT5deak3zrrZoLNBSWYjVuMWjc1XKPnBSk0d+MYIpR8vq5BT99+R3EV8jBjUyvbBim3Yb3brNa/n0XFdbNPTuStZChXY0eS1hdYov4QOsmuFijfkLwxlf+o9NsTSZAwLuCIk/zGRBPyjMhGI0Jp6uGL50JFBrQuCA2jtgKJm0a7m3MAORtkY2tjb6L0bdjzdvVQ6V70wzTPtQtPRh5eQHnkoh0RhtAqQV1iEyj47ndlosHLVIvcR9FtkEgd3heWwHH158+S6zO4BS2PJg56FKWjtsu18IHqGPhVXO3Zi0kMwjicG4svIYIeAzznqVMKCxyEB3TKvKXf/IFzAwXZnhXUZoQgie4QGUp3wNlSqG05Tymxlc+8yin8AQx4nICvsCVS1DX2wdi5KVsE48iJofaFKAzCG/HMuiK8Hajx/iahu312AYRGdbG6G2Q3JcYZVEiptSFsscWT55dIKHCSZ6t8lFiG7qhD4RWYS7C17/3Q6pJhRPDJKQ+Ml1VFQ8IbABJQlSWNG1NaQ0xTHHNPp9/yPNbX3gs24Nrw/poe7zmsJjnNx/2PDo9YC6RZQUTYBaLPjagmwjZxzOP9zuCETDgY/p+Xi0DvTa6JyM4cNRkz0O4FxCFvYlS7hslnpNty1ffehN1E9RcfmA+QpjXOpZBlRBKfvLadV45v6SsJniMJi823a8882HU22EtRt9b0UyZ/omWtKJnwRKPa/f4L/7B7zOlE1BWGI51tqMXDhVOOc8//NQJFvUBNiugWVAvltkAs+GsRtOaZINg3g5LsOJh63B7L9CHBe1mnDIIDQtiFIr9yHQr8G5d8sy1Gk8KpTyWgTn9099phV5zAZaGIpHAV3/0M3bdCWLb4mghFEPHssYA3EMD4KhiloRIncc7wcclTTHDNzf4J1/5bH/eN7WIoDfEcA6P8p897tlqlKZtEGmpM8HVrYaUBK4b1keG4xFCemjEGNUO066/T4YX6fyG2rEYll+nYyiI4Jf7uMkMCwGNc9rlab526Vr/YJh05zDS3l1H3sVyV4W3NzY6Y2KMGTFC8FzZr3nmF5dRN8MVBRZbVPMTTtZeo3acFPrIv9FQevQNusM6sna6vA0qDohMQ0s7b/k7X/o9fuOxLSwuby240EfILRw07ZzfqEp+//FfZ7k/RyuIwadr7o7ZaW0k3/dbH2MTS2Dd69GIsmrY5h7OUEV7lkMxS6n9O6mOZkykpWyEc6c9p/drLG7z3PsNO3WLz6ON9bbCMHLdTh/dSbnrmrejkyKKWMTUaFQ4qCMijpfeeJtX37qIrybMQkTbmtpNQHKaDCFRarkV69J73ORvZXjefIPumLUYZY+07GJum4iXAkIFu1f5h7//Wba3tqnrJk29v1X/ZEOsEeFAlVkl/NEnI/5ggbpJdivTQ6gVDYuxrnXHGrfXwBtYAulem6Usk2aH0/0jvZHYeSOTJLs0b14dommunrMKbVtqbXGuoJx4XrnQ8NrVBQgc6BxaZalCoylx4AOvebNpgxlEsZSaNKY8BM45zJQf/vwyV24YvvTowUWQFqotlBQmqWvC60YLoRxZxSXrOzMUfZrSO2UtxK1ljxxSnZo4Cu8pXMneUtj+xJQ//e1PYFZDuZW05W32UIESvAcv/MFDwilX0zYFXiVPpRkLbjf0KkfBg1uyBF1rllOjJiGXrrWObrPVbXWI+tw6JHqcOmJT0JbGmblyxQuefa60FS9chNYUjQvEGhZixJylpdf+d7HcXYPNBmPAVGjxKXOiNkwD7OzXfPUnbxPOPE4rJfPWE0KBNAdgOYXSAwgbejRvxt58Tlsf8FufnvIHv/Np4sEBrptVfIub00GpSYSAp42R33v8FJ99FK7bPi7Dp24/KwbTBopr/N5NWYJee2/+PdmgZG07wQhbncHRc3hC9EJQw1R4KDi+dfZdri8aTsQtDoIRBCbkON/R9dytcncxb55hK5JivVoC4iHOd7C45I1LC547uwuTGTgjhilKwGmTOssswzrp25VYhV8FNnxQdqK3zh0Wa8x7MOUf/e4jbIthxSxxwqkDbt4/lqFDCzE69lSYtsZXHp/S6h5pVZmbswQ37//NLEFfjtDYRxmB0gn8Wj+Tpz2LDnbOTDw/uXKDN65HzJfUoslRk7Gy9P/fvXKXNe/QyV4bcELdNoTKY77k33z/RaI7gdcWH5f4aovGBE+3ouWGXa5X67Zt7bO11zbSyN2O1nd8m6W7prIIRBEKr/zXf/5Hac9FwGIczmtdibO63Y1OBmkdubrhz379cR6l4cCa4Qo6IdI17vumnXMUS7CZkTiq2ujExcanlN43SesWJ04cvEKhyoGd4scXDbwxM6OS2Od2Sz99oGEDWb0YWKTBqEUQ79jH841n3gHnmDAnLHfTGmeuAGuHIW9NFA85E7qQxC6LTTeSMcZsA/HuMn47BD+62QO30EJjgl5jQ7uo+Y0vfIEvPgosd6ktTQHvz0vWqm14rwDvwTlBi5rf3XJ8YeskyzIgra72QN8vDKNTd14yMASJJUi/VRS1mF9vftRvViXvZSCbu+NkCi8zCIjgLHv/YsuZ6nG+/vZ7XPdGeaAEMxYuj5wfAv97l2GDZNggGIGgQqFgVvCjFy/y9jWhCMl6FfHQRjyCI9BPQe+DyVOr625cy20/o5Zs3KUF/7QoUHFoVGJUlqK0ThDzmOUF+cZ1DTe6frubgu7BpW11E2gj/+VffDnPQhCCOQpfpqB5BLVcVXIg/ei9/H50SmFCFVPwzKyN/NFjp2iaGisDpoo3SbMqnCOabsS/yfIfMwSjWAjz/TWSFyTEUv917VE1fe4h7w8bKQaxdF5Re5hnZrROmEjNW9eFJ88L5gsOdJnYjS4W9i67jT8ctgHBhYIJhm8aJMz45lOvsrfbMKnS+hISZjnPgOF8ieBxMqxQ6XKbhNejeVstt5Lz22bhVdIaYTVpzQptY1p4xAkERxCHdx7vfFr50aW1GTRGLGrKVK6KdWs5mK6s6WCmtOrYkjl/+mkP3qcwxnqRNXMN2iCkStdag1jaNhrEWiILzNV48Sw8mF/wdz5XMIk71CSN7BWIhnhHuxY0M25XcwwPLIHrWQI/VPOY+SzYR1fy9/Lcqb6KZgys1q+doSRmScWjeh1xD/O9l/eRyYSIUraGujx63WXhvbvpnoxENWkK0FCN+GrKpZ2aF35xHkJegookDL2B0xlqqW8Y0FEf7zUcIH9ONwT1/SE4M4gtjqSpHBCa1NHRMq7u9pSNEe98/3tkdB59StR0rqEI7F++yB9++Yt86jNniFFRV4BzRFUMn05P82+yISP58sjGrAGunkIrNE6RwhNj5Lergj956GG+demAremEKJpWqFXD5/Meu3WNzq6UoR/pXtP3MySMKhvam93GjjwZ35Z0GTZMsJSBRTBVnC8pTPnpwSXO7pT82oktlkEJFnK4ZGeI351yV4W3o4v6i1NFipKn336bZ15/n8nDn0fremAGhh/mNjX5+R7B+/EVj76be1VImcWdc1Q+YC65UzWCRsMUtPRJsIT+wUg9mqbepHPohjddOZaI0EggSMu/+I/P8JmZB2qgAhwpxYzntktIP02dXwELPoHjzz+9xbcv1WjT4qoS1UiMES/JwdDTcZ3h1lNg9Eap9dba0GfSXQe3JzzS5UuzhH275bb7IB5S1JqMlE9KheUoA7ywP+fnV41fOyGY1JgWaa6bulsRMndU7qrw9vrS0tJJ2i5YViXfeWWXnRg46QONLpN2vuW+7uC4NjACTa1YUaCTCvEl/QLTLvZPvtmgWWIcn84Im4mONIVh4pBixhNXT3Lxa29j1hD9NAlabPC+GmnGTnhSCiR6WUuGU2WehUb2qdlqWpbSsKXC2XnFqeIRYrukmKalamOTVmJXTWlUO+G0fOFd7uJOw3fu5c4rN/SRrSiMdY16uPOzoZf3CUMfd9vD15NRZurAK0WzzY8vN/zjXyvw0v2+w7x3T3o/lCyR3fBcTCre39njWz96CXfqcZZ1k/TcqEM2lc5b1XOcjLVlbvsZnflDZxAdGktiVRG3tmCyhfgi4bccJ9vlBu/4aC8RQxhkLgtwyp5Md6bOFHVb/B+vBKjPQ1lBBFBoa/o1IHpnhZC+0C2eMrpAFYgHEJfMrjsOZgLtdYq44At/Eth+5BPM6xpXpNujbQQvqMV+hBjDqpVhvWNTxsKbYQQCThxqmh5q+o9XigJOUo6GxNWy9k3LlzkeG5Ozoikbfn3/NH9z9hL/8suf4EwxARPU0gTNBxc2dNoGh8fAwTNvKa+cmyMPbRFqxYLbyOeulEzHkBVgh626o6QXfgQ3LMuLQAVuNqUNJ8GS0RJEaMT1MBmTflTUAdquPgwd4OvVpuBY4Jt9qhKi1dQuUpYFWhtmdf/bDnmYswQpIMccaNqdV6xaIm2aOeEKw1Cay3vsXLjKyU9+krpJBuDEl8S6oUv7LyN407niV5476GdapPOXESrKDpcey4+etcHgGPbbOSNWxvrR97q3NYVAhEY4KKCIDa82nlfeD/zxp2rwimiZsfYDqnnNrIeAqCHB8fUfvUEjD1OGlrAM1OLSTb3JRYgl2suZDVNL0ifDDWF4ilVSboMoLU1YEooCXAUtOGkJQWi03YC3RgZjfxHdf3poPFUFqoqDHmsby0bBFRz6sthgTKmCxLyDLGF1geHYDw00NUKAySmuXLnGJ5cxzfpQxbuQaEFNfOpImQ4bvRXaac3uvdH1OQea0j65jKHHnruVGF86k3PVNknCbolOWzE60glEE2atp5ksoa345sstf/ppqK2mpELl7q5hcdc1b/8Ui2enDfzw2adwk0dxFpKyJAWG3BS4Z6hwyCBZPdhK36UYUgcWMBNCcLQh0Goebl0X7P6rXB9ZAOnPKRlRuvK93irvXpkO2rzzXjmXhVrAOSxGpPAsbtxgsbdH2J7iikDbpmzrarrx3MdGfDf4WEet9p/b4JpG+jbpgUGc1jExHMbKvWhbdw8TBHOq3CgdZ2oluEBxUPO9q5dp6r+Nq+Jd17pwtz1sYnnmrOGKwDeefpOz+1DNShb7MS1HI8Mkx9upmwJQVmYrkONF851z4hBt8drgnYJLM5Y7V2YyLT5YTde4dm5r7x1du+91Y7hPAoyAePAuPQMxcuHceWa+QFrFeZ8s+yP+WGnz9wzI69dBB+dY6bPbvqVrmvcwvhquTZ1jEVvCfMGJk9tcaEu+e36PQCAa3O3pQR9MeG0A6yuu1JFr2IBvP/02N7SgbWu2qxM0tMNQBXetdsOcQyjUkPkudnANX+9DXILG/MB0Bh/5F5ZH8VuB8A/QP6lzVk+0ewx6PJq8d+m1T+9VE3bPXcCWDdKmDPI6Gt4HDU4/Mq2HTxqW4wmGz4YJlvRtd4qHTn/02bgKSQCHkM0BcqgZRQuxFNpSCSY08/L/b+9cY3Y7rvr+WzOz93N533PxOXYcJ9hOQhJjxYAhCiAgQKANRG1VqGjTVgUKKm0JFVRVq6p86IdK/UBVVQhVAr5Ai1q1aisKrSANokCBUOKESyDgkjg+jmP7+Njn8l6f59mXmdUPM7P3fi7v5bzn2DGS52jOPO9z2Xtm9po1a/3XZfjI1Wv5h13NfRiiJmcpZyLeLjAw435DbqhgnOXmziGffLpFncONCowvaXwLbPBXOK7q6WoUt5VSG8Jsj/bgBlrvg3oQjYpfWmB54iWZme/2dhbXiQ44ri4/QJToM5x5evJZdg6coV5UHOzsU7oRdVXHOdfsk0HcvVK75BLZtUf7aeQg0dX2qO8Maw4xXGYecUyBwFgLbON57lLg/F4LdsIfPa/c2GtxNk7MMMKiE1nOCP6eiXhFe1lIfUCbBlVlHpR5G99/4srzPPXZK4zKKUUxYh4OEn/b4K9wXDV2UE3fWkmtiaeQpzZoMv+2HjvbZ7R/HVfto6NEIMFRSIExAdWanCnxrhYloSV50Uha8QaMozdoDN7DIHaE0Wip23vxBUqnID4y5SzyqKZw+NiGgWm7dy7fIGZlwtZhOzxOoK/Dz0LInDYyppD8KaxqdMrRGBJgVRDxKBYah9rA9shw5RY89VJFpbAg7iaVCt5HGK7jwmcoZ1LYhg4Z+Rm0jSc4C1Lj1fErfwKzesZYLbNZRTH1aOPQICn+/7jSweIRvegWprLRiJCYnFeJmbqLMRagajBhjhnXtFvbIA7B0kGXQu9zehdNP1F3FCQREkmR7czTIYC2SXQwGXomqEdMCTpn/9Z12vkhxcgmXzGTZFlBNKS/o+9F7ntm7ptRgixz9pLwUp+ld0nVdJ9IWIPTiTTCoCYlRIwiWzJBqOBDjS9GXDyE/VFD6ZXabvHECwc8+taSUlsIjsYajCoWYpLxcLb5P6PY0KsxKgK2IPiGLRMYqWfn0PPh3/kM9uIbaVyBb1qctclGr320xF0SG5acVNBBrlgIzkHT4q6/SOFnhKLCmxrVgpJpEkHvrtigiYr6BNEaldlOeMySeveL2BhBiwJxBbPIT7DkAAAgAElEQVSqYefWLsY41Kfr9Rt11y45oHftOjfLylYkRoV0bHeuIYS193oFYVm7CEnp7seXkAyJC8ubgA1CC5x3lv/2uc9ysKgZzxyNU0rAmpxJPdPT7ZeziQ30MlEIUHulHBdoNcO6EZ98+gZXrh/gty4QjEOM0NYt6kMnk51ax78NRILEPbJSrCFEWTgEJgcH6OwmNPvgAiIW76GzqN3FkuW4fhTp/9xPlT4gFHr5N8fQFSWhqtl56XoMDUpI3JH+xpv6sAGfXUMJhj0UWXtv8/2ih1skVF0ZYx53WkBAIfAnjfCpmwa1Md2r1Ygih6QbvOrEmxU2Iy2tQNsCdYMaw3/6td+H6TSJdg2ugKZuaHOW8jPKOEt8YKDIx/fyBPSYa2SAEY80VuDwELO/i6sWqFZ4WvrtkY6j3akWvKnPMFgjkh52RzCpSYRtXAlYbt7coZ01WE0m3Q2LbH27vz2U4DRO+N3kpAUg2ZF/g7I3vHHEwFtG4zfzK0/ehLHgNIC0SfJT7iS32dlx3ixg0UafWWMQV/DigfDRz8wwJsqbUh/iQosYi6TkIqzAOCdN4Ebf1RylEFls1+rw2oCk1JvVuGAMbO0dYG9dR6lhIjFGxfTXywn57uhgkG5FaXrey/1f/lIq+SzipM7bsqTdP6SuaozLSaeTJrCE9LARQTgNSrDcbvqMbh4VHdBlElU2KIbDgxtRwUvgcn0Pv3f9Fs9aj2tbRIXgFROSweSMO9/ZZF76yVMKCgKhPkBHU375ic9y9QBKyZEKyeJlbRelYMx6BMNSNSmiIYWk5/aoxHkMWhmGuUtcVEr2YXBxW6sr3O7LFIe7lEUBXlA1qHEYE7Da3hFH6HUiiQdkp8WtqT9xDANRIWmlkiI2vDHIaALWcfO5z2PV02jAGBPx2hBfe++BZXTgtlCCwdEB3VEC+RiBEOL3JYf65N/HefHeJ0f9vmoImBAGxxLE3WLMgudnW/zOpwNqR+yHGarRSb2zjp6hnJl4O3uOOLStEDwYy8c//SyLpsW5MYJD7AjExlWazMK3UzH97hofPqymLI3EG1tjDcbEmoneiGC90orQuOhAXhwe4G5dh8U8au+miNfJipH2nO62i/Ryb4fH5qyTXfKTTLxDudMmccLijYPxmN1r12jmcySdc0EnrpGgJjmi6srrKF/mA1pM9zcp+qJXgE362yBYMalNkJiJc5SNHplog2oH1+VroZG7Uh5StVt88soMsRE1sUp0tld5dYlXyNa0uGW1bU0x3uLzN2b88Wd3YFrGcJoEteTVpbIuj51UGbSSRI51saFvjxI7MifN6IS6gja0NLdeYKILxqaNYUMUBDNOxHdGqapTGnuxYVUEWpnQaMYOgaA2znDrEeuoW8/+3h6TosQ3LYW12MSBY1aciAxEFCG3m1ACEkpgBijBsB1s93mHyKiFROfzaLnrRZeNOPLKdYIoBMt2afiN3Rd55nrLednGm5p4dFeIVHyGckbiTYQgAiEwdoJQ8vGnr/NHn7tOUZYpqV7PWDoL/O1y3iXmJH3Lhi9smMzuPfqbZ3HAqFK0c8L+dTi8hQs1iE3Yz5nmM0/Q4H50fei1+uF4JGlyaWWLiX1AsM6htWfvxg5OiXFj6bqt94jJosLy9Y9HCVhBCdbr0J86c9jVBXgkyrFUlejLCxNn+KP9iidvJJ9k5xMNcebQtjOKDck7iWhDt0Y40MBH/uAGM7MVuz5UVk9TdfP7cGd0tKl0uSWMoTSG9mCPdvcGtj7E+BqTTMpkZaV7YGn0Z+1Qx8lkmXhl8IVMvMbhvUBRcnhrh8X+Ic5Ygo9oig/96ZdhbbdJl1tivFl5U9iAEtxOHc7h+k7HoE2U2QrBecbhHL91rcL7NhK2ZOXv1ZR5VXoRAMAadmeH/J+PfQrO3x/d97oBxv5L2kL7Nj0/HTxH1iuDNk/cnUx8h0IQgQavhsIajK/wBzfQekHwGpUsBclRB2IQCXc02dJFaQzGOFwJScgXY7G2QJsGO56w2J9RHRxQ2gJtPQBBA62Pu9sSIpDbtM13rzNKQG8iPqmu91+69sjfCF2bx6wIcz/nHfUl/vuzL7DHDGcmiY50AHPeXjmb2JC4UuxkDSr85pMtz1UlhcxwMo4H9iWry6pMlWs0+0uXVWWTjQd6RjKcvBMRi2NregBo5y9RSkPLlAuLl/iGczvoPFAUAdwE1RnqK7SddgR8ltIRvkS0IZ6smVwjTUzsJyYQD2zR+L6Lvg63rl0nGJhpy8K3cdewNmr4ysqhgz060FfpfVJ0mQGsogYdenBaZpB3gaBLVQJogFHraJxhZhc0hxOeeK5krhUSFlGRP+PeemaNJDu0BFqEMf/jNz9DkBFj2+DrQJaqejNirqZ/Td/2h9vFoYRuSDog3r69sxqvbQXExFM2rbXQGiazHX76+76EH3xPQbM3QreUstplrGMofCc6nKlIcgKSLB7I4LUBK6jEoE1FY+ClAq5g59YOVdsQrLDwDc5YCkxEBRJ81SEIktCBVIUIeUGSYTklUZ6hSkgwakI6SLv0xDj2pwvOz8b84qfnMTlhipI5K6pzRuJNRKdKYUY8d93zx09dwZSCKacYfFI+IBL6EZVBKx2pD8g+3qsXG/r2zmq8n1fQEHMyNFrA/Dpf+cgbeeCNF/jXf+1B/sn7AjwzoykfJhT7mGYvEtmZhfDkfrnUGVZeO1Qcmh3VMRhb0DQ18719pq7EaUQm2uDpXCBlgBxsFBvWOz2UX3N7RzXpQblVibDbfgl2VnGxgSCB37r5HPvzKZojrl9NsSEr4xoCQsEvfOLTPH+rYTQdM2/aiD5Ib8g4kgUuQQmwWdLty93ivIr0DiHBIyo0oaRsd/iO976NVi3zpuVf/KV38qN/8RzSWupwH25qYwqvM2d+2TSAPOz0IhOtGlRscnwSaFtuvHwD45WRsQlW0wHBDHWFnpi617KuYA1N9XfqnCRkoqBT2jRp7a3CrK2ZHi4o7j3HtUXBrz/zcsKu9cxi2PHEq/3q7JWdHru0EpMa/cbTc2aMaBZzGjX4epE459n9GAZduL16CtRCkpJjnY2hZG2glS2+aOL5mrdMKQF0wn4j/NAH3spPfKDhnvY6dXNP9ANORBjHdhsoRFZwVzu5StQ5REgMiIvHCVjL/MZNmoMZhXUJMhtq9ne43WdCPmriVurwu911RAfJ/YhRxQJu4dFRgbXCQgPMS3716o20OevAR6K/Vj+/R5fjiTdrjmi3evN5aqqKWMdz157nE1f2KS7cx8gJGhSrvhtANh5s3iaP2z5jKwzQiaMq3CZqEcdVtwErMDYlemvGe7/qMR669xxtqDA+gA3Ui12++5vu48c/eD8Xqn1CEIyxaIjHFEQlLPoWn8i8hCMiLHKnWJaFc+814ApLvbfHfDajtEVvsbvNOiw6lIEzViHQH7qt3fY/fG8JUUjvyVBcyQSYCNrVSqGBWxcUt1cznlzgD55tuXJQpUjmLLL0ooty8m5wSs4rBB8IbYOKMg9Ckz77nacPufb0U4ysR80U6hYzncYtQcxAm86V3vdgqQ7el75dV/juAmqhUfSxrWKcY7FdMpGa9z16jqLwtB5GoxHn1OBK8GGL7/yKB/mZv/VmHqQlzHdw2/ehvsLZgDZjkHDyLpNFFd0UYVGApohiJb42lhhGMSLoGKRk9vIN2sUcVxQ03qO6GSk4Cj0YlqUTNUNs86GEuTUaDysUlRTBIeuowuCzNRRIDVIGbCPUrUNsyzmrvLhn+PTzdWQi1DQh4FvwoY4pY7lTztttD4kbitK2FT4EjMTzBj7yh55xIRijNMHhnKWViCrEAWROkltuS0DtzZnH1DOgFkGV0ll8G5gf3uKBB0q++pEH0XBIYUrUCGoUYy4gFPgQ+MCXnuen/sYX84bzX0Q7f4nztsE1FrbyCjmeU+QIZ0nEK4l4uzM0JOc9o58zBNyYEBzFZItbN28RqkW/o69styfV1efbcf7+wB+GR8F2xL1SM7Eu1RUur4mTqlNELUXl8IXHVAeYYpuPPb3PYdtgtcYQCAa0baJrQRzcHRCvJDNhwhxbLxhRtqTGodw8aPjlTzxJNb2PxozBQFmWhLpJyhzrmb2PFBs21w6ROK7eLmpBxEGbEPBBsVXFlz7keMsDF9FmFK+hkT2rxmg6EcE3Ne97rOVnvvc+3tIqi8WIeryAukruk8dP9okRFqlnaw/JxbM9jLU08znVYkFoU+4y1TWiObXhIXd5RcbqxIdV1GIoXsD6u6sLJcvT2Rhh4msvhqkVfum5Z3m28hRVgfHQGBBxWLF3QWxIaEBWrtvsfhhqjDX82h9+jlszJYy3qX3Ma0sIfV6O9JDWtevTc97ch1N955SoRYbKWvWYsmQ7LPjWr3pbnHS7hQ++I7DMQYxCKCYs5oZvfsOcn/uhd/HAdkmo78FNkhJ7AvFKmpOeTvL/qf+ZdvNDS7tVQDGjEh9iJMr1ay9jFUIT07aerCme1Kn1+cntbRkrNiiBMcYuj1K6ReEEPqcTfvv5ClxJaAKtahQzMxx5wrCOJd64AiPYbPBIYQgJZmox/OffehK5cB7jFEIFoY7RrHnbyNyLjQrrqeqdlH5r7Z+vpq1bg2JHBVXdci8zvvXdD8aUrFisTebt4UyIYHzAjM9R6TaP3hv4yD96K+/auka7Y7Au/yL1vLvfys21u2J/9W6dCUPSBpKZWhFn8cHjJhN2bu3QzGNSa033yG1/z75dm9ANE730m8G17qSs9iffO1rVAnCZj37qKqEwSCEUAyVRZDAvR5RjiVdI8I8oGlrqICyCgHP86c2aT+1MENdiwpyx89BGjqxSdBxBsoynnLz9b6hHixSc+H4fop8Ym65sAAbawwXv++qv5Y1bAQlV5KDGLzGk7NJpfUBmNVVpWYSah8c3+J//8DHefRnaQ8HZuNBVbYJ/csxewlijPJL6JkuiUc89lSU3q7TYvG8RKxTOErxnd2+PsizTRiadl5+SsXW69nbQg+N8G9Zg0xVZ+kgunO+puY3Gisl8m6vXKp5a7CMFjIPQGiGYOJ47It4MgYOg2jIKM8qmRcyEj3zsZV6+2VAIiBp8EMTZ6DNqBK/5UMB0VoSQWtNX07dqbPx7pXJk5UTUIiryUYnzAaxz+ACND+lIgBFUh/yFr70fUUMlZfQ/rfwyo0pKi5aCGTm2VCgLQyOXeGC0xc/94CP85bfOaHcrirEi8jKiwsRsoW2L9T7CW20AH5GFIHpMhIXplTXJCQUVNY4ag3o4fOkGVoR50/SoSwq1jw7iR6ABQ/RAFaPJuVxPFg+Ghqc15WzT+whi4r1MMBiJZ2MYMYg6psUOT1UTPvqnMSLk0M8o6+yDIctOS7dNvB2mK6i1jI2nNCWzoHziszep5jVG4tkMrYJYF51xTCB0JkvZQLzxPU2vI6SWwnpWKktVOBNqAbTe07QxV4JzMRyo3jvkbV/8AO98aBo3fOsIFowpIC7Z2ErCINVincUaxcgU58YElEvbhh/7/nfxPe8SmhuC6L2MXEPbHDKaTlExNNUCcQ5bOnRw0s7mCItB+IhIhM9MRF58gtCqgxntfBHfH8qlMiBYPQIR2IQeaP+b45CK3K5hxivvL8NlyzX6YljK8pADHfHJZzyoRQDTpEWQRNYzE2+/1SpBR7QBGBk+c+2AT37mCub8lBCig0W3+jL8w6q48GqJDX3NW7MYoSwLCudwziEornDo3k2+6bHLvOHyRXzb4Agxnk1ch1CkJ9Pr15oWc7qHEWjawKVC+Lff+xjf/5UXCbuXWLQGX+xQzWqCFXTkCFLjF/tYSVnaM1EM2nTD1ScRv28E9R7KkmpRsbe7x/Z40h3H6pzrxevjEIFj0IPl57+OVOR2KBMPufI64hA/D2Tf4xjt4dXjfMFla/j1Wy9w5YZny46oiibFJ8Z5PjPxIj3M0apEIkX52NNzrly9yWjkUvbOqKgMrS4d9ctqe7fqydfL8p8G7cJmmqbFWou4EZPtkq99S8lUlJwQO443pc/PA0kIAd2D7OVMFWHSeuxMCNbzb/7mJT70Xgt7HqdTxttTaCowAQoTrb750lnWZDimlXFBL0KYAsRirEObhr2btxCvKYBS+wDNoax5gihwWk67RhoDrrhJfMjXCMm9U5DOEperCcK0MPzpTPmTl6pI6EWfF2JJ9r9t4k0ajiqo9ZgAu3XDRz7xMjrdhjakTsHdPiCu60Iio9PWpSJx8k0KwpzN5gTvcUXJ/q1d3nZ5wrd9+TuiS6SzCAHJCky6+7F9E4OoElwZj8jSBXMb+Fd/9Rw/8s0XcYuSdudFikkJdQ21x5bbtM3gbLKsoGnq8JB4yUSbXSYtuIKgBmzBfP+Axd4+LuJPqJJgvqMm5HSlI0xNr5cmWdcm/TTGkCEX7ggbgy+UC/YePvz5A+rWUyAZYDmJdk/ivGklQZTT3JRbhzt89ImrmPsup5Bxn8SL5S3w6HqMVrqy1XSwShrIacSPpW049UtM5KS+bSnKksX+HmIdD779HVy+MKZtU74HX9PWVZfZ9iS4KEe9NjawPwYbtnCVMgsL/um3P8iPvP9+2lrR/RtMz2+BB8MEkUl8Oik8vZPxdMB8tacOMS5+ZhxSlBA8jEfUi5pq/xBjYlqBEDx128bw/xP6PhzfOuGlOewc53VQM3avnaFFU8c3CyQbnjGgQfHWscOMh8O9/OLTV9lb7OJkQkqlcyJDPEFhS3IvgtQNOMsv/P4hu1pzrq2oVSIsplFpE3GQWpPaWO2gXZel1mQrAZPaeEAdA4VvA2ohBp9aIykiIeeNMPEw6jaAGY0pnLIYXcI1e/zA19+LavSOi/0rsYXFyGalZLVkc68DXMr2OBGH022MCj/8LVv8+Hc+xCQUVLda7PQSvjnEFXMoAjohnkfRtjEBoTjWIizERQZqDaLJT9oIUljEwI2XroJRfFLUJrbEV00krHA29CA6kGeUgF7JCpLC4kGDRBN3kKNr9plICunqfZwJTH3JyMxZzJX/+lSJ1ocEmSXCvQOxIe9mgjAyBWD48O++AKUitWc0GUNCBXKcF4PXm+vpiDe3Ia3wzcS7jlos90EQYt4BMQZbjhAbCeKhexxf99YpIgZnJf7OFriiiAuHzVjn0vwkjdaKYaIGMYqWIybOEjMwlHz/e+/nJ//2VyCzGTqrcKOWtoWiddjKowcLbFFgjEKTopc7mTfBgmhKnqKQYupUBTGW/cMDFtU8zpFCaVwvhdyGTLs01sQd0V5pXtvlQt4RN6MXXc0OPwxFy6xVekpK5mGPUTnmt59VRD2avPROyudwosKmRCjGOnjy5QXPvHgTd26LFkc1nxEVteGW/9oRG6JxIKSoBI0Z0s0IbjzHt7znUaYXLqzct+9jRhaOK0rWCbTXjjVlMgcWHvbnDX/lMcvP/p13cr55nmphKO2E8cJStGNMsQ1qCG2NFDJAS+hfi4Da6Jxu+sUZnekDu7d2Y0iQKl4CRVlE35IT4vyGRLs01uzToisRypJb4kLNYsMRtYcC83WXabfxwlwDlXpKK1y59hLP7k5xTKJX8AnM40TfBhFFfTzh8Zc+/mleuFlTGKFS01l38vxK4hjHc9bb47zL9WSUYakPycwSglIUDh8a5l6w4Rbf+viljtDWfid57Cdw3gyoSYIGV1CIMQusaVk0ynd8Wcm//wePs9XcpKZmvm1YhApvDB6JMWmu6Il1OM7sNomBnOYqpQhFA3s3b4EPGJEY2nSKQxrXxrI01t6fds3okNoYiUzns7Dp35JytuojgQKGRevBgfPKs4eBX33uBirxHI6TTGwnmIdBVTBWCUH4+DMLmjaC9I26mOcraCKRzVr/GRXeM5dVxRiJOQ6sASfQVC1f+vBlHn/TdpriniHctZJBBDehCAtK2zKvLO9/uOTn/vHjXB63tAfXMFsp441vcYWjretErHlbTYMQojWuO8PCxNfWgrNUsxntosIE8BpovcfIIIpF0y5xDEyjuvx5jpZZ3U1D6JU67X7Xf29Ys7IPG5Rf1Wh1w2BEmbaGyo554uoe0q3fOxEb0tZprOXm3g7PLLZhNKUsCkwxpanmSMLwermIJePC8YaGzfWs4gdLogVEY4miYml9YFIUMKt596Nv5k33XiS0vuPQd7Nks3oVDIduC7TFFcKBd7z3vjH/8bse5tHtCeHzV9lyUcltjSXge1lXlagRJaIdWhbzkjNAaWkXFe0iOur4EKiaplPGskiTDwRc9WnYFBmBRH8Q5OhnsYTpJs68ljIq1XVUIy4maYXzbkKzmHGp3KaRkudmJWEvYMxg8R1RTvRtiMK7Yd4YuHkVMxoxW9SUsg/TEV6iYO1NVJ58UqjyZOvgdWwLSKjEUfW2UYuE4yIQbFTqfEIqGhGsrxn7fWZGGMmUb3z0i1AOmTcpcd1d5r3RQQbGVhjbCdgtCoHSOiqvfMNDnv/yw4/ydW9/G7OXb3HhQkM73wVzEVoFP4dyC/wU6xeM7DyFOisxO50F66AWaEfYyXkaLK4oGRvL2LruBKFsnlXRGB3hJbZBwPeteo2nzXoihOcBNcgQvRGT5n7ZGJF1jS7JXtB41p7StcKy7oIKVjy7zmFGW7TtTSYTi3rHjsag2JNYyilkXhAN3HfxPG/aSulCiwloS/Bt983I6LKT9WDVrcmlq/4K6/WsqAUy7EPkKiEoxcihZkJTOR6+vODPfeVD+KbBjkzkzHdAqBtnLROOKmMjyf+joARGRYEPl3h4q+En/v4D/Pl3bbF7tcCMLyPtLiNapmWLNDPM+BxaTqmbNj+Ofg4RpJiAj1HGdjSKSo4PXSbHTpkccsxBlMSw1TAUG6TbuRILBrJuI8cq3dmTj/SaNBdm6VklKFRban+Ibxra8QV2ZjPukQY3Mp017rhyokukEBMBjwvhLQ9soYf7NLXQBsfYp2OWIEYbvMbEBlHBGmFW1exxL1QF3/iY4Z4R4LcQ03SKx90sOU5NB8Qjgz6bZGZ/+8Ub/OT3Pcp3fMlFws1dKLdoPVSNMjEBqh2COnR0gXQwK2QrnCpFOcJowDhhPBpTVQtq3+JDf97x2lZ/SrGha7UXhIcQWxicBIr2cYRKz7ByIILm33b/olLg1XHBH7DthCt7FnHneOR8xfmJxftwZwpb9wAAVc/73/0QW7LH+YvnCRTpQOfe2fw0aMBp6llRi2VEIlb1gWI6wZYjzs2v8z0f+HLUV0k08SeaIM9SJM1F7E4/nuzUoNJSYaja+3nA7vJT373Nd7/nAuy1+NG9+O2HqHTM2ASKIqZ76uXdrM0YmqYiWMOl+96AcY4mtDGzJL3osgaNZcyV5XbDCEhU3U3m0H8BBsxDlJydPupAunKVAVqRuTiKx+B8BQjTyRb3ttd4/+MPdrvGSfkxjpd5kzJjbJSB3v/YG/mBb/tidj/125ybjAhuSkhZW9C8nZC01y9M7Th3nF3ERAtYc+UJPvTtb+fL3vRGRFuMU6yO2fjsXqESfSECc1NSm23GbUQGwsTwox98Gz/4GLjDq8isIhTnQSyhmscIjy5XcFbW4sHa2/dc4tLle2k1xNRQybUyc9+gulQHPvDLlduZ52N2Q+TE32fRRMUx2brI/rxFXr7C3/2KMV/+wBYSwBg5YmH1RXRFpauqqt8aABMCAcEbwVWH7EvJ3/vp/8vPf6yBc+co5YCgmmQYOsXApu1NOQN9pJWHajozIl8hX02BZu3KGjRCSflsCoSm9XBY86Gvv59/9r2Pc8mOUbNApEHr89gRg0TNr2zJ8+rbQFO36FhRW6CNZUzNomr5sf99lX/569fBvQGrc4KZw9YY5inIM7RI8GhdU44L3vLQmxlPJ1RNRe0XiEiUq9t2SWaMarfBEs91M0j33HKK1JNkzPydGErvl6+vGg9vHChz+VGt7f4KSqCUe7jhD9hbwHe9M/DPv+0cUxljzBRjAgSzlN9bRBiNRv3fq8Rb13Unzww/qtVThAZjRhwYw7/7X8/wHz78u3zy4AIdEQ23/9D2291tlyGRHved4WxIipKsIIAbO2R2k0fedJEPfvN7+NA3vYFxkVK4SEDwoEXaXk9+cHelJDFM2uiMXtloFStDDIsxKIfB8fP/b4+f/IUn+b0XK8Lk/iR7LqJnWggwHjPe2ma67Zhu2ZjqQUN3MrzBxtODlsYU57RH5GWJSZyGyWREP7BM7KpJEAgpMXf2+UyNCeRzEru7G2OY79zgkfsdH/yat/LXH59wod2h9lOMK3Am8a2BwcUYQ1mW3d9rxNu2LW0btVsNmsJoArUXxg6axQEAxfgcz+wd8ntPKfv7B+zt7lBVNc5ZrCuptYk3yArGK1giGB493NpqDq7k3LnzvOONF3j84Qn3nY9+GTHbzasoJ6z2EzrrG+l1pCFFxBDqBcZXMDnH9XnDp64pn/n8nL35ISoNbdOiCuWoZDzdQlWpF02HvqjG1ATBZ2+1V2AMiaCGcFlU5gRXesSG/t6Jp7iBB6gQ29AG7n/zOd714BaPjAzSLgjBRK+5xJhUZEmudSmYIJc14lVVqqrqOirE7OeVCmMJiCzwYUGjgnVTihU4pRejv3BEslRCRZjPYHoRkzbPnmtLeuivLudFtXuI8f38ccA3MWetK0vwTTx5xExYn8/VUyqPKqsi1x0NgM07Yn7fDO5x3L3y9ytQHxGVIIDFGJOCRmTtuYxGo6W/14gXoGmaeFRRko1UlRZSpIGHBO4HERZA9uDy6UoxrjDJwGTj8StZ0paoikVpMVE6SHd2Jh7hBLw6RHqbJR+922iU5J2A+DjXPkSlyxYuyZUZegKRFhG/wmWHhDQ4N/guFCUFH6A9bQCJxSEUUWRJnw17MxBWokuBMVi/ixGhNVsoJgbz+hoVi4jNbB4Aay1FUSz1ZyPxqmon+0oS6IM2GHGENmabERWaCopznuB91G4VXOEyDNltKa+C3BDxRN8ioYmHFccyai8AAAHYSURBVLZttEIZQYIB6zox6DVXQvR8k9CgzSzGWxYFAYtgEZtj5tJxtMakzFAGgllnrsorN+1HXVcB41k60Py4S2jAmwIvMbrbAkVQgm8QazEp63v2jCvLco3xbDz1XUQoioKqWpAFe6sxS3ejHuMM1gRMEfDBRl9ZY9KGHN0QJQvsr0KJkxEPymvE4cQiJgkIGoUFC68ZSWa15L3JIwQpwKYEhSEKi5r0BtFoCleU0CXuCJ0qtowDv4IdltUdVXtjHPQK25HjzQacgFVlRAuqeC1Y4BiRFLyElRdFsXHH3Mh5cwkh0DRNRB+UNHEkf9WQuuHyeJb2hi8UnXhiHzKD1dQfy6uyB5yp5D5qRBl7qXHAUTNyuDwAZfkX+b1XY5Sr91GWZd6jS6e8JTrSnMdTHNmfxiTUqiyKI2HMY4kXogjRti3eezoXtzUIZmU8rxLHPbIM+9AtqAE09JorR0zc2hhWv/JaHcsJZfBMhkOMf8RnZK2NaQqOeV4nEm/XJY3nzfrgY2xU1MaWeyPyhWVvqw94ZSd4LXPejrMOyxFjee1wiU3lFDO9MmCBzoRurY2pCU7BZE5NvK+X18trrbzyNtHXy+vlFSqvE+/r5c9seZ14Xy9/Zsv/B+LSmkwWdEN5AAAAAElFTkSuQmCC;" parent="1" vertex="1">
          <mxGeometry x="1399" y="710" width="50.58" height="50" as="geometry" />
        </mxCell>
        <mxCell id="JF5nL9rpV0ovMVN0kRnF-60" value="" style="shape=image;verticalLabelPosition=bottom;labelBackgroundColor=default;verticalAlign=top;aspect=fixed;imageAspect=0;image=data:image/png,iVBORw0KGgoAAAANSUhEUgAAALIAAAB9CAYAAAAGNDkJAAAABHNCSVQICAgIfAhkiAAAABl0RVh0U29mdHdhcmUAZ25vbWUtc2NyZWVuc2hvdO8Dvz4AAAAtdEVYdENyZWF0aW9uIFRpbWUAV2VkIDA0IERlYyAyMDI0IDA1OjE4OjQ4IFBNIElTVD9TuxQAAB5qSURBVHic7Z15kF1Xfec/v3PuW3qXJVmLJRnLlmyQDNh4gJgQCAEMAZJgIhsIW5giwxCKqWIomOCFIthsMzHLTAFJppKZMVRBBexxAQ4YM9gQQ4yxseMdy8KbZFtSt5beXr/37jm/+ePce999asnq12pZ/V7fb1VXb/edd9+93/s7v+V7fkdUVZkn6vU6x/DyAgU6hohQqVRm/d0cy6AFiQs82zgS546JyAUKLBYURC7QEyiIXKAnUBC5QE+gIHKBnkBB5AI9gYLIBXoCBZEL9AQKIhfoCRRELtATKIhcoCdQELlAT6AgcoGeQEHkAj2BgsgFegIFkQv0BAoiF+gJFEQu0BMoiFygJ1AQuUBPoCBygZ5AQeQCPYGCyAV6AgWRC/QECiIX6AkURC7QE4hO9An0ElQVROBIrcTyf8//LNL+/RCICKqKHOH/BQoiLwjaSKbaIqmAIEcl6mEGRFFIhtG2fxWEPhwKIs8TaTM9EUEAdQ7UI1GpjbAK6EwNnZrE79+HP3gQbTag0Qj/FEGGhrDLliEjJyEDg0ilAkgb7zVuomIQY7L3LwjdQkHkDpEROP3d+0BGawGLm6njn36SeMdvaG5/CP/IDvzOR/F7nwqv1eTV3ocBREiNtqLY1Rswa0/BbNxMecsW7KmnY9dtwCStVNV7SEic70y51Ektx9IfeWZmZiHPZVEjWEAAyciEtcEaA4277qBxy/8jfugh4h2/wY+NIkag3IeUIjACYgLp00GTFyu0iO092mxCfQZVj1mximjTJqLNz6X88ldTPue87D3T14gxbTNEr6Narc76W0HkoyBPEFUF5yCKECDeN0b9phup//A63OOP4veNIn39mIFBiEqJX+GPHPwdCQnhEYFmAz81idamMMtXEp36HMpv3Eb1Va/FLjspnGMchxlhiVjpgsgdoM3CqaLqEWMBiHc/zcz11zLzw+/id+1EylWolKBcRdQHsqtmQdqcsg6qqAiSf114MVgLYtB6Da03oVnHnrKO8gV/RN+b3kK09pTMQkv6AAQH/HhcmhOOgsjzgKoHr4i1aL3O5Lf+D/Xv/hNu5y7M8DBSLicHEqwvBMsISJqOm98bZ8ROhxcxaJIJ0XodP3EAe8op9L357fRd/C5MX18IOo3p6ZRdQeQ5oO1yqAZSAPW7bmfqy5+n+eB9SF8/MjgIcRyOyeeOBSTJRizQCbVZ6szFEQEbwfQkOj1NtPksBj74USovfRmazCDG2J70nQsiHwV5C+bjGIkidHqKqX/4CrVrvgkimIHBwFnvWlP/sVje+Z5j6oIYCwI6PQ0upnrhxQy+/8PBOsdx5s/3knUuiHwEtAV0hJytiUo0H3+Mib/+KM177sSsXB3ImvihGl7YIvOze8Kz/G+MAe/xY3soveilDH3sk0Snb8LFHmulp1yNgshHQHqDVRX1HmMtM7/8OZOf/yR+dA9m5CTUxW3528VCCD30nKzFj49Dfz8r/upy7Ctfh9cQ9i22c58vDkfkJS8a0sSqqirqHMZaav98HeMf+Y/48YPI8Ag0G0huSl9MRGjzmVXxcYyOnMTIxFP801d/zv/4mWAkBKH+MIWUXsGSruy1WWLnMFHE1LXfZPKqT2MGh0Iu2Dk0p6NYTCQGMv88DQZVDMNTT/OTze/hH7Z8nIM/nkSmIv7ydZXwfxbfrLIQWNJEbnMnooja968NJB5ZlvjDbnHf7EMyGk4sw/VRblp3EV/Y8ldYYlYPKV+/tYm1wgcuqOC8YnqQzEvStQjpKW1zJ2b+5SYmrrwUMzQcbq5zrUrZQkzF6RjpeId+5Y+Z43h5EnsxDNdHuXn9Nr549qUYjbHe4bxh+YBw9S8aXHtrA2sEl3z2XnIzlhyR2zIUiSVuPng/E5/9BDI0DNai3iNJ/rhVKZv/e2k67ae+7GG+2o5JsxLPoGs+lMRDjTF+uv4ivnj2ZQhNIu/xYkiyz4z0CV+8scHN9zWJjMFnZJ7XR1t0WHJEFpGMxCJCPLqX8SsvQacnkUoVda6VXpsPciTM8rfGIFEpVAGtzY7LiGoMUi6HY4xpqwrOInQbiQUnlqH6GDevu4irzr4E8U0idXhjsgDVe8UaoWTh89fX2bHbYUQSMsuCTDgnGkuOyKlPnAZJU1/7Au7hBzFDI2jcbGUmOp3m06+0rCyCWouUymiziR/bi39yJ350L1qroXGMOofWZvD79+OefAI/thdtNJBSCU0IL8mYmaVus8TCSGOUn6buhI8DicW2zkHDwxt7pb8kTNaU//7DOrFL8+aKiHa9i7Gkgr10+gYNabYf/4D6D7+PWXFyi8TzmWtTaWZKHmOg2UQnJvDT49jTNhO94Fyi1Wswp5yKrFyFVKtBv1Gbxu8bxe98BDe2n3j7g7hHtiPVARgYgFIpkHKWJTaMNEaDJd56KcY3iXB4Y9s0HtniFAKZh/sNtz3q+MYtDd77+xWc9yim612MJVMQ0WyaDS6FG93Dgfe9FT9Vw5RLbbnYuUTyWf45r7OIIpiZwU9PYwb6Kb/slVT+4AKiM87CrFmHsc88AXrAP7WL+IlHqd/4Axo/vwk/PoHp64NqHxI3E0tsGW6MctO6bXxh62UYmljv0cSdOJSV+TssongPsYcvvbPK8zdYnAdryLQcix1LurKXfUzvwVrGr7qSmW9/A7tyNerizKWYq2nKax6CFbbovjHM8CDlP/wT+re9E7tuQ5uQUuOYTF6ZiPSDsj4JQG2Uvb8C7qldTF/zLRo3fh+/52nMytV454JPvH4bX9h6KUJM5Gdb4sOfczjvkhVGpzwvP9Pyubf2ZTGn6QISwxInMqr4pOjRfOA+DnzovaHgYUwmvwzEJMjX9BkIIRqklN4HKxzH6IF9VF7zBvrf835Km89K3lKTsSU31bfnb2elwdIg0LRWkzQf2cH0P36V2o0/YLCq3LLxYv5myyUY74iI23ziOVwGFCUyMD4Nn39blZedFeG8xySB8GLH4Yi8JHzkLOVmDKgy/e1v4CcnsSevavnGSd0rs5SS/jwbomHtXFDHTYMxDH7kcvq2/VlwX5pNJFWdyWxtcJ4scijBk2VLwdh7vPOUNp7B8BVX0Xfeefzsu9v59Bn/hUFxoIklDiHbUWX0gevhIVUFaz1fv6XB72y2WeCHdod7cSiWhkVWzXQG8W+3c+AD70qWImmLxGkV2pNwWsBJYpmVbNGoUbDBYmptAhkaZPiT/5XKeecH/1s1WYh6bNLJNqvtQ5lcxLDjAHz229M8uMuxbMDgfHBVROa2IiQXCiAotSZc8ZYKv7elROw8kTXPpip1XliSoqF8SkxEmL7mm+jUFCImmFajaCzojEFnLDgDkSJ9MXZtjejMccovOEj5nAOUtowTPWcaGYmBGnbNekau+jqV885HPQgOMcD8s9AZsvK5KogJroxzbFrmuOrtVbast0zOhPwwzD0f3IpNFWOEhlOu+XUT9eH38AB1Xyqu512LtPiBMcRjY8T/ejPS1wfi0bpBY4MZcUSrpzCnThKtncEur2MGa0jFpa0nsrgMBY0FP67IUB/R4D/jdj8HGXkpUl0JBJeA3GQ/31Uahx4v1uKcZ9mg8JmLKnzw6hmePuAZqhpilxLx6NY0kVXjVRmsCvc+7rl/l2PrhojYeazpvnRcTxM5KxEnpej6zT8k3juK6V+Bn/LYU+pUzh0lOm0Cu3wG6WuCB21aRAVcRGqc0ok7EFuxywD/K9xdvwILMvh8GDkXs+YdyMpXJFU9QB0iuWreMZW7BWOE2Cknj1g+/sYKH/lWLSFxZ8NLUiwpW9g96bnjUc/WDaFrQTeKiXratWgLoHA0b70NpiFaX2Pgbb9l+L33Uz3/aaLVE4CiU2V0poR4g2q6nEhb1S80C6zUg1JG+vtCJa52D7rratxdb8bd9lr8nh+BxiAW9XHm4mTuwjw+C4lqzYrQdJ5zT4947+9VGK8pJlRk2irfzzxeONZ7ZagPfnZ/k1pdkxK+zvs8TxR6k8i5kjFJBqC5fTf+qbsZfPcBht5zH5Wt+yDS4Bs3SoAg1iNGM6tLko6SxLdIK3+pvy141DdDksNWkHIVMXX04C24O/8Ed+efoQduBxOFMRNZqLQc1Y7QejAFa4KGYttLSpy93jJVV0xWkj762KqhJZdXoWyF7Xs9O/clxSKf06R0CZl7ksiauwmSdPgx+lMG/vTXVM7fH4K7eoT4tBKQqtTyZd1nmFpzhZCsNK0OxQEWiSpIuYyOfg93x5vw2y8PpWWTWmda+okOkX4uk6TL+irCu19epuFaboU+Qw48/xHSj2GSB/Wbv2jQiJXIhmxIN7kYvUXkVJqoiqoLN1YV99BnYNf7MCscOm7ASGJ5wzQqScPAoxI4j0zE0JJihqIEqCYNDStVYBy/429wd1wItZ3BOqvLrPqxkFkSf/YlmyznbLAcmPFEJp2N5nS5EAHnlYEK3HCv4z9dXePJfS5Y/Jx7sdgtc+8QOU2zpeQQCxrj7/tL/CNXBCvVNIjVUNDQuede54y8VkME9TEiEVKpoPt/RHzb69GxGxBjUY1beuB5klkQnFcqJeF1L4xoNsCY/EN59NMNX4L3wrJ+4d4nPB+6usbdj8VYE4RG3WCZe4bImTLMh047NA/i7ng9/smroVxJ+hQHsiPamfXtBK35PauWqbrQVquxg/jObeje68GUQH3I/x6DZU6t8ss2RZyx2rT5ynNBapVFlNgry/qFsUn42LdmuH2Ho2QNztOSqS5Sy9wTRG65E0mi19fx974LP/qvSKUf0TQfnLagehasS670LKl1jqoIHvdv70D3/SSzzDJPi5f5yqqcPGLYsNLQiDsraKR+siIYCRZ4oCI0YrjsOzPc/VhMZENgmQa9i5HM3U/knK+peMRE+Ps+jN9zI1Ito77RkieeiNprljmRQFpbBhr4u9+NHrwbEYOqP4aUnOA1fP5NK03w0Q9pEn70ccjy3iIhT91XFmZi5RPX1Hn4KYe1wY0RWZxuRtcTOZuWRRET4R79Gn7X/4JyOVg6TiCJIedqpCfswJbR2hh+/y8CkY9peE2IKGxeZSgl1nM+RjPLYiS+8VDFsGdC+dz360zXNakILk4Xo+uJ3MpQWPTg7fgdfw2lcmJhfFuq7IQgee9Un6YAjTrmjMswp74fVY8kCrn5DS9ZCX3DKkNkWxmN+SB9nRGh4WDFgHDvTsc/3tRI3JgTfD2PgK4mcmoZRAwaz+Af/Ci4g4iRhNzHcNFTi5OWyvJf+f8fbYw0VYagCDSbmI2XYc68lKRt5zEVHpLYFYC+MpRseGSOBZoI8AWl6UIAeM0dMbc9HGOthBZci8wqdy2RM0E6gch+19X4A7cipUqS9sp1fe9s4Lb3CGMYsi7y+b8fcvyscdpIDDQbLRLnxPzHmt5K6x+VSCglwqFWLrlzNyNNyUliga0VGrHy9zc1mK6HWc4f4zkvNLqWyOEiJ50xG/vRJ74SLHFqj+YqOkiRHpvLQ4spAwbVOOgmAEwZkSgrf2euy+wTbJFYQJtNzMZLMZsvzcYKgd6xEyK4UeEcrIFyBJFNU3OtFF2nhM4KJk45aUC4+wnHj+6Jk2LJ4spedCWRWznNYHn9zi+jEw9BKdn6IFdtm8Ng4Vt2rIS0mKujM9Noo474MqrVsEVYbRqNZ5K8tM0KMdlYuUpYyyduYjdehj3zMhQPmAUjcfLGoaihytiksutA+K4KkWlJSNO03Fz5ly9jqwr9ZeHaXzWZrivWkFVSFwO6UsbZWg1dQhsH0d0/QiMw6cYzZo7P5yHTPyJo3AAHsuxcZPlrkcHNUF6PUkLivWjtYXTsFnTsBjAEXYX6rDlgGDYlsUIzDpb4zEuD344sMIlTbYUyWDX85zeUeXpceWqf5/bfOvZMKiPVYKWdbyno5ho6pCk556G/LOzY47nnsZiXbC61feYTja5c6hRO2SMY3N7r8XdeBJVyaMKdHnS0CzzLhw2kk5GzMad/Gjnpd6A0PCtsUgDXQCfvwW+/Ah29AUpRkkZzhERYGtjlfGLv4DDr9xbmeoQza42p4JXdE/CTe2O+86sGu8dhqNoifSdkhtBCwBqYrMPvbjJ89u19Wd9l4FkldM8sdQpuRTLvjf40Wfic6+kwRxKTJ3EcY079MPYlv0BWXQCl4aBo8zFBFxGjPgbfBFtGRs7D/rvrMJsvBx+KGoI5cmCX04Es9E1PixSqSuw0lJRFWD0ivP13S3z1z/t5xVmW8RqYnHtxJPd+9uWS7HvJKnftUp7c57Oq4mKwyl1JZElTVr6O7vte4qq6ud+Z5DglKajEMeb0T2Gf95nE73VJKdsQVndYIAo/SxT+5x1ojDnjEuyWr4CPg65C5LgGdoeDZoGXYIO4j1BKDi7B6mXCFduqvOmFEQdrSmTSFlydiIvCA18pCZNTyi8fdqiC08WhjOs+IquCJNmKiQeg/lTosCMdWGNNV31YtN7ArPsL7KaPBsGREv5OMl1KKq6nZVUJxASDuhnMundiNl4CjRiaDezGy0Ngp8cjsJuNVrqslTYjWWBojZDsWMZH3lThxadF7JvyQT/RQWouDRStCLWm8sBuj4hiFslefl1H5LRFlaqi+3+JukZiNTuzxiIR6prIwBnYTZflyH306VJEsuX5Yiqod5jTL0WGzsac+hHM5ktI9dDHm8TPdI6ZCD8pOZcj4YOvKzNYFZquU5VcsPBelf6K8NSop1ZXrE0Vfsf38xwNXUfkUFHywULWbk2W4du5V/BUQUwIxmKPWfcOqKxKUnk20zTP7TxS7XEI4uyLrsOcdSVyXFJs80OadotsEANtXmP4w+dHTDVC5a4Tb0xE8SpUS/DoqGfPRJoGbaX2ThS6jsiBr2FxqNb2hxuRSrfmPACon4G+1ZhVb0s6XAYyzrmd7CHBmwLSty6cD8cvsJsPVAVRwUgg3RvOiegrpWq2Toqf4cCSFUYnlcmZtDDVCghPFLqPyInKTX2MNg8S9PId6CkS5osH6VsO/c9pcyk6uKvJcDkyJ3LMxURiSD5yLj132mrLuhHBaUrCuY+lSuKGCQen02LLiQ/4uo7IQjKlxxOImyZrNtHZICGo63tp0mvNZ5mQeZ1T8rq8im2xkDhFajlBKVth/XJD7NIMx1zHaBVIRGBqJiEyrWDwRKHriMzhROMdcyZxL6IVba5BryNct5DNGO4X4pzKdS7Ics+0CJ2OOI+bsKDoQiK3prfU3+3IJCf5VhREXfrHzlVyXYi8Lxs7TS9D5x9dTzRtZ6PriJz5syZCTUTWOXOuSHxkBbT+AKlUUTp1FrsUaVpudFyxiYvViYgoWGJFBarlli0ufOQOIUkVS6IhJBpqmZROLqQoYkCnHkAb44lOIqdi60G0Vo0oEzXP4/uVstUO9BZ51yJc74FKy7U40TFB1xE5XMk4fC8HImtnOaREIRdBbTd+382JVXaLbtXDQiGNA7wPTPz1jpjRyaQlbUeXLmi9vSpDFWGor1XqPtHORtcROUttoUh5PTqv9FsiAfV19Mn/HfYQIW+1egupVjk0X1Suv8fhkr33OvGoUpF+PVbWjAjLqvnSeOFadIRsjR4gQ+eTLrPPQumjDxDkm74Z+rPt/RF+z/cQU0LxyY3tfsucb6iiqjgXqns/uTfmlodihquSdLufa0E0ZDuMUWoNWLvccNJgawV7URDpEPmSMEPPAxsIiMzRKmdCoMSSRx7/m4/hJ36DSQot2XFdSujUlUj7XjivlCLDjqdjvnxDnf5yshq6g/4XmeVFiGM4dYXB2tBgXDoY53ih64gckLgXQ89FqmchPrSemvM8mRfVmxLa3Im/axv+4L8htoRDcC7GZ+uRWy1qFyuyilvir/pEm4yE7poP7nJc+u06E41QEPE6d51FGD88HA2nDPUJ525o7TVyogM96NKlTul0ZkwZWf56/MQ9YTNGH89tmVOmgCNU9aIS1B8mvv0VmM1XEa27GOwwAE4101+EwtgCknmBp+P0LEVCxc5YYaau3Hhfg7/9cZOphtJflvCZpLPlTmnardFUTl5mOGejBXTRiOu7ksiprgEUWfvHyONfCsuM8qKfo13YtEQlBItuK6ivEz3wIf7vY7cyvuoiLlizlbUj6zhuE9eC3/vwgbyGNXu37XD8+N6YXz3qGO4Li0e9dlaWhiRvnAR6TQ8vO80wUDXJ3nyLY7+RrlyzByREFvAN3J1vxo/djKlUw1IkmQPxtLXbU7ojWYWYa2e2csXBdXgVlleHOblvGWuqKzEYFqQCqAISE/nl6J63ErlliGmiemyEyAoVKoxOKWOTnr3j4VlZNhDE9ZrJNlM9yNzGTX5CEKabnq/9eR/PWxclWmd4tlNvPbNhZJq58L6BsRVk7duQsVsCucUc3SrnSRxWNFHRmGtqz+XzU2fRVxKsOKbiGQ4c2MlDPM7Rt2Oc05mjasDMUHJr6X/iT6HuUeM4VrVHMrlkskwjMNIvGJJydCYt7exZFAn93sqRsGfC85qtEWedYkkWih3zA7hQ6Eoit2SSofu7Wf1W9PEvhsxDVAkFkyP5yimJCSJxFahoMyHxFow4DMneGsZSMeESLYxnrIgavFiMVOkvJauqTdALL5hhS05WFeKc/9opiVN7YASaLqzXe8uLS6EBuPNYc+KzFSm6ksgpBINXh4mqyOmfRu7ahkpwOQ5rlXOWOGiHlAqpJd6KlRgritfgRuRCvAWCJpVIHx4kFPGJNU1N6gKgpQ+WbNDOSdxq+mINjE4qf3RuifNOszinCYkXCYvp2vRbYpUl+AWqDrPqjcjai9FGMwjvM2FAyzzlSexFKBNzzXSwxIHE4DUsZE3zsMflKyFXfu+ShfxKr0/773O/tqlEUzUsNq3HyoaTDB94VTlZCjb//U+OF7qWyHBoDUQxm65E+k4LG6Ub20bmvE/sBSo0ubb2XD5XC+5EIPFx2Feky9C6ZEnFDmWiJrzvVWVWjBjUL74VMNDlRCazcjZY5f4N2LP+GzjXtuRoVmCXuBOfm95ChCMqSAzkSRx+L5mwNu/CF0e8/oVRtsYvDRwXE7qbyLQ0BRmZV78Js/kTaKMZFpQiiPoksBPK2nInDIUlziMlsWrQZYxNKr9/puVDr60km0imVbzF41Kk6Hoit1sGwfsm9vSPYzd+FGp1VCIUmwR2SXZiegtWHFGyvH2pk7h9Lz2lZIV9k56tpxguu7CPgWq4OmaR+cV5dHXWIkWLzGmE7jBnfgrE4357FaZsKeGCJa5tnRXYLW0S0+bzWoHRKeWc9ZYrL64yMgCxI5F8Li6/OI+eIDK0rIqIQb0HiTFnXolG/cTbP8t3mmfypZnnIzQCiZOl1J2mpXoBeaOabq5uRYhV2T+lvHpLxMf/uMpgX9gVNTJmYfODxwFd71qkyLeIEpP0ZfMx9vRL2P+Ca/i7mS2MNw5STf6XLlzN9zTudbSl1nO7QVkD001lug7//pUlPv3WQOLQStYsCr3x0dAzRE7RmiZDJ031jrVrL+B/vuZznL9qK7unDzDjmkTGEmFzwWLvEjpP4DSYMwQ3oh4r+6aU56wQvvTOKv/hD6ohRenDNmWtllgn9jMcDV0rGnomtNyMdE2ZR4wl9o7rf3sTf3v/N3nk4NOUbcRweQBB8PhZrz8OZwZqUGlg3CoGd34CaZ6EmmZSol7IGnUru5D3a01C5lozrPRYOSxc+KKIt51fShRtipHctePQgPrE43CioZ4kcoq8pXXeYY0FYLJ2kOseu5kbHr2Fe/Ztx4tSNWUiYzEiWLHtBeoF43WeyCczuOvyhMgNRM2Cu6CSyDecDwtGm3GQYTadsnGl8OqzS7zxhSXWnBRK8qH9bGvznMVG4BRLjsgw2zoH6WHwqGqNGveMbeeGx/6Fnz19B/vrE8SuSd01KNlSSDkZs0DKN0iJ7KVO5NbQ/8SnMI3lqF1AIieLmr0PBHYeyhaqZWGwCuedanjFloiz11uWD6UPeUittTQai88K57EkiZyindCeWD0l00raTDdnuGfvg9w/toOHJh9j99QoDe9oxE1i11y4G6vgpEmfrsE89ReYxgqMaSZq3/m/R7qzKhL2+ugrC+UyDFZh80rL2euFM9dZBquJrhqy3m+pLwyLm8ApljSRU6SqsDTtlBLg0Buo3tNwMQ3XoOlizAISOe2WJL4f9REswFL6vCtgLVRKQrk0+5xVWzujyhwbmy829Iyw/ljQrs2VnHY3CGR88j0yERVTplIqPxtndVxG9Rp2YwKSAC59t9aD020kPhKWHJFTHK79a1DTmcRaa5LHOJ7puONHoFSJbA1daXU7xZIl8mEhOaVwtmCjN25+L5MYerAgUmBpoiBygZ5AQeQCPYGCyAV6AgWRC/QECiIX6AkURC7QEyiIXKAnUBC5QE+gIHKBnkBB5AI9gYLIBXoCBZEL9AT+P83WwMm0oefMAAAAAElFTkSuQmCC;" parent="1" vertex="1">
          <mxGeometry x="1433" y="640" width="85.44" height="60" as="geometry" />
        </mxCell>
        <mxCell id="JF5nL9rpV0ovMVN0kRnF-61" value="" style="shape=image;verticalLabelPosition=bottom;labelBackgroundColor=default;verticalAlign=top;aspect=fixed;imageAspect=0;image=data:image/png,iVBORw0KGgoAAAANSUhEUgAAAe0AAAHtCAYAAAA0tCb7AAAACXBIWXMAAFPXAABT1wFX4AooAAB7N0lEQVR4nO3dB3wUZfoH8Oed2VQg9KoixS4gkIQE8ORQIAtiRdCz+7fg6QGWQ88Cyyb2DthPPe8sp6CeDUiAEzkREpINiCiIDcWCgpQEUnfn/b/vJIsRE9hNdubd2f19P4bdRJj3yezMPO878xYXAQAAgCO4VAcAAAAAoUHSBgAAcAgkbQAAAIdA0gYAAHAIJG0AAACHQNIGAABwCCRtAAAAh0DSBgAAcAgkbQAAAIdA0gYAAHAIJG0AAACHQNIGAABwCCRtAAAAh0DSBgAAcAgkbQAAAIdA0gYAAHAIJG0AAACHQNIGAABwCCRtgCj1VEl6ws9Gx24G03syjQ8h4j2IU3tOrD1j1J44b0+M0rj42b5/JL5nxPTgt5x4pfijyvxfjKrF+zLO2C5GtJNzvlP8/Z3i/2xn3FhNGm3RSfvhtsH52xT8ugAQAiRtAMXuWHPqIZz7jzUMdpRIpseKRHq0+PHRP3F+KOlMYyLT1mHB/+q/ZQ1fGiUSeIr4I6XBD7oF/zpr+A+ZJjM8BcTbXJ9bJvkvRFLfKP7OJvF+A2f0mZFYucHbb/meSPzOANA8SNoANsrzjTucUyBdtI4Hi0yZLtLmYMMIdDHT6/7J90DZ2FrJ4qufSNj99oUiErpelWx4S3I+E2GVip/4RCIvNWpojTc7v0xVoADxBkkbwEKe1af20V3Gidwwhou0PIaT0avRBO0ETLb66Viq+7pAJnItgQdyRSIXb1eIv7DUINcyb8a721WHChCrkLQBIshTMr6Tzvxu4jROfHsKMdGK5vvdio4h5vNzRseJ3+448e1VGvdzry9nvfg/+ZrBF3Zh2z+cnOGrVR0nQKxA0gZoodzSMSdQgJ3ONRrHeO0Q8wFxbObogxJ1E/nUvb94259rbPpW6rzbW5KzhDO+cFb64n+ojg/A6ZC0AZrJU+o+TuN8EnHmIa2+g1icJuumiN3RVmTyc0QuPyfXl3M5cZqva+xl9FAHaB4kbYAwyJ7egYD/EsbYn0QC6ocsHQ42XOyu4QGD3+f1uRczzl9om8bemnZUfrXqyACcAkkb4CDmzZuof3ZE2UjO2VWGEThLJGycNy3BWKKo6owXr+N3l/Fd3pKcecxgT84ckr9GdWgA0Q4XH4AmeEpG9dTJde0GKruMcdZZdTwxibF2IoFfRTpdlVuSU2xw9lj7tvQKWt8AjUPSBthPrm9MOnFtGjH6k/jWxXAL3B6MZWqMnt9dRveJ1vc/jAT2qPeE/O9UhwUQTZC0AQQP92i6r/AcTjRdZI8M5GmFGHURFaWbtVp+Xa4v5xUi/d6Z6Qs3qA4LIBogaUNck8la8xVNIF+hV7T0jkWujh6MsSTxcgnxwEVen3uhTsx7e/qiEtVxAaiEpA1xSS7G8aPW+WJWWniLSA590Qs8itXNxDY+wPmp3hL3OzpjeUjeEK+QtCHu5JXmjPqJs4c1DNlylLqJW+h0g/jpouX9LmP+G2YOXvq56rgA7ISkDXHD68sZKq7793JOf1AdC7SMbHlz7sqRHdZ0TrNuzyz4UXVMAHZA0oaYl1fs7mswekhc6E9XHQtEjvg8E0Tz+yqD6HyRvO/2ZBTcpTomAKshaUNME63rWZzoZla33CTEIkatGbE7vcU5H3kyCxaoDgfASkjaEHM8ReO6abrxGGN0tupYwD5MY+/m+uQCa7xSJHHvMV+2eWDSpPkB1XEBRBKSNsQUb4l7ImPGk+JtB9WxgBoiYaeIl3s29C07N3e1+3JMjwqxBEkbYkKeb9zhnIy/i7ejVccC0UEk70Fc46tyi3Pu7Mq234N1vSEWIGmD48nWtcEDTzHG2quOBaKLOUELo9yfeKfTcktHXYAhYuB0SNrgWJ5Cd5rm4vczRldhvDUcEGOZnOu+XJ/7rzPT859WHQ5AcyFpgyPJMdfE6SXRkuqtOhZwBkasjXh5yluSMzKJAlf/LWPpbtUxAYQLSRscR7SWruJEj4oWdoLqWMB5REXvvBpyDbvDN3YCpkMFp0HSBsd4cOU5KXuS9jwu3l6Km+HQQj0N4h+ICuC1M9Pzn1MdDECokLTBETy+MUfsofI3GLH+qmOBmCEn3HnWW5KTZSSnTfH2m1+jOiCAg0HShqiXV+wewzl/lRhrpzoWiD2Msau06rLjPCXjz/JmvLtddTwAB4KkDVEttzjnCkOjx0ULG8+vwTLi+DpRZ7VFub5x42emL9ygOh6ApiBpQ1SaN2+ivqFP2Z2iGXQznl+DPVgfToEib+nYcz2DFy1SHQ1AY5C0Iep4SsanbqSyVxhjp6mOBeKLHBbGOX8r1+e+Gh3UIBohaUNU8aw5o51mVL0jLp8nqo4F4pNc8pNzekYk7s4icd+rOh6AhpC0IWrcuerkroFAVT4xNlB1LBDfGDOn2LtHJO4eMwbnXye+56pjApCQtCEqeNbk9PIH2GJxcTxSdSwADUzN9eW08yyrutw7crlfdTAASNqgXG7pqCMpwN4XbZseqmMB2B9j7GKtTXLivHkTL8T63KAakjYoJSdN4QZbxpCwIYrJqU839i3XxdtJqmOB+IakDUrpXFsiWtiHqI4DIAQTPctGuHCbHFRC0gZl8ordfTmjXqrjAAiV3iblOQ/3XOplXkN1LBCfkLRBCc/a0V0MPy3CxCngKIwu0nxFFeLd1apDgfiEpA228xS607QAz0dPcXAicdxO9vpytnrSC2apjgXiD5I22MpcXtNV/g4jNkh1LADNJY5fT25Jzs6ZGQWzVccC8QVJG2wj5xPfmFj+b8bYSapjAYiAh7wl7h88GfnzVQcC8QNJG2yR63P/30Yqf1Z1HAARw5jGRF0015ezNcADWd6Mpd+qDgliH5I2WC7PN+4kzgNPyIeBALGHddPItdBT6B7mzc4vUx0NxDYkbbCUZ+3Yowx/4E3GWKLqWACsIuqjx2suesHDPWdhOBhYCUkbLHP/2tGtKvz8DZGw26uOBcBqInGfrpcU3ibe5qmOBWIXkjZYpsKvPS5bIKrjALANo1nekpzVnoyCAtWhQGxC0gZL5BW7/8wZXaw6DgBb1XVOe9mzJifdO6hgs+pwIPYgaUPEeUvdmYbBH65bkhgg7nTQDXrFs37iSd5+82tUBwOxBUkbIqruOTa9xBhLUh0LgDosS68u84o3t6iOBGILkjZEVKVfn4vpSQEETjd5i8cs9mQuXqY6FIgdSNoQMbklY88kxi9THQdAVKh7vv2vu9edOuCWAQt2qg4HYgOSNkSExzeqByf+DJ5iAzTA2KG1tf654t2FqkOB2ICkDRGhc/0ZYtRRdRwA0YddkFuS8/bMjIJ5qiMB50PShhab5cu5SFyYxqqOAyBqMXrMUzL+PW/Gu9tVhwLOhqQNLXJX0Skd/Zw9gNFdAAfCOmnMf794gz4f0CJI2tAifpdLrifcRXUcANFO1GsvzSt2/3tGZv5i1bGAcyFpQ7Pl+ca4ObELVMcB4BRc4094Ssb392a8W6E6FnAmJG1oFs/6iYm8qmw2bosDhIP10Zj/b+LNTNWRgDMhaUOz6FVlNxJjR6mOA8BpRD13et7a0f+YMXDJ16pjAedB0oaweYrGdSMW+JvqOAAcKtnw6w+I1wmqAwHnQdKGsOmugLjgsDTVcQA4FWN0trckJwdLeEK4kLQhLHeUuLMDnM5neJYN0CKMsQfmzZu4dNKk+QHVsYBzIGlDWAKM38kIKRsgAvp92rfsfPH6gupAwDmQtCFkecXuMZzoZNVxAMQKjbPc2Zvc86YdlV+tOhZwBiRtCAnnxPJKeS5hjBdA5DDqVVbGrxDvHlMdCjgDkjaEJG+NW/Z0zVIdB0CsEfXhmfeuOP1fN5/4drnqWCD6IWnDQXlLc84QV5b5quMAiEmMulSnVG/yLBvR2ztyeZXqcCC6IWnDwRnsJtwVB7AS66anpVws3jytOhKIbkjacEDe4jEjGaNhquMAiH38ZtHafk60tv2qI4HohaQNB8Q07RbVMQDEB9aHtU2eKN78W3UkEL2QtKFJuWtyjucBGoVR2QD2YJymE5I2HACSNjRJJOypImEjZQPYRJxug1THANENSRsOAGtlAwBEEyRtaJJoZbdSHQNAvJGr6HmzFm5VHQdEJyRtaFTdDGiqowCIP7oWuFK85KmOA6ITkjY06g7f2JGyVwwA2IszutzDPXd6mddQHQtEHyRtaJRBxiXogwZgP8bY4a6SwpPE2/dVxwLRB0kbfuf+taNbVfrZ2arjAIhXhsYuISRtaASSNvxOpV+bKBrZrVXHARC3OE30rB8xxdtv+R7VoUB0QdKG3+GMXYIb4wDqyJEbrDr5LPH2BdWxQHRB0obf8PhG9WCcn0SYBg1AKcbZ+YSkDftB0obf0Eg7WyRsTXUcAHGP0Sl3rzu1/S0DFuxUHQpEDyRt+A0mkzYAKMeIEqpr/eMJrW1oAEkb9rmr6JSOfqI/qI4DAOponE0gJG1oAEkb9qlJSDhT4zgmAKIGo5x7V5ze5uYT3y5XHQpEB1ygYR9m0OmYTwUgqiRXp1SPFq9vqA4EogOSNpieKklP+InxPxKyNkBU4ZyNISRtqIekDaatWudhjFOa6jgA4LdENTpHdQwQPZC0oY7BR2NsNkAUYtQrt3TUkTMHL/1cdSigHpI2mES6HqM6BgBoHDN0eX4iaQOSNhB5Vo7pIF7SVccBAI3jxGRntMdUxwHqIWkDaUnaX+WL6jgAoAmMzvCUjDnGm7F4o+pQQC0kbZDdU4fjeTZAdGOaNly8IGnHOSTtOFc31IsyVMcBAAfGDD5MvDyrOg5QC0k7zm3jHQeJVnaq6jgA4CAYG646BFAPSTtGeIrGdUvQjV4Go16ceA9GrCMR78w568iIdxQnvPw+lTglcqJW8t8w8Wowlqg6dgA4OHG+Hp3rc3POaa84l2vqf1zGGAXEz3aIv7GdMf6LfC/O/1/E+60Gp80G8W+ovHqzd+TyKqW/AEQEkrbDmLezeZdjiAL9SdPOJ857c0a9GRkpRv3fYftmNWP1j6p//b7+PwBwKHFOi0o3a1X/bfv6n/Wp/7/7uqfw+ve6POPTUijXl7NVVNg3i5/OEwn9Y3+tvt6btXCrgl8BWgBJO4qJGjOb5RtztM60YeIMPFGccIN/In4saTxxX2dvxpCEASAErJu4VnQTb7K5qOnrLkMm8u3i5z5OvFAz2Ep/gAq92fllqiOFpiFpRxEzSa8dd4JmBMYwkaTzSmmozlgn83/uayEjRQNApJjXlxxR9c/hoh2gM254fTmfMM4+JMaXJPLAf/+WsXS36ijhV0jait297tT2tTX+0eLkceeWklsnozvuYQOAEoxp4tLTX1x/+otvrq5hLr9ojReRQQUa8YLajKElXuY1Dr4hsAqStgJ3FZ3S0e9KmCCa1pNqav1/ZIzp8ufI0wAQZUSOYMNJo+EGsVzNV/h9rs/9OuM035+etRIJ3H5I2jbxrDmjnW5Uny3eTvITnUJy3+N5NAA4iGhgHCJepnJGU3Vf0Q/ekpzXdWIv356RX6g6tniBpG2xXN+YdM7ZVRSovoAYtTr4vwAAcABGcmjpFNHUniJa33KmtucDeuAf3oFLflYdWixD0raI15dzA3G6QhzZx2KGUACIcceIr3t0v5abW+J+Z0Z6/kRx3eOqg4pFSNoRllfs7ss1mireTsW9bwCIK3WTNU3I8+VszC2hx1vVtHn6xmGvVaoOK5YgaUdIXon7RIPxGznnp8up/VXHAwCgDGNHiT8f2Zu451avL+cJF2OP3TY4f5vqsGIBknYLeX3uU4hTLmc0jGGoFgDArxh1EddFj9+gv4pr5eMuRvcjebcMknYz5ZWOGcYNlkuyJzgSNQBAk+qmXqXpInlfk+tzPxvwa3djCtXmQdIOk9kbnNhdnLMxSNYAAKGrT95Tdd34v9wS9yOB5Mp7vf2W71Edl5MgaYfIUzK+k878MzjxaxnVTYYCAADNwKi1+PN2rTrlctHynnXMl22enTRpfkB1WE6ApH0Q5qpa1OkaYrW54khLw3QoAACRIa6m3cXLUxv6ll2dV5xzw4zMgvdVxxTtkLQPIM83xv0TscfEodVHdSwAALFKNIYGcY2WeX3ulw09cD0maGkaknYj5CIeNTX+ezixq1THAgAQL0TL+3zdr43LLcmZFUjPnou5zX8PSXs/3hL3RJGwH2OMdVYdCwBA3GGsnfjzEb20aEKub9zkmekLN6gOKZogadfzFI3rprkCz4qa3jgMtgYAUO4PnAK+PJ/75tsH5z+KaVHrxHXS9iwbkaynpdzLOU1hzMDMKAAAUYQRSxGZek5eqXtObgnfZWh0zazBBf9WHZdKcZu0PatH99N1fb54ewwW9AAAiHKMtdM4vewtcY/wZORfrTocVeIyaef63OeJ1vUz4i2WygQAcBDRyJqct3b0vTMGLvladSwqxF3S9iwbIX/nf6N1DQDgTEZAL/aW5FzgySgoUB2L3eIqaXvWju6i+7V5quMAAIDmE22ujpzRgtySnBkzMwruVh2PneImaXt8Y47Q/NpC8WkfqToWAABoGXM6aUZ35fpyjg4kpV3l7Te/RnVMdoiLpO0tHjuckfGm+IA7qY4FAAAiiV2iV5cd4SkZf6Y3493tqqOxWswn7Vm+secy4s+LDzZZdSwAAGAFNlwn/6rc0lHjZg5e+rnqaKwU00nbW5JzK3F+B2GVDwCA2MboCM5dH+SWjsmZOXjxR6rDsUrMJu1cX45XfIozVccBAAD2EK2zrmSw972+nHGe9IJVquOxQswlbc6J5ZXmPCQ+vutUxwIAADaTc5dzWiLywJkzBhcsVR1OpMVU0p43b6Ke5yt7Snxol6uOBQAA1GCMWhkGvestzTnXM7jgLdXxRFLMJG0P92gbSoueYcQuVR0LAACoxRhLIoPP85aOPdMzeNEi1fFESkwk7bpb4oVzCQkbAACCGEskbryeV5wzbkZmwfuqw4mEmEjaub6cu0Wt6hrVcQAAQHSRK4UZjN7NK3G7Z2Tkr1AdT0s5Pml7fTmzxIdys+o4AAAgOpnPuIne9RTnnOzNLChVHU9LODpp5xW7/8yJPKrjAACA6MaI2moaW5i3dvRQJ68Q5tik7S0dO5ZzPkd1HAAA4AxyHLfh1xbcve7U4bcMWLBTdTzN4ciknbvaPUj2ChSfgCPjBwAANRhjx9bW+P8ze5M7Z9pR+dWq4wmX45KexzeqByd6S9SYWquOBQAAHIixEbvK6Unx7jLVoYTLUUn7wZXnpOzl5QtEC/sw1bEAAIBziYbfpd4S92eejPx7VMcSDkcl7b2Jex4TNaSBquMAAADnY8TvzPONWTsjfXG+6lhC5Zik7fWN+Qs58FYGAABEKcY0TuylvLWjM5zSo9wRSdvryxnKOD2IBTYBACDCOhgB7fUHV54z/MZhr1WqDuZgoj5p31nq7hww6DWRsBNVxwIAALGHERu0J3HPw+Lt1apjOZioTtqihX11gNMTaGEDAICVGKPJ3pKcSZrBT5gxZPEW1fE0JWqTtsc35gjG2f1I2AAAYAfGWHuus2c5pxyRxLnqeBoTlUn7qZL0hJ9Ie0UkbIzFBgAAO42+o9T9F6L8uaoDaUxUJu2trNPNooGdrjoOAACIPwbxe8ULknaoGLHbVMcAAADxSS7nybm8Wx59t8ijLml7uEej0qJk1XEAAED88paOuZRo8T9Ux7G/qEvamq/oanQ+AwAAlTTSHvCsHb3AO3DJz6pjaSiqkvYdxTndDcbvJmRtAABQq4MW0OXY7QtUB9JQVCVtQyOZsNNUxwEAACCaj+d7fe7nPOn5/1UdS1DUJG1Pcc5g4nQRGtkAABAtGOcPeLgn3cu8hupYpKhI2rKXXl4pe4TkYwQAAIBowdhA3Vd4sXj3vOpQpKhI2nklY/4k0vUfVMcBAADwe+zO+9eOnj994JK9qiNRnrQ96ycmUlX5narjAAAAaBSjHpUB7SbxzqM6FOVJW6sqv0LskF6q4wAAAGgSZzfcWep+9LbB+dtUhqE0aXuWjUhmxG/BEC8AAIhqjFr7OV0v3t2qMgylSVtrkyInUjlUZQwAAAAh4TTVs3b0IyonXFGWtO9fO7pVRYD+pqp8AACAcDBGrTS/doN4qyx3KUvalX7tCrEDuqoqHwAAIFyM2LWekvEPeDPe3a6ifCVJe968ifpGVjZVRdkAAADNxqi1xv3XiHe5KopXkrQ/7bvnHI1YHxVlAwAAtAQjutazbMR93pHLq+wuW0nS1si4Hj3GAQDAkRh1YWlJfxLvbF+60/aknecbdxInI8vucgEAACJFI+0Gzul5xojbWa7tSdsg41q0sQEAwOH63bEm5xSigqV2Fmpr0vaUjO9EvPYM2W8eAADAyThnV4mX2E3aGtX+jzGWZGeZAAAAFpnoLXFf58nIf8SuAm1L2t5S9wjG6Vi7ygMAALAaY3S5eHnErvJsS9rMoEvQYRwAAGJMvzuKxwy5PXPxajsKsyVpm8tvVpefYUdZAAAAdgpo2vniJXaStlZdniNeOthRFgAAgK04P4dzut6O4V/23B7nfBJ6jAMAQCxijB2SW5qTTVSwyuqyLE/acs1s8RudZnU5AAAAynCaKP50ftLW0lJGizZ2W6vLAQAAUEW0tidwTjdafYvc8qTNOI1Dr3EAAIhxPfNKxwwmWuyzshDLk7aocuQgZwMAQMzjbIz407lJO9c37lgio7eVZQAAAEQJOVLqbisLsDRpcwqMZbg3DgAA8YCx4feUjGr7t4ylu60qwurb4zkWbx8AACBauKo1/Y/i9S3LCrBqw55lI1zE2fBYa2j3bN2PuqX2pd5tBhLnRO2SulKCltjo3601amhX9U/m+58qv6Jtld/QJzv/hyHr4FhtE7vQ0e2G7jv+O6cc1ujf21a5xXz9unwtfbZrFe2u+RnHPcQHzkaTE5O21jZlEOPUyqrt22lIlzOoX/s/UoekHpTiSgvr33ZNqXukf3S7bPP1dOMG2lH1PX2zZz3lb3nC/BkuZhDNjm9/Eg3qNJY6Jh9KaQmdQvo3HZIOMV/lce8+7Goqq9lOm8vXUem2hfTt3k+afcy7D/sz9U1LD/nvL/v+X6goO0Asfa6M8+FWbt+62+MGOb6VLQ8kmazDTdQHkqAlUdfUPuaX3Pa67cuo4LsniGksKg9AiF+ysprZ+bR9Cbgl0hI70YCOJ5tfW8o20JItz9B3lZ+Yx304ZEs/nHgSa9OosqyWEpI1ciXqOMeiVCx9rpxRf0+hO82bnV9mxfYtS9piJw6zattWky2LP/a4OCIXqwNJTUij7O5n0OGt+9NLG2fSXtpOmh5FRx/EJfkI6LTDr7Ps+D8s7Vi68Jg76ZNtK+jNzfeT7mIhJ28e5rQVO3+ooB83llGHQ1MorUsy6QlaMyIGq8XS5yqOZt2VyIeIt0ut2L51LW3Oh0ZV9SdEsnWd2fl0W8vs3qYPXX7cQ/Rk6TSqSthhHoAO3HUQA/7Y/SLK7jrBvCNkpUQ9mQZ1G0XtE7vT0+umUVIrlyUV1qo9ftrzSzW17pBIhsFJj3gJoEK0f66GwWSj1TlJ2/OR+1Dy06FWbNtK/3f0w3RIq2OUlN2+VReaPGg2PVb4F/K33o3EDbZTUWHt1eF4uuK4R+ipj6ZSarvEiCduLppw3Kj7gtjhgM91qFUbtiRpazX8BArzWZVqKhN2UIfWXeiSgXfSwyuv2HfLB4kb7KAiYQf16dKPLjnuXnp+/c3UqkPkEzeA7RgNsmrTliRtkWgGWLFdq5zZa7ryhB3Us9ORNKLbRfS/n14UiTspqp7VQGyq63CmJmEHHXdIJp249QJa8ctL1Ko9Ejc4mzh6u3rWju7iHbjk50hv26Jn2qy/NduNPNnprH+Hk1WH8Run9DuH/lPyFCWk6JTaLoE0h921AOeQvXZP6na+6jBMI4+dQB+8+TZV6nsopS2Oe3A2l9/VT7y8F/HtRnqDEica4JTTbdShV6oO4XfapLaj8zJvoLc2zqVEkbjlF4AVTjv8+ogOaWwJedxPyrieni26lVxJmjjuXXg8BI5lcMMZSXv2JnfSrnI6KtLbtYJ8jhfqZBGNqa6toq9//Ix+3P4tbfru430/P+rQ/tS9U0/q3f1oSkpIbta2T+gzjF784AHz2ba8gKHVAZEmh3bJmc2aq7HjPy21PR3baxD17XGMmYTDNaB3NiW8354qdu41x9/K4WAAjqRZc8c54kl79y7ei+ksIdLbtYKc3KS5ij5dRk++dSf9vPMHc4ypTKrmeFOd0eK1r5jjDju26U5Xjv0bDTl2ZNjb79HxcOrdvj9t+3kTJbV2Rby1LSssPVKPEq2sNub3Ff5y+nHvJlr50+vNnnJSPhuV20zUUhud3jI4rWuNUUHfi7JW//yWbS0p+RjksNbHm7eD2yY2PvVsNE69KeMd1DHHnIxn/7h312yj7ZXfNvszO6n7Bc2OSybr3OevbfT4pw/J7NV7y5/m0JBjwjv2ZSV3Qtaf6YXVeXW3yFtFR2tbHj9Hts2iJD2VOiX//tiWn0VNoCqqjh1VZGVwcKex1DqhgzhmO+/7ubzG7K3dZe4jO899VRjxY63YbsSTNtdppBM+C5m0mnNbULYuHpl3G/3vo0XmxSoxWTeTqhxnKp9BJyTp4gImx+mJJFW1mx5dOp3Or/wruQefF9L2t+/eSjW11bTl568oUMuporyG/NUBSkj+7aw/wQlgQiEvKC9susV836/DSTT2sGt/97t3SCI6tNUxNFAkiK0VX9HrX91NZf5tBz2xglO8dknpHdLY3uC0rrIfgZze8peq70UC/4yW/fDPiF/o5MVDJqZuKX1C+qwbm3pze9V39L8fXmzW1JsXHnn3by5aB7L/tIwyWU/ofcsB96uMV7aUM7ucTlvKN4T8mQUd2qp515R3Vr5ET755pyiHieNdo+Q2Cb85/mX5/lqDHl92M+2svJFyBp0b1vbTjzyRniyoocrdtWZllSnqlBbOsd3UtK3Lvn+edteG/pkEhXN+S1/u9tGig0yLHM7xKD26/ooDbm9/B5tBr0P9LpT7SPaj+Lb8E8r/7gkqE/snFnHOhnmWjUj2jlxeFcntRv6ZNqdeTpi+tGfr5t25CCZsTbQqUlonUFrXZGorvmTilj8zb2PL35+TOehfJt7F3z9BRx7Sj/p27Wduo2FirqjaY95a/PL7DfTJ13Vrp8uLIROJX1YKZE/a2ipDXBj5by5erRLahzxjlREQtdxdNTSwx8l02uE3HPAClKAn0WFtjqWzev6Nnlw7lZJSRSXE9fuhZ5Ga4rJj8iHm17HthtMXu0rp1S9mNVpeOGSyHnXI5S0eESCn3pRffdIGmlNvvvblXVQe2Bby7F3yAhnq/mk4LeOoXpfS0DAnOJGf2TX9nqbXNz5An+354KD7UH5+zZlAZeO3H9UlbLEP5LEhH9+0PyRVHJ+/Pf65qLQafoOWbH2S0r5Io6FHjA25DFkx7ttxAP28/TPz+E9MtbdPRyRmRAxO2xo8rgu2PE5lge0hH9fhnN/SVvaNqOTUkJ6omRX8xh6nhXM8ShU7a8zP9GAT3wQrmOGcb3I2yGM6DKWebY6n9755Ifwp0RxAXsb1tgnytsznkdxuxJO2+Gh7RXqbkSYPsmCLLxzylrhM2Lq4IMrxpJ0Ob0VtOicd8KCWx6L8/699fhdRSRoVlaykmoqA+f/MxCw+WU2ve002E79m3maUQ73ka3JagnjfslqQbKlXfZNCp534l5Av1M8teIC27imjjuJ3bN0x6TfPFmWNvSXPQhsjKwvHdhxK16W+SPlfP0Wf7V3RrGE/8g6KvFsQ6Rm95NSb1w74O63YMt8cjtfSisX+gtMyTj/rYTq+W/PWG5CzjE04+q/0ykcB+rzyQ7MC0FQF46i22WFvXybTe1+60TxWZcKWx0aHQ1PNlnbjz551kXBd9NbmB6j/YcOodVLbRrf5y+6fzArs2i9WUeEn75m33OU5JivEtfIuU4p9c0uf29fTrH3TlOBxLZPTO1/MoY3lB69QNYes8H33yW5K65xMHXumkpbc8orOt+t2Uoq4/nQ7Ks28NjVGXksvPfrBZvcNksl7/BHX0q7KGG1tB7ReFO1JW6SfnpHfZmTJZ4TNIZ9hB5OrPDHadU856AVF/j95QavSdlBF5VZq2y1ZtHpr635en5hl7dglvuSt9kSR4OWFLngRlDVdV8LvL77hVEyNAKfLRtxOrRq5aDZGtqZ8HxeJyoZuVjjkiau7dPMEPbfvrGZVeELVLqUznX3UX2neeoM2Vaww90uoLdtIX3D3J5Piyb0uogTeylzkRX72keogKKdlvPaU+5qdsPfF6Eqms4+7ju7778dU03Z33e3lJlpd4drwzVozocqWnEyoHQ9LNY+NA30+suKV0i6Bvi37hI7rPIzKK3bR99u/MTuvrd7wvlkJlsy7SyLP6Hrd+SXLkC1seZzL2a+YDVnbygmWWiWmmcf16i3HU8H3TxywQiWF2/D0Vxu0Z3u1eQ2R53sklG+r3nfHpDEtTdgNyfM+FnGm94r0NiP/TJvxLizK74/LTj3hkh1vGl6w5G3BcFoA8uIuL3Bd+7Yhf41hJup9iVln+y5amq7Vfx92iE1qk9qWenQ6POS/v3ztAvNVVirkBTQYp7wFZmXCDpKJZ1K/m+ilEoO+FC3GphJPQ7KFbWXCbugPvc82P0P52EPeCYlE4j7phHF0TM8TIhAdUeuUtjS692X06id3m7eu9+8PITXn1m/Rp++Zn4M8Jtr3qGthh1Khkvtn8Q9P0hsfz6b1JZto784a8+fBPiFydIQrSa8f5qVTitiu3K/B4Y5OT9hB8rg+sfdZouKymz7Y9mLdI7UIjgoxp/WM4F1mmfwPNE2oHC4YiYQdyzRudIv0NiN/e5xTxyjP2Y32/jyYzT9uqrstKFqe5jPsZvRqlbfFZKtDMpO0TfspnKE3P4hW0NsrXjRbuHIu6FQ5O5WIW94St3PWOHmBO+P4P9Mjy9dTDTXdYpTkIhd2z+g1rM94+vzHj+jrspURSdyRSthBA3sPpycLKs3jVFYwG/aHkM/8myN4XMhe3Slp4S3wITvIVeu15uOkYCXVlVw3FjtVbE8+E5eVRHlnSd4a3/d83AZ2H9snH3Uerf+2iHYYmyJW6bOb7BMR6UdksYhrrGOktxnRpO1ZNsLFibWN9kPQxcJ/3ik7i8mLjXyWZ9aQm/G8VSZpO1oNLbF87cK6XsGiBdS6Y6L5mtVVzQnaoU1XOuOYKfSP0tvMZ6eupN+3GOUtOrkqld3k0KTTBlxJnneWmn0bZOsz3LWhrSQrar3a9aOff/5MJMXfdubqlto37O3JzpOSTNqyc5j8LMIhP7cEkaA79WotWv+GefdGnkPmnaX6PhwqTg0VyUceOxdm3UKzFpxHnUQFpTkNANVkJ1QIAefRnbQTk/WOgWi/N051PTvDJXt3y4uLfOasNTHhQ7jDNEIR7rCLlpDPG19cPNds6cjWT7ADWnNOUNli/+zbdfsm3ZC35488tF/YE870OzyL9OXtaO+OPdRGLqKy376Xt8XD7XQmf89PN68xOz5JzZ0QpHuHnjTskLPIt+0d89ZuQpiJzGpDj82hf69aT7VVLe/MJUc7BCtz8g5McyY9MZ9vt6m75ERLBac5U7jKY9u3aYX5KmUddzIde/jAsI5reeycffxUWrj5cbMiJL+cQl7nmvN4RfaVWbNpJZVV7DQnoMo45g/NmoDHScRRHt1JuyYpsaMeez33TXI4lmxNJaU23coOd5hGKEIddhEOmbRKNn5gJtSGCev9+mfZspNM605JZussq9uZYf1Osjfw84seMm+lSvtud9bH3qlNd7rr8n9Rp7ZdQ9qevBCenXE1/as4r+5WYoNWiWxl924T3mI6y0rfoQdeubkuNr1uQhB5+z84Icg9V7xIRx8W+q3qP/Y7k96bP898jNBYh8HmaPj5SM1JClLntt2pRiTsqvLaulEI9Ym2V+uBzYpLjnaQLeJwOgf+5t8zsqf2GaLmzNUQHKMu6fUjPQrWvELH9RxM10+4lzqmhXZcS8OOcdNLHz5g3rkzVzeLkorMwQzqFPrwvaCGY/vlNSHfx6jL/w6hG8Q+C+d8c6CIP/SPaNJOMCjNcMZx1yyaeStLN2/p2SWUYRfhkLc5pz9+odmpzkxa8jniCmb20JUdT+qeWSZSm87JZhIaGGZP+2DCNisaKS7z+ac58Ub9EBR/zW66680r6e7z54WchI7vlUl7G5lsY2SPS8JqZcshezJhBztAJae56iYGSXXtmxDk7nevpHvOe426tQ9tEESvbkdRK96J9mwrN4+Nlra2G/t8ZFIYfryb/nJGbliJu23rDuZwv0qRtNvUGuYIgBZhFFOrbx3dblhYf19W+BqOUZd3HOTxIyeY2R7YRHe9fRXdde6rIX9GspV5QveT6bMfPzDPEaesMdAx+dCw/r45e2SD/Sbv4Mk+DEwro3vzr6IHznvbfBQWizixdpHeZkSTdkDkNBajLW1J1qrlc7kDjcmOtIMNuwjXfS9Pr+sFn1SXnOUqYgn1w0RqKwPmqzyp5MklT7JweovLHvZmwhb7p5W4oHU4LNUcNyo7HAVbEfJ38ddW0De7PqGjOqeHtF3ZKu/b6feTbRzS6uiQY5N3AOS0m2bvZ3GBbH9oKrU/JMW8UJqfZ4MJQT7+5X2RtEN/zDF+yMX0asnD1LZ7ijlfdnMbkzLGYMJu+PnIzlqfV66gL3/6mI47NDPk7aWJpGB+rlXGAXsBxyPZGS+cns/y7kewwidv8dcdP6lm5U+O+pCTKdVW76WibxbQSUeE3sdi1KCzqfSt/1LNIb+f9TBahdtjvOFQWXlN6CBHNNQ/rgmIyuTyb16ls/pNtShaxcSvHelNRjRpawFK4s55NNMsmmbvHb6DDbsIh3ymJG/zy9abbEl37t3KbC3IpCUrHOb4TvEmeAtUdtIJR8Me9ubJKS5sjfX6TuA6fbl3dchJW+rfayi9u279bybbCOe2ffD5o0yG7XqkUKdercyL7+9v8+r04Y6XaTSFnrQP7dSHqvfUUlW5v65TUTNbo8FhhXLfyx7fstOWuTRr/fa+rFhNx1HoSVuSFRF5YUTS/q3j2v8hrL8vH1dIMkm365HaaOdD2TmvZPebdBKFnrQP6dSLqiv85mMwub1of7Ytn2eHQ553waGyco6K/cf2y3320d4FND4w2ZyIJgb9fpGDFopo0ubMEAFG90HXXF3a96BK+kV1GC0iO4Hsq/GKhGreAj/ARUIu/hGO/n0z6embFppJRrY4ZQWnqW6J4fbg793taKouDJiJUd6SHNB5RFj/XrbW/37TovrYtH2t60aFmd86t+tutmb37qoxn0029zan+fnUj+eXs42ldUkyK1BB242vw96mqPKZ0+k2vAv0U+VX5vzP8axTcnhzQMmJYMyOdOKzaS8qfY2NFpAVyT18O/1S+T11TAmtQtmpbTfzEYYcuy6TWrQnbdlvJxxyprvgDHrtuqX8bmy/3GfysaNcg6Bbq/Dnz4h6nEd70qYkB9zdoVqjOuwex9nHn0zLNs43Wy7yAuiE21j7M3uGJ/w6/rphQmiMXK0rHPICZBX5fDZQY5idqgx/UtgXD/n80KqeqnLymoDfoJq9/hbNRiV71crEIC9s5ix0+30+W/Z+0rwN7xdShb+smRHGjnBnhJMzt8lWtpxnIbFV03MGyOtCZUDu39DvAg07zk3rfloWsZnMrNQhqUfY/0Y+PpCzPDY1VFbus921P1M3ir2kLesrkd5mhJM2S3TCM+3y2u1h9/KWQ5YMPzdvz8pbjapWHmqu4DhbeXu4lfkc++DjYtslRU/nkLrns4bZG1pe3MK9C2AlWRmQrVk5S1pLbkPLebd1c6SA3miFKlIVxb21O8P+Nx1D7O1/IHISk+1V39LKrc1f/lUlOYuhHAope40fyF7/7rC2265VR/PYMY+fKG8QpCV0Cevvy2GVsj9Lc0ccOB+L7pa2U8h1XTuEWf85rEtfszUlb8+27sgd14u24TjbVuKXdx2klS01tua0SnK1skB9Ygz3LoDVzGfHfqNFnRHlsz85hWfiATo7RoJcAnQC3RLWv5E9oru07UHVxo5mlSk7fslJTMylRDufTmXV28ylKz8vW/2bJUmjmaxINXYHpKXkIwyZsKv3+OsqBRHevmoyWZuT58TWrxUSLu8/R1hEkzbjvKbpB4XRY2f1D+ba0eGQ45hlS7tG9rAWr5HvXmCtn3f9+Os42yRn1nobez4bLcx5n+XibS0Mbt+Y/GZMXhIqmSDles/hTjI0OmMCvbXmafP4D7dFOHi/sb1pSZ1pQNIpNKDTKTS29lrzmebXe9bQ+z+8sC/GaMMYRXxdgCBef6dGHt/OGPgVOrnPmlouNNaJ37g60tuMcEtbq4ns9qyxaVcR9e9wclj/Rt4CPW/ktbRo43PmbVpq5NT6bNcqMmoN2vNLNZVvryF/beB3f2fEwFMjPs90KKprKuvG2YaRDJpzR8Jy9TmxrOZntXE0gkegNrGvo5zFF7iy2vCT9sAjh9IbRU+aFdeUtuE9IjoiLaPJ/yeXZ5Rfck3wk7qfT1v3fkWbdhfS+z9GbwK3RDTWRvcTbidG+VjRrOwcoFNqTBPtvEhvMrJDvgyqdsKQL3k7Ttbu5YUiHKcMPove9D1tXrTM6Uz3u7DK53SF5W/Sju8qaPvmveb0kfsbfHR4EzpEkoxXPo8LtZW9t3ZXWNuXk08EZ/GKtF3lv5A5Q2596L9U/xDWv5fD3YKrl1khknPK23Eb8ce9m8K+2ySnoG2f2o0qdpWF1Us+3JnHZC/iL7Z9RJW7a8xRCA3H+asSzuiRzinhLUgk5zaIxMRJB5Oit2nxNsLtxNilXY+64aSynXOAOkmrhHYtiitaccaivaXtjNvj8vq6teJL6tM2vCkw5bAh73nP00PLrjZ7+O5/0QqukS0nJ5EXGTk+dn9JNpycTQn39l64rdnU5Nb0zocviQtt3dSgkW4hmTOOJdf13JWfXzhkRzZ5cTQfD1jwfE3GFsoSotFi5U+vU2aX8FZGk8+1bzlvDnlev6Bu7HcIk4HIqWbDnVVPWrLiHfpeVA7adUs2JzLREiO7X7dVbgmrM+qYzAn0VunTZvI52KOBcJKjnLRFMp/7ys5aFt1WkJ9DuFO2Nibc806O+uCBYCfNpv9eDC/xGd0tbUOjamdcsoiW//hS2ElbOurQAXSr+5/0wiczqDZh1+8WTgiOs5XPJRveLpU9sYf3OIeO6DSgxbHb5ds9n4R1YT+sSx/z9rvs6CbnLndF+LmsOQ1iq7oJKL7dsz6soXuy93O3TofQXtpetxZ6UoSzdn0nP1ekt2sReVdoS/kG85Z0OOS0rbef9Sw9XjzFrKQcqNOUTBSXHv1g2MMr5UgH38dFZkVIzoBnxcQw4d7mHXTUMPrP6qfMWQP5AR4NyMlHwkmO39dP+iOPadkQaM5CLFLfQw78OQ6N0Ep44Z53h8hRN+LzMyt5Tdz+l8dJcxZxcgLGo/yZtsHYbqcsGCLHvG7d8xV1ax3+2MCenY+k6Sc+T5/vKKVPd79PG8o+2FfzNpff1OuWHZQ9ZuXMS3J4UpeU3mFfvFQL9zGCfH71hwFu+mTH/6h99xRzPGtTLj3uXmqb1IW2VXy772df7V5jvu6p3Unrf1n+u38TXIM82Ir/qeIrOrR1aEnHXA5xzFR65r1Z5iQWck70ppza+1o6ol0G7a7+mWoCVebPtoqyKmp3mzeSCn98s9F/J+Nr7kXXbnL/Ld3yDF123INh/9sjewygGafMpw07PqQlW5/63d0bedzLJCEXc2nOMb/qk/+ar7JCIG8bawcZYtUca7YX0NAuE0KehUv2Qzmq+0DavmvTAR8NDO92XlhxfP7d+n29q/UWLDgj50iQ89PLc3b/3Njcux2NkZ/zjqofqGtqaNMby75AV516K73qe7jJcejy8Uns4uGPrzyIyC7NWV3zSyDRGd2q5cH3wY+v0MQjb23Wv090JdPxXYaZX5Ls/WqebvXnXKRX+1KhOY8RLnNPpzte30icKptc9ercvp592+yY/Ot+OqbD0H3vJ9Ft5qus1e+o/oGe+vSafTEFfVW+JuSkLQ07fjSt+2YFfVNbaC760liClVO3ZnU744Cxjet1zb73O6q/p7c3P2K2QJzWYWpL5af0bdkG6pkWXmtb6tC6Cw1vfRYN73mWOXzLX/9kTN4absltWDn/ulxcwuxF39plLixhxfA3eadBVsTCudNw3dn3movd+Kv3NjpPuEw+4czVL3/XN5b/o0Hv6pD/aaOmTriDXl0xlz6pXkS8fu0AeTwP7XpORBsMP1d+HXLSlk46YRzlr3uJaisr6iZYaXBNkHcmwl2pz0k4sYhPoxnZpTmrAr9oCfLZuwMebAsbdv+PvtjhpiM6DG7xthpe4GNJuI8R5HP/ey96jQo3L6ClPz/1m4ubPEFlSyScC5u82Pyy50fau6PabIk0XKJUDg/K6DQ+5DsBsrU97Yx7ae03H1DBD09StfbLvkpFsHV4VNvwpveUrYdPv6mbzz14u9gpyTvY2r7wmDspUW/+ugZy+FakrPx4ifkqV0uTt8atWkTD/N2/e5YuO/aBkP+NPLZvO/vvtOzLV2hdxQJz3my5HdmSPe3w680x6OFY+/kqc2y+PKblHYWGjxrkSBT3YVeHtT15fF88cjrtrb6Kqow94rxoWQWqKb7ti6h/x9BH38jW9qw/PUdvrHmUvqksNGdHk/tNVnLkHQCn3YEMD98e6S1GNGl7Ry73e31u2b2wbSS3axV5wX7764dpcutHqVWiI0K2nXyMsEW0xg4LozUmLx4jjpxgfsl5mOUJmuJq3gWkvHIXzfr7NfWLnCRRlyNam0tpBn28fRlldQ9vYZOBh//B/Npd30KUF43mPlOb+/pM+uaHneYt08696xb4sKozkRW+q/yESn7Mp2GHnqk6FPNZtlxJq24qV5fZ98DKubi3VHwS9p2Gjm260jkDp9HYmsuoKlBet3BNMyrs5h2Ft4LLVbrMzqt6g99V3gmQPbVTm3HOtEpqS60svATLu0pyWF44c4XLdcavHJFHuyq3UYBqREWvU4wn63osylvaEiO+UfyZFentWmUP30ZvbZpD5xwz3bzlHS1kr9LH/5OnOgzzovTal3fRtQP+3qzWWKgLJzTl5SWPU4VcRztVpzRxkjdMiPJt/vdPUN+0dOrUKrw1fqW2LWwhynWCSz4uNDu11U1vyRyVsCWZNAq+e4J6pB5JvTocrywOmcSeffd+c//JOxZtOiXVrZhmYW98+VG9Lo7tq44Pv9LeKjFNJMbmt2LlbXHZypa/a6uOiXWPAfZbSEM+O05tHfmWckvJ2NZsK6CxrcJ/Ft0uJXJ3ZZxAI74h0tu0YPwRkz2LHJO05UVh094V9P5XPWnMUZeoDse09otCmj3/dvOkli3MBMVDicoD22jFlvl0cq+LbC1Xjvs2h2m56hY5adst5Xe9s+VF/s0vH6KLj7vL1kqXXEYzuD63TC5tuybXDflyVs42ycrG3z+eRtMG/YO6pIU3xjhSFhe/bi7KIVvW8rZ4u+4pke/h3wh5bL/9+RyacLR9lXZ5fsvFe+Rze9khUq5+JR8D7O+r8lI6tHV4Y+kPRFaM5F2wSCje/hYN7JRD3ZvRkTeeGJw2R3qbEU/anGiz065bsnfqBz+/RLv37KLT+0+O2IEdLtm6fnnp42aiksnArIV3SKpbNL6Rk9ouMpb//fQipeldKeOwMbaUKSdDkbdKZdnyeZ8cryuH0u0/yYZMkt/XfErzP7mfLjhhhi2xydu4ZsKubxWmdU0RraUkS3o528E81kTF47mPbqILjsujwzoeYWv576x8qa7zWf3Sl3K98/2XcLSKLOOzPXWV9hG9z7X83JfH9W1P/1/dcd3KZSZsmbgb62wn+2yc0GF0i+8IBcmK0WnDLojItuSJ9/JGD00Z+PeIVHZkhaJGfFm1Ep8qzHBA0iZZs3BY1pYXfrnq1Zqyd2hX4S909sBrzWdXdpEHrOyUIhOBJFuWspdlWuckc2IJ+ZxU9SICMiG9ufl+CtRyyuoTmeEjTZEXthsf/dOv6/CKi7gcptXUcCqZyDdVrqA3PppDpx53laUXXpmwpz9+Yd2tTVGRki3sjoelmrfvndjKDpL7sDp5J81ZfSVd2v8+Ov7QTMvLlMe9TCQyYZtJTCRq2cKW67zbebwHK+3fbf+KLsi8xbLjR7awzYRdf1zLO0dtD3JHoeDrp2nSMbe1uOxgxShSSbtu7fBtlP/ls3T60de2aFvyOHhk3m10Uc7UmEranBNv7W/z7cH/Zngi/0zbgUlbMm9zikT59Z6VdPvb/6XLs+6i/odnWZoAgsladkiRScAc+pGkm2tdy5ZlmkgIDXtLq2RWbESr8j9f30fbdn9Po/udH/F985uLuGzFyoQtLmodRFI82PNNeZEvLReVruJf6Iz+11hS6QpedCV556NNF5GwD29V11JyyExoByKPM3nsPbd2Og36+jQ6I/1yyy6iP2z/hh6Zfzt98rVv3xri8nM2P2ubK0DBSvsXez4k7zvn09Un3kM9u0Ru6Vd5B+3dlf82b4nXdTyrO647iWNHPss+0NrcG/Z8QCu/fZOG9TyzWWXvXzGKJHnM+3a+Te2/7k5DDh3XrOtBMGHLRyMXuadGND7VGOM/3TjstcpIbzfyLW1N+5roAPPVRTGt/lasvHD8c83tpP+vHZ2VPpmO75VpDveIFNlakxNIBDujyIuWvM2a3DrB7CFdd3vQ1eQ4Z1W0+tnePvjlJfrgjbfpnEHX0YDe2S1O3vLElc+In1vwwL6LuOxRK1vXske2TIoH2w/yAidbvl/u/VBUupbSGcdOoeHHuCOSdGRs8sK377GFmbCTqHOv1tS6Q2JUVKoiJdhLf92uBfTeS/No4sDr6IQ+w6hHx8Mjsn2ZrGWrz9yXrG5xlNS2iaLFmUwdDk01zz8Vx3yw0l7Dyui+Zf9njm8eNWBSi35vmaw/3bzm10q5q+64DibslHYHr+zJ/5//3ePmzGnuYy+hNintQi6/sYpRpMnjpeD7J2jT92tp3HFXUPcOPZsVn7y7GAsV34bko2IrthvxpB0o2/u1lpYcYMQcucJcsCbc/tAUqty9h14ouYP2FFRT344DaFT6OeZBKRO4nIEoFDIh/bL7J3NpzC0/f7kvUZuze4k9JE9iebFo3THRHOIiE1Qoy9iFsqJYQ19+v6F+uraQd0WjzNaYiLFKK6dni26l3W9V0VmZk+noQ0+gzu26m7OihUKesHKfbBAXNZkQzX2i1U0yIdeUlgm7/SGi8tLIc+ymBDuFyUrXgi8foxc/eIAGHXIynXj8WDqscx9zKtNQKhiyUrVdfGZytqoPPso3LyrmbGf148TNW+I9U8VnlXjAGdCWff8vSqxNo50/VFDVHv9BVwELped5/pYnqWavn37ZUkE1lf4D/t39F1kJRXD+fDmETU9g9M7nj9KLKx6g3u36U/YxY+iIQ44353EP9XOWiUvuy80/bqJFRfN+sy9lRVUOdZJJrHWnRLMydLCEveqn1+nz7T7atbWKKnfVmFNkHojs4R8qrf74kY+k1u54l/776jzq2aofnXLCBDq865Hm73yw4yd4XBd9+p5ZMTG3W18pNysn4riWt8T37y1+ILJiIx/dlS54n0b0mkQZR57cZCNC7m+Z4OXiOI1VjN75/DHzurHj+8qDHj+hHI91dyl0+qJ8JXneWUJDe5xFI/ufSd079mx0XwUr6PvHJ4+3RZ89R+1ad6DybdUHPV/C+VxVYZxFvOe4FPGk7R25vMpbkrNJXCjCn2YpSpjJI0knvZNmTgQgk+nP2z+jZ9+fRdUVAfJXBShgrinM6bShF5rrPO9PJkl5gdq3zfokrdWPy5S342TnH9krWg5vkS0MM1mH2GoLZUWx/cnKiHx+1tJhSWatXSTTTol1vboLvniO/lNSS9Uimcg5huWF9LTsxvdL8EImBfeJrtfd4UhMcZmtj7Zif8thMKFcxPfXsNIlK0Cbtn5ApYv+Kz43P/mrxecW4HRiv7HmxWF/hZ+8Z1Ye9sWm0b5Wv/y85O8sPyt5POw/s1Nj5JSSlWW19OPGMtqzvfqgSTuURUdW//wWVeysoS3rd1FVee1B90fDRVbCEewUJv+tTKzbft5Erxavp6pl9fux/vhval82PP6D+zLYcc+smNXvS9mqr1s/PLRJaeQY4c/3rKGfvtxDZSJxB/wHv6snz+G6iVBCSEL1FUf5Gcvj8Zdtm+jZD2aJfe03zzG5lvj4oRf87rP83bGjk3muyVXK5O8nHzvIyp5ZKQ9zPfvgXQBRPae3Nz1K//rf/aJBUUtDj82hdqkd951nwRiC+1smw+DnF6wYle5+R1R2akM6fkJdBMe8QykqIfLuQem2d+i9+fPMY/So7oOod7dj9u2rhvsouARtML72PVLoK/9K8v8coB8/Kw/pfAnnc1WCkSVLHlqy5JTYhevEi2OTdlCw5i0PLDkMpVZcrKrERXivqOHXyORdY9Cyz+Y3eXDJi9K+bel1rQs5ZEkmAVmzlNs2fybXTw7zFmsoK4r97vcRF0Z5sZQtqJbSzN7tLvOiJDvKyYS955ca80JQW930fmm4T+TFQP7ucp/I1rW8sJn7W3zfklXC9lW66lvG7br7qUJcqCrk51YZoI9+fK/xeZD1X+Oraw0y86IgL5jy7kJwZTdzPHYIF93gs9IOogIhj5+Drpcc4qIjsm+BvEDK5HnQGBosshKuYAKTk37IfSCTlkxeFbt/Pf7Xfv/eQY9/uS/Ni3RS3ech94WsAIWzL/fFJP6q/ExkEpIVPd7EfNYN6fUtuVDXkg+eW/K4lvPny2Qrk6Q876tFC/D9TfN/f/w0PHbqj+sEs3WdYI4ASaz/XJv7KCX46K5jz7o+FLI1+vHP74tjoMFCHPUxmPvbFRx9krhvzHtwdEPIx08Yi+AE45N/V57He7ZV0Q87P6VvNn38675qsI/k7XDZZ2X/+GRlJ9TzJdzP1W7cMNZbsV1r1olkTNYwzrVk2zYzT2CXXAhCNw92eWDK3q1GwDCPKbkCUQjXYvMP8+60VreohLwotPRZaFMrijUdR90FMlLPYH/dNy5z38hYzBaYwQ+6X/YtsFIfjxbcJxF8rqXVD5uTlYDk+lvu8gJixsWbjq9hbMH4gp9XuBUJ2S9BttrMYyXEz+hAt9zNioD4fWS/h5A/c0YtGo62bz8mB4//JNHiDO3437e/ZCIx71xo5sW2OfsyKFhZNVcAC3EfyOMr3GMrWPkLtpbleR+o/72bOn72P67NhUDCrJgcMB45xDAp2bzdbcay3/7f/9iVlYf9yw/3+Al1EZx9+8usLNeN+qhbR7uRGIMVuf3iC+d8ae7nahfDcDmnpS129bro3I0tE6yB62Z/DvWP7BuuKKaaPHE0cVGPfFeXlqu7eDFLp8Q8UNl6hC8qwd/HbtFy/Acriy3uoBFOeVHwewdjkee8bKU2Nxarj59g8pZfzfm3kT5f1ODbvVkLt1qxZUuStqhHr+MO7UEOAADQEpyztVZt25KkPSN94Tden/tHUV/qbsX2AQAAohbjH1q1aWueaUucVhGjsy3bPgAAQDSS+c8i1iVts6bBkLQBACB+cG4kUaDQqs1bl7QN/UPS8FwbAADiB2f0yd/Sl+62avuWJW0jpdUarbqskhFLsaoMAACAqMLZSis3b1nS9vabX5Prc8tbBCOtKgMAACCaMI2WWrl9626P1ykgJG0AAIgDnHjAqOLvWVmGpUk7QLRIJ7rHyjIAAACiAmdF3mEFO6wswtKk7U3PX+f1ubcwosOsLAcAACAKFFhdgNW3x4lxvpgYu9zqcgAAAFTSiRZbXYblSZszvogRkjYAAMQuTvRjbXrWaqJ8S8uxPGkbPHGRTv49xKi11WUBAACowDi97mVeyycnsTxpezPercj15VwifqXXrS4LAADAfnzrMV+lXWdHSZYnbSlQVrVQT0suE4k7zY7yAAAA7MJFo3TSpPkBO8qyJWl7Ry6vEq3td8TbC+woDwAAwC4ap1fsKsuWpC1xg/+TaQxJGwAAYgfnm25PL/hwhk3F2Za0Z2YsXppbmvMlI9bXrjIBAAAsxdhzjMnO4/awLWnLXyrXx/4h3t5hV5kAAAAW8gfI/4KdBdqWtKWAX3tWcxkeRpRgZ7kAAACRxjkt9GYs/cHOMm1N2t6shVtzS9wLidEZdpYLAAAQaYyMv9tdpq1JW+LceIwxDUkbAAAcixN9ZqQPXWjDzKW/YXvS9mQuXpJbkrOWGBtod9kAAACRwR+xYwa0/dmetE2a9rBocv9TSdkAAAAtsyNVN2ztgBakJGl3NX7+91bW+Q4s2QkAAE7DOX9i+sAle1WUrSRpT87w1Xp9OY8SsXtVlA8AANBMVTqnx1QVrub2uGDUsie1BLpJtLY7qooBAAAgHJzoqdszC35UVb6ypO3Nzi/LLcl5kBi7S1UMAAAAYajSNf1+lQEoS9pSisuYUxHQp4nWdleVcQAAABwcf/L2QQu+VxmB0qQtH+R7fTn3EbEHVcYBAABwEFUBCihtZUtKk7bUurrNE3sT99xIjHqojgUAAKAxnGiuN93eKUsbozxp3zjstcpcn1uuavas6lgAAAD2xznflkSBO1XHISlP2lJgcNbzuq/wamIsU3UsAAAAv8Fo5t/Sl+5WHYYUFUlbTgWXVzrmOsNgKxgTuwcAACAKiFb2BqO86hnVcQRFRdKWZgxevDK3JGeeqNKcqzoWAACAetd7Ry73qw4iKGqSthSgwE066aeJxJ2qOhYAAIhvnPibnoyCAtVxNBRVSdubsfRbb4nbwxgp71YPAADxSyTscsPFpqiOY39RlbSlY79q8/DGvuVI2gAAoBC/1XtCwXeqo9hf1CXtSZPmB3J9OfcQsb+pjgUAAOIPJ6r1pC9+VHUcjYm6pC21qm6Tuzex/HRi7DjVsQAAQJzhfJbqEJoSlUlbTrjiWT36XF3Xi8W3yarjAQCAeME/PPartKhdNjoqk7bkHbJkfW7xmNtJ0x5QHQsAAMQ+TrTb0OhC+ZhWdSxNidqkLc3IWPxQni/nFGJsrOpYAAAgtnHiU7yDCjarjuNAojppM0bc4wtcoZP+kfiuk+p4AAAgVvGXZqUXvKA6ioOJ6qQtyVVV8krGnssZlwPcoz5eAABwFtHC/jhVNyarjiMUjkiCMzIWvZfrc98u3t6jOhYAAIgd5iQqnE+aPnDJXtWxhMIRSVuaMTj/vrxSd7p4O1F1LAAA4HxcZGxi/DJvxuKNqmMJlWOStvl8u5Cu0BOov/j2GNXxAACAwzG6x5O++HXVYYTDMUlb8mbnl3lWn3qqrgVWiZ3dRXU8AADgTJzo3WO/bDNDdRzhclTSlrxDFnyVV+KeIHb4EsLEKwAAECbOeUmqyzgvmsdjN8VxSVuakZG/wlvivpgRf4UY01THAwAADsFps6u2dvz0jPcc0fFsf45M2pInI3++SNx9GdHdqmMBAAAH4HxXQGOnzhz63k+qQ2kuxyZtSSTue7w+dzeRuKepjgUAAKIX57SXuDbeO3jRp6pjaQlHJ21p5uD863N97mTGyBED4wEAwGac15CmTfQMXvSh6lBayvFJ2xwKxrOu0UsLW4vvLlAdDwAARA9OPMA0doFI2ItUxxIJjk/akpd5jXnzJl6ysW95ImHyFQAAkDg3GOcXz8wseE11KJESE0lbkl33PesnXqhVlTHhHNXxAACAOrKFzTm7fFZmwcuqY4mkmEnakrff/BrR4j5vY5/yvxOjy1THAwAACnBewxj9yZOZ/4bqUCItppK2JFvcnNPleaXucvHtVNXxAACAnXgF4+ysGRn5i1VHYoWYS9qS7JzGef51uaXuakY0XXU8AABgPU60W+Ns/IzM/BWqY7FKTCZtSSZuovybZpWM/Vxj/HGK4d8VACDeiZba94auj/cMWrhWdSxWivlENitj0d+9JTnfEqP5jFgb1fEAAEBkcU4fGQlsvPeEhd+pjsVqMZ+0JU9GQYF4ScvzjTuckyE7JgxWHRMAADRf3VrY9IAxOOtvctiv6njsEhdJO2hG+sJvZm9yD9tdTlWqYwEAgGbitIcRv3xmesE8onzV0dgqrpK2NO2o/Opcn3uyqKbNJcYSVccDAABh0nn2zEEFn6gOQ4W4S9rSzPT8p+8oca8ziF4V3/ZUHQ8AAISGE83zxGnCluIyaUu3Z+QX3lMyakA16Y8yxi5UHQ8AADSNE69knG7xZBTMVh2LSnGbtKW/ZSzdLV4u8pa432bEnybG2qmOCQAAfku0rlczFrhwZvrSz1XHolpcJ+0gT0b+/Ly1o0sMv/4iYzRMdTwAAGDyixb2nUZZ1R3ekcv9qoOJBkja9WYMXPK1h3v+4CotutYQBwnGdAMAqCOS9RqdtKtuT88vUR1LNEHSbqB+rN9cj2/U6zrpjxKxs1THBAAQT+Sza/FyXze+/c7JGb5a1fFEGyTtRnjTl/4gXs6eVZrzJ43TQyJ5d1MdEwBAzON8kaHTNd5BBZtVhxKtkLQPYNbggn97Ct0LdBfdJmp/0xhjSapjAgCIOZy+4EQ3eTIK/qM6lGiHpH0Q3uz8MvFyc97qMY9yjd1JjC5SHRMAQEzgfBcxdk/bNHpETnylOhwnQNIO0Ywhi7eIl4vzSsY+bzB+NyMaojomAABH4ryGiD0doASvN/3d7arDcRIk7TDNyFj0nnjJyivNGcU5u0e8T1cdEwCAE3CiWsbpFcaZd0Zm/peq43EiJO1mmjG4YCnnlJm3xj2BGzSLMTpedUwAANFIJmvx8k9D43eik1nLIGm3gEjU4ljMf83DPW9opUWnEud/ZYydpDouAIBowImXM2L/0PTAI3IuDNXxxAIk7QioH9/9jvzKXe0eRBpdjw5rABCvRGvmR/Hn00Y1n+MdVrBDdTyxBEk7wmYOyV8jXi7OLXF/I2qZl4mW9yGqYwIAsAMXFz3RYFlulFWOxrSj1kDStsjMjPwZHu7xuNYUnsw5u0rUPM9kRAmq4wIAiDhOP4h8/YLB+DPe9MVfqA4nliFpW6j+tvlS+eXxjeqhkX6eSNyTRBIfwpiojwIAOBYvEy3rt0nTXj72y9aLJ02aH1AdUTxA0rZJ/dSoD8mvvNVjDuMaO1uk7YkigQ9DAgcAR6ibDGWJ+Ho3YLhe82a8W6E6pHiDpK1A/UQtciH32TKBBzTdrTFjrPj+FCKWpjg8AIB9RGv6E/HnYvG2oF0aex8zl6mFpK1YfQL/u/x6qiQ94WfeabihsTGi6X2i+Fmm+EpWGyEAxBXOvxN/fiiuQ0u4TgXeE/K/Ux0S/ApJO4rUL0P3fv0XedZPTNSqy9KJs+HE+HBGbLD4cU+FIQJALDGnE6WPiLFV4nUVCxgf1jckIEohaUcxb7/58oRaVf/1gPyZZ80Z7VxG7QDigf6c0Z84sT6iVd5daaAAEPU459UiOW8Wb+cxztcT0z8OlO/9HEOznAVJ22G8g97aJV7+V//1WHO3w0W2v+fjU9tFKKwW2bSpqv0XP1dYNQ9xzbgTOzh+PfSFK3ZYOkGF2EcdrNy+1T7/tiLt82+rNlu0+ZqTT2rTPdlI4BZtPyxame6/+cS3y1XHAWogacepuilYF+xUHYc07OFhXQzdmuuhaF3sumVAdPyeLZE9J9vS7Tt+H3lod3ZHy/ZR4rsf/hLwTfbttqoAgFAhaYNyhm50smrbjDEs+xcPvGTQHOs2z/ayjuIFSRuUQ9IG5TjjHRm3Zqi6aGkjaUOLuVwuWbH8SnUcAEjaoBwj1sPCjf9i2bYhblh6jAKEAUkblOMG782YNS1t0YJHSxtajHPeS3UMABKSNqjHqJdVm+bEt1m1bYgrvVUHACAhaYNyojXcx7LZ1xlttmjLEE8YHa46BAAJSRuU44z3sWzNFCRtiAROR6gOAUBC0galhswecqhI2JZN7MEY+9qqbUP8EBXLo0f8Y0Ty8suWV6mOBeIbkjYoxTgbYOXCpO0C7TCPMrSYqFi6aspqjhVv16iOBeIbkjaoxai/lZvPn4ZlBOMF57yKMWbZqnhi+wMISRsUQ9IG1QaoDgBig2gNfyZeTrBq+5xxy7YNECokbVBKtIyGqY4BYgSjdWRh0hbH6lCrtg0QKiRtUK2X6gAgZnxs6dY5pVu6fYAQIGkDQEwQLeF1nFu4eiajBOs2DhAaJG2IWeICHlAdA9inurZ6XaIrUXUYAJZC0oaYJVpen6mOAexTekPpj9lzsn8Sb7uqjgXAKkjaoEzGYxmHkZVtYU4fWrh1iEKc+EpG7Cyrtj/s3mFtVt68styq7QMcDJI2KOMyXKdaWgCSdjySn7llSTuQGhgpXt62avsAB4OkDepwclu7eb7Syu1D9OGcf2jVMq8mg8YRkjYohKQNSgy4f0Ar8TLKwiJ+Krqu6HMLtw9RKJAc8GlVWgUxSrVi+4zYGRPnTbx2/qT56OQISiBpgxIpCSmniZdWlhWAW+NxyTfZV5s1O6tEJNeTLCmAUbctP245Ubxbbsn2AQ4CSRvUYHSupdvXaIml24foxWip+NOapF23fXnsImmDEkjaYLshs4ekiRdrn2f7eb6V24foZTBjkc71XKu2z4mfM8IzYupy73K/VWUANAVJG2ynMW2xeLFyNaaHi64v2mzV9iG6FU8pLsmek/2CeHuRFdtnxDpXd6x+Tbw904rtAxwIkjbYaugjQ/uJlkqWlWWI7aOVHedEYl0kjgNLkrYktn3qsLnDeqycsvIHq8oAaAySNtiKM36ltQXQ7g7UAc8b41xiIHFRtV5dI99asX1RKXAZ3LhUvL3Liu0DNAVJG2wjZ5MyyLjE4mL+kz8tv9riMiDKLb9++a6s2VmLGWPjrSpDtLavOc5z3AOfej+tsaoMgP0haYNt/Mn+yRrT2lpczKsWbx+cgpnHgmVJW7S2D2nTsc0k8fZFq8oA2B+SNtgi/an0BFbNplhZBud8Z/mO8vesLAOcQ6/U3wqkBCpFck2xqgyx7emiyf2SeGPhmqAAv0LSBlu4ql3nigtcT4uLeQO3KiFILuyRNSdLdkq0bC5yYcDQ2UNPXkWr/mthGQD7IGmD5SbOm6h/u/Xb260uhxN/yeoywGGYaAVzS5O2HBc+U7wgaYMtkLTBclt+2HIh09jRFhfz1eqpq9+naRaXAo6SvD35reqO1T+Kt92tKoMxdlL2nOxRhVMLl1pVBkAQkjZYSj7L5tV8BiMLV14i83n203iuCPuTs5Zlzc56QSTWm6wshxO/S/zxXxyDYDUkbbCUq8p1mbhg9rW0EE61hm7809IywLk4PSP+nE4W1hzFpjOzHs06rYiKsGwnWApJGyxTPy7ba0NR7xT/pXirDeWAA8klWrPnZL8v3o60tCCDHnTPdhdgngCwEpI2WMZIMTvodLO6HK7xJ60uA5yNMfYE59zSpC3KOGIn33mtePuQleVAfEPSBksMmz2sb4ACU2x4lv1x0ZSipWTpCHBwukO7HvrGt1u//VIcj5Y+qhGJ25P5aObLuPMDVkHSBkuIhP2YuEAmWV0OJ34/Ov/AwcyfND+QNSdrjng72+Ki0vSALucj/z+Ly4E4haQNETdk9pCLRIsjx+pyRML+fs+OPZi2FELiT/I/k1CVMFNU8jpaXNSlWXOz/l00pWiJxeVAHELShojKnJvZkRnsATvK4pw/ghnQIFS+yb4K0dp+mhG7xdKCRAGMs6cH3D+g37rp6/ZaWhbEHSRtiCiNa7NFK7uL5QVx+kX8+bTl5UBMMTRjjh7Qp4nEmmpxUb1Sk1JnkRxqBhBBSNoQMVlzsyaIFsYFdpTFGX9g9dTVZXaUBbFDdhDLmp31mLnQh/VuGDJnyCJxnGIRG4gYJG2IiCGzhxwqWr92tXy365X6YzaVBTFGtLbv1bh2tUjcbSwuStNI+2f2g9knFN5YuMPisiBOIGlDy3nExYlp/xLvOthRHOf8brmCkx1lQewpnlL8S/acbNmT/DYbijtUXGX/Ll4n2FAWxAEkbWix7A7ZctYza2eb+tWPzM+esKksiFFJgaQHqvSqa0Vru53lhTE6O3tu9tWFUwoxCRC0GJI2tMjQuUPHi5bvrXaVxzi7fdWNqyrtKg9i0/Lrl+8aMnvInYyx+20p0KA5WY9krS+6rmiFLeVBzELShmbLfjT7CMMwXhCtFc2O8jjxNYU7Cp+3oyyIfXt27JmT1iHtStESPsrywhgliArCvMEPDU4vvaH0R8vLg5iFpA1hk8ttJlQnvCtaD2Osnqa0gVeKphb9ya7CIPbVj/E/OmtO1iJxHLttKLJ7oivxh+w52a8UTik8HzP5QXMgaUPYXFWuJ8QFZ4yNRe7VDf1mG8uDOMI5v1G0gk8WbxNtKvI8kbg/L6TCmTaVBzEESRvCIlolM0Sr5HI7yxQX1ZkfXvfht3aWCfFj9bTVn2bPzr5XVERn2FaoKEsk7m8KpxY+a1uZEBOQtCFk4iLzF/GSa2eZnHhxz+49ZxdRkZ3FQpxpR+3u3EW75LCs4+wqU1RGnxo6Z2jFqqmr/m1XmeB8SNoQkuxHsi8h61dI+g2RsP0a1ybLFZrsLBfiT/60/Oohs4dcrjHtQ/GtLR0rGWO6SNz/zJqbtbdoStHbdpQJzhdzSduzbIQruWPrNlWVPCkhkem6ThV/679gF0Onj2bLnpt9Pjf4s3b1Eg9inD2watqqNXaWCfFr9bTVhdmzs58kRtfYViijBDLo1aFzh565asqqAtvKjSGekvGpLld1V39AXO+J2gaYVuni2l5XAivruzG1bFKMVfodm7Q9a0d30QJ6lkjFg8S3J4ik3EvUWg8TtdfOtbUB0sVvZhh1X3mlbvL6eCXjtIUztokR/YeY/4OZg5d+rvr3iHbZc7IvFwn7KdkqsLNc8Vl+nJyW7LWzTACtSvtbICWQIyqofe0qU5xbyQY33ho6Z+h5q6auetOucp3owZXnpFQk7h1qMH454/w4sfN6Evk78IBOwQuUzuVdOoNqa4k29C0L5PpyvuFcXPcZbRIXljXir77vHVSwWeXv0RKOStre4nFZpBkTxIc1mvuZTNS/GXEkDv4m/634iylyPKb4G3JM5njiLsotcf8gmnPLxCf8dquaNu/cOOw1TNrRQNacLNnimCv2q60tbE68mjN+0fLLllfZWS6AnB43c27mebqhrzRbwTYR16ckkbhfy34k+/LC6wr/aVe5TnBHcU530VSeyDQ2fg+Vnyiv5eaV/gDX+yDxd2Uu7yP+ah/x6pb/RhcNOW9Jzjfi/73HmDHv6C/bLnFSazzqk7anaFw3zRW4Wnw8F4l2cx/zhyxCo4MZ9RB/XCBeL9ibVF7m9bnf0Ej7x4z0hf+LxOYdjYu9PJepWpTjptVTV3+kqGyIc8VTiktEhTVPXGVs7XRp3s1i9Jx4G/dJWz7m1NumnEkGvzrA6I/1yZciNS+E2NeHi5fLOGmXbexbtlVc+19lpD01M33hhogUYKGoTdq5q3OOJo3dRhQ4V+xiG8ZPsjRxOFzKybhUtMBXiRb4PTMGF7wTj8/CR3hGuKrnVqtK2IuLphTNpamKSgcQin4pujOrY9YpIkmMsLloLXt29uzCHYXXk5cMm8tWbvYmd9LuMn61yKo3iCtvz4g10A6IdRNlTCMemOItcb9JGt3jGZxfbHmxzRSVSVskzefEJyVa1jI+22bc+hWjoeKPt3JLcz72FvNpnszFy+wPQo0RD49oV6VXvSZOlVMUFP9jQAtcgpmiQDmZMB8WlXid+8S5YMvqdfswmprVIat78j+SL46XR0Qe7tH00qJLd5XTLNEKPkxJEIxpItucLa4+Z+f63AtmpuePVxLHQURV0q7/4K4Qby9THYskTtb+orX/ntfnflcj7S8z0hd+ozomKw2dM/SYKl71H/F7H2N74ZxqOeeTiqcWb7W9bIBGFF1ftDlrTtaF4u27ZNMwsCCRuCZWlVUdPmT2kAmrp63+zs6y7ebxuQdoviI5y+IwBU20ppwqEvfsQFLlbd5+y/eoDqahqEnauaWjjiRf4UviaM1UHcv+xIE03qDACPEhXiNqXy+qjscKWXOzTucG/5e4WLRVFMKNWAEJok3R1KJFInHPsvv5tiTOxSGi3DXi3Dy/aErRErvLt9q8eRP1DX3K5PTEonVtX6e/MEzVqlLGeopzzvNmFpSqDiYoKpJ2bunYi8ngj4ns2Fp1LE0RJ08b8fKCaHWfkqoH/jJ94JK9qmOKBPn8uqpD1Z3MYNMj1ssjTKKF/XLRtKK5KsoGOBiRMO8QiTNTnB6nKSi+E3FamD0n+9bCKYUPxMqjI9kjfINW/rLYp39UHMoBicrEkRrRyjyfe/rtg/MfjYY+TkqTtqxpbexTfp+4at+gJl2ET3ZWq/DrmZ6SUeO8GUsdPR/2sNnD+laz6pfEiZOlLAhOH1XWVF6lrHyAgxEX6uSHky+u0qsKxblytP3FM3mdvk+0+E+pfaj2Mqcv7Zm72j3IYPxtcS09VHUsoWCMJYlMPSfXlzPMsz7tEm+/+TUq41GWtD3LRiRvaFP+qqi5nK4qhuYSMR+vcX2lZ/Vot3fIkvWq42kOUXO/OECBR+vvICjjd/lPWzdtXUzctYDYtfz65buGzBkyVpwvX6mKQSSPnERX4rohs4dcsXra6rdUxdESucXucZzRPPG7tFIdS7hEzOfpVWWd711x+lk3n/h2uao4lCRtOe2cRv63RPIbpaL8SBAf4CGapv3PWzz2NE/mog9VxxOqYXOH9QgYATmc60xFd8P34cTLS64t2aI0CIAQrZ66+mvR2q00J2pSp5PGtDezZ2c/T366sfDGwh0KYwlLbsnYM4kM0VCzYwivRRg7pTqlZpnIYW5vxrvbVYRge9I2x+GV+2VvzJF2lx1p4uBrzxlfkFs6ZsTMwYujezIQTix7bvZFAR54WMRt7xCWxsLhPEAaXag6DoBwiOP2YnH+vEo29yb/HUaXUgKNzZ6TfVPh1MJ/KY0lBLklY8aLa+U8UeGJxg5n4UrXmH/B/WtHn6yib5OtSZuLxJHr48+Ig97xCTtItFXbkqEtzi0ddWK0zmU+ZM6QE7Q52lwR7B9Ut66DxDFwbeGUQqxsBI6yetrq10Rr+yZxHj2gOhahq/j6p2h1TyKdriv8S+EXqgNqzB2+sRkBzl8RV55YSNgm8bsMqfRrb3nWTxxn9zNuW5N2XmnOXeJiHXutK0ZduOFa4FlzxhDvoLd2qQ4nKPvB7A7iE/aI1sG1IkZbF/w4EE78lqKpRU+pjgOgOcSx+6BIlO3EOXW76lhMjE6lAI0RMT1Rm1w70zfZt1t1SEF5q8ccZnC+gDFy3DPsg2LsFL2q7HHx7go7i7UtaZu3Rzi7OYQ53h1JDg3QA9XPiLfnqI4l/an01ITqhGtFcrxVtAjaRUvr2sTpjqJpRfeoDiPWuHRGiQkaJcgzuv7jDgTkFye/n1NtQPlIlZhSOK1whmhxtxbn1nWqYzHVjXOeKs77c7PnZs8q21723KfeT5X2cn6qJD3hJ8b+Ld52URmHpRi7PLd07P9mDl5k2yMKW5J2nm/c4QYP/MuWaWRVYjTBW+K+xpOR/7iK4o/zHJfYpkObS6mKPHIxlGjb3aLF/6hI2DNUx+FkmkbUro2L2rXWKa21i9qkapSSpJlJ+0Bk0q6oMGhPVYD27DVoR3kt7SoPyEdW0ExFU4puEIk7hTE2WXUsDXQVFeMn2nRsc0vW7Kw7k3ckP7fcu9yvIpCt1OlecQ0arqJsWxn8MU/JmNXejMUb7SjOlqTNyZDrMbe3oyzVRMXkQfEBvmfXBygNuH9Aq9TE1P8Tb+UEKWrm7T0IkbCfKppaNJWmqY7EmXp2S6SuHRKpQ1uddC38yliCSOpt2+jmF3WWP0k2W+I7ymrppx21VBjxiOMAI17kKbomq4OZuC9WHU5DIln2FH88Vd2x+q9DZw+9py21fSl/Wn61XeV7i8cOZ2TEx9nOqLVG7GXPshFDvCOtryBZnrRnFbsvES85VpcTRZJ1Yo+KV8uHsw19fGgXo9a4RpygfxEHTkery2suTvwxkbCnxMpsTnaRHTfvKHGP5oz/JZS1g8Oly/zdPsH86lfifk18Os/NyMhfFA2zPjmGl4wiXnRp9pzsXXKhD9XhNOJIcfw8u5PvvFu0vJ8wNGNu8ZTiX6wulGn8Gfmn1eVEC3ENHuRKS/mzeGv5zI6WJm3P+hGttWp+j5KVulRiFq+QJS7mWY9mjTD8Rr6crcfSslqKU17RtKKZUXk5i1L1C+ecn+vjt4rL3rG2nD+MJsivXJ/7o1k+djcfPGS+l3njbmnIZhGVnEJeeJ1I3LXi/Y2qw2mMuE7I58oenet/zXo465Si64uKLC7S/kWHFBONkzvuKM557fbMAktnrLMsad9Z6u4cqOabxeGSalUZ0czry7nak17wZEu3k/loZjfd0GXntnPF1zCS40OjfJZucfD6GWd/LpxW+IzqWJzC4xvVQ+eue8wlaUvrrqdMQa9NUeQJIge9ImJ4RSRw2eR+1+D+a50+Za/lZOKmwr+Kd3/Nnp09RZwDcj6EqBmx0UArprNCUcEwv5HzJYhW4nvi7Tzy0xuRmKzFW5ITpx1NWVpAo288JaOOsPJ8sSxpBzj/S7wmbBNnN3mWjXgm7GccHtIyO2UO1rg2Vlwxx1KAhkTTcK0QlIkLwUTRul6sOhCnEMnxQnHAyAVz0lTHsj+5wp3O9JNEjJNnpue/ojoeJxCV1blZc7O+Eefvy+LbqB7qVF+xGG1+uehxkczlSnv53OD5RdcVrQt3e/euOL1NNVVHU8c8WzGz+4hL3m2x7Hm+JUn7wZXnpOzh5X+O1eFdoRC/e2+9ddIk8fblA/29ifMm6lt+2nICGSR7WQ4XNfSRopVaN0TCafuP0xaRsMevvm512Cd7PJLT+eqs9mnx9oLo/rCZrEz821vi/qNRXnmdqIhWqY4o2hVNKXo7c27mH3VDf0d8tN1UxxOSumFjcuKrkUxj92bNyfrebIUzWskCbMWqnas+lc/wD7SJ6pSaK8SG2tkSb9TiV4hzO8+qaU4tSdp7k/ZMEB92Zyu27SRcY5dTg6Qtx08nViYezxk/QXzbX5wM/b/d+m2GuWhH/TU72oZphcGnadrpK6es/EF1IE5wx5pTDzEM/1viE09XHUuoREV0sp6WkukpGneqN2vhVtXxRLviKcUlQx8dmm0EjHdEi7a/6njCJa5Fh4iXi0Rl/CKuccrqmLWLzWbF4n/IKZs/Fo2Lj9tS208b9koXlfYrVTzWiS4sVeO154s3c6zYuiVJm3O6JO4/N4nTyFOeGfbGnopAV3EC9KZq6i4P/oYcnKR/xen5pLSkPy+/DC2wUHhK3ccFAv7FctEZ1bE0w2DNFViRV+zOmZGZ/6XqYKLdqr+s+mbA/QOGpialyv4d56mOpyXkRE3ij7pb6SSfAHLaRbuM7NnZ33PiX3ftmLBHHNPHKg4zOmjsAnJK0paLmxvET47u2332EAcw69o+4ay9FbHZCVecqNXiV7yucGphizvcxYvc0jEncIMvEfvNsXeixMW7r6HRhx6fe4w3PR+PQg5i3XRz6dk/Zc/JXi3Omfvq18eOFZqcG0L8Tod1bufcxbsiTc5N7lk79ijvwEWbIr3tiB88hsbGkuoVcKKIqH3SV9/bNqeBnb4zO5xNLcK8HCHylIw5hnPtvyyKx9SHSlyUuurECzyrTx3uHbJA2RrTTiIqtw+LVmmp2HlylbCuquOJtM7tY6ku0nJ6gJ8lXu6N9HYjv5c5jUMj+1ftWrvMKSb9MTT3s2gt/MdgxpXFU62fpCFW1N2BYovEW8cn7F+xbpruX+wpGncinnGHpnBa4fKsR7JOYIz9Q1wnx6qOJ1JapWiUmoy22n5kp77oTtrm0pul9Efk7F/JZ/vt01y0bWet6lAiYa9I2NeL1vXfVQfiJHIN+V1l/G1xLPRSHUukyVvluivwpmf9xJPsXqLQqYquK/pJ1HxPzZ6T/RfzdjljyapjaqlObWNm1c3I4TRcLpoyOcMX0Yt/RJP2HSXuPkyLpZZEZHRsGxNJ26cFtAtWXr/yM9WBOI1I2HPEhTlDdRzWYVl6dZlsUVyvOhLHqJuMZW7Ww1lLuc5fFpWfgapDaglzTnv4LUatt1Ined6viuRmI9vS1igzktuLFa1TnXvbiHMue4Tf4U/23+ebHNkaYzzI9bllj+GrVMdhNc7ZtNySsctnZix6U3UsTlJ0fdEG92x39k62Uy6j+zfxI0f25pKPAeH3ONf6UVQnbeLHxMQQpghrneLMWqhI2B+SQVfKC4vqWJzInMqX87nxMJJCLrsrzv9nPCXjV1g1qUSsqh/n7Ml8NHOebuhyaFi26pjCIcdl43l24xjjR0Z6m5GtHnHqHQfXp7CliANa0xgZhoM6o3HaXTS16A9Ymav5AgbNFmdtJ9Vx2EWc+h01qpW3yS9XHYsTFf+l+BPy0HBzEhM54ZJDJCcwc513+D1Rkz0q0tuMaNIWJ+3hkdxerJD1mORERhVVjsh/clD5S6KVPR0Ju/m8vpyhnNN58VeHZZd5S93/8gzOX646EkfyklH7UO3Ria7EWeK7K8gBw2dT0Mo+AN470luM7O1xRh3i7yIVGt0V/XtGJOr/aaRdt2raqjWqY3Gy+lEUD7E4fFZk3ibndJ94m6U6FqcqvaFULu04OXtO9rPinHyEMTZUdUwH4nLAtU0dFvFFgCLc0mZtI7m9WJKgRe+BLS4MX4jP7raiaUXzVMcSC3JL3eOZw55LRpKcDSqv2D1mRmY+VnprgcKphavlsKHsR7P/RAbdIXZsxFttkZCgR++1TTXRkI34Y45IP9NOjr+2RWhcUXhgc+Lfij/uTN6R/Nxyb5hLiEKTxCc9XXUMqnHGbxUvSNotVTc07OX0p9LnJ1Qn/Ink4r1EfVSH1RCeZzeNcR7dSVvUKgLRl5qiRfQ8HhYt65/Fy0PJacmzschHZHlL3Znio/6D6jiUY2zEHSXu7Nsz8jHNbQTUD7f813Ge415p06HNpeK9hzHWQ3FYJh49l7aowy1Y8izSHdEwjrcJ0TCLqbwNTho9ymrZ04U3FlaqjicWiZr1lfEwxCsUBtEl4gVJO4I+9X4qZ5172j3b/c9dtOtc8V6O7Va6slYUXNqiWUWkNxjpcdq747DvTUiMgLqyZQcz8bk8ULSjaMHBFrGH5vMsG5EsToKJOAXqiOvBubM3ua+bdlR+TK6Yo1L92O5/kYdeHNpx6OliX98ovj9RRSx+P9L2AUR30macfsYFq3FVtfbmSpGo94jP4hWDGU8VTy0usbXwOKW3TRkvMlU71XFEC8ZY+93l/FTx9g3VscQsUQlfRaveFO/ezJ6TPUQk78migi5b4K3sCqG6Fkm7aTziC+lEtiMaI6z00wiRQKm6xp4DW5S1Wpy0f9er9FdX3ryy3JZCwSQ+5lNRZ92PXPUPSdsWZm9zotVDZg+5XmPan8S+v0Jcky2f8766BjfvmiIast9FepsRXuWLbYr8Y3fnkwnb4tnQvhI17FdFy+bfRVOLPrayIGhc/djsHNVxRB92iuoI4s3qaavLxMtT8mvInCEnaKTJXuey9d3LivKqxPUtIK5vehQPa1WHfRPpLUZ6lnfMUd2I8grLHmg/wAw2b9V1q4qtKgBCM8s35midUXfVcUQdRr3y1o7uPWPgkq9VhxKPVk9d/ZF4+Ui0um/JeiRrCNPZJPH9DZEsQ95JrKgwqE1rZ66xYCWD2LpIbzOiSXtmev5ruaXun0R9q2skt+t0325t9jLD8r7TenHCreAaf8+f6F/qm+zbHcHQIEJ0pv1ZdQzRyvBrk6mulzOowogXUVGReCe/bgz+eMTDI9rVuGpGi8Q7UnydyBg7npoxdermrdXU/4jUCAYcE6p4ecULkd5oZDuiiQMjt4RWiANkQiS362TypvgvZSHPW7KdE/+IcbaKM77Sn+RfiSTtGEerDiBaietCxBdNgMhYfv3yXeJlfv0XpT+V3tZV6RrONDZMXIuyxbVooLiedzzYdnaEfo2LH5x/6B0Z+XkwIr4IqqHRIo0jaQft3hP4/ZAITlvFibBZvPtcfH1scOMjf8D/cf2cw+BEnPcmdOhoHEeFxinqGwkL679Mw+YO6yESeH/REj9BfJb9xbXrCPFjOaXqvjuqeysNqqgysERnA5zYUiu2G/GkzQ3XW8T8T1qxbSeqqDCWiAP+TY1p3/qZ/2u9Wv8KE5vEHs7oMKTsxsl9ozoGaL6VU1b+IF7kV0HDn4tWeapWq/V2cVfvgBE4fE+l/4LU5MSoXtzETqIB+7YV2414YvVmvLs91+f+QLwdGeltOw0X2bprN9dVRWOLNquOBawjJ1VhxFJUxxGtGKdWHu7RvMyLsUExRLTK5cQhn9R/0anFY9eKq94KpUFFj1Lv4PxPrdiwJa1hg9OzGkPSZoxWeAcVbFYdB1grMVlvq3DCu+jHmEafvC97Ke1RHQpYx5O56EPRYNso3h6jOpYo8KJVG7YkafPyytcpLWWOeNvBiu07BuePqg4BrGforkTVMUS96gS5rjCSdqwzjGdI0x5QHYZavCJQzf9p1dYtSdqyx5y3JOcJxthtVmzfETj/ritt/4/qMMB6ft0I6OGPkokv/kTcGo8DAVfKs5pRPYMRtVUdizKc/cs7rGCHVZu3rLNYQsD/cK3LNZURi/h6ok7AGb93croPq57FgUTmqo2GVdyiWYpeg86XccA76K1duT73Y+LtrapjUUFcBmo1TpbeabAsad+a9d9fcn058sOLy0kVjKS2T6uOAezRydi2ayt15gxL3DVKdsisLK/dqzoOsEeAux7WmT8ukzbj9OyMzPwvrSzD0mFZgVp2t57ALxW/Sjcry4lG3n7zmz0NGjjL5AxfrWhd7KR478PRBFGT2eYduRyzb8SJ+hFEqsOwnaiblhsskGd1OZYmbW92ftks35hbNWLPWVlOFFqmOgCwnRzHiqTdGBb5lY4gunGiz1iczRLIiHm86Ut/sLocyydA8Qxe/HxeqVuuMBMvKyBVEWnXqg4CbMbpM3HW9lMdRjTi3Jz9D+KJwS7nmrFcJLK4WEVEtLLXGGVVc+0oy/KkLecj9/j8/6eTSy4ZGfMtEU7GdE96PlY7izOc0aeiZYHpexvBOF+rOgawlzlmu8T9oKjI3qQ6FhtUMUO7xK5HQLZMNSpvGXhLc/5P1L7+E8uddUSL4u2Z6Ysf86gOBOzHaU3sHtktpNFHqkMA+7VNo5m7yvlJ4pKfrToWi02bmbnoY7sKs21+cM/ggrdyfTl5ot49064ybbbR0JMukXcWVAcC9jNcgQ81v44e5PuRPcddtbVFquMA+007Kr/aUzTuLE0PlDDGDlEdjxU45895MgpsHSlk66IegcHZXq206BhxVZtkZ7nW49sDAdep3vS3dqmOBNTwDlzyc67P/RlhCsffYnz9bUPf+0l1GKCGN2vh1jtK3OcEOC0VFdpWquOJsGXdaPvVdhdqa9KWCwY8VZJ+4VbWqbVokIyzs2yriGb1bp20sTOHLPhKdSygljgWFjAk7d8SF2vVIYBat2fkF3p97jNEq3SBaHEnqY4nEmTHs8QE14TJA+yfQMv25TPlmFZPyfiJGvnfEjWvUXaXH0kyYZOh5dyeubBEdSygnsbpTc7oRtVxRBNN46+pjgHU86Tn/ze3ZOx5nBuvxEDiLhUJe9QtAxbsVFG4kjWvvRnvVnjWTzxVqy5/wbm3yvlWFmDjZg5ZuEZ1JBAd/OlZKzVf4fex+vwuXKJl9c2MwYtXzVAdCESFmRmL3swrznFzxt8iYmmq42kO0VB7P4n7z/zbgPzdqmJQkrQlOWPYvHkTz9/Qt3yLSNxOa52sD2h0mjc9f7PqQCB6yMc/Xp9bTiSEPEXmZBMvoGMmNDQjs+D9XN+Yk8XR8Yb4tqfqeMIhDuSX27Wh/5t21NJqlXEoS9rSpEnz5TLEf831uUs4p2cc0VGB0wsprsCfpw9cgrmU4Xc00p41KHBrvEwq0RS5cIKu60+qjgOiz8z0xb47S90Zfk7zRIPtj6rjOSjOa0R+mu7JLJijOhRJadIOmpme/0pu6SgfN1zPi8Q9THU8jeJ8l/jz+pkZBc8rjgSi2Iz0hd/kluS8JpqZ56qORSnOX7990ILvVYcB0em2wfnb5s2bOGpjnzI5+cosYiwq16TnnG/QOb/09szFq1XHEhQVSVuaOXjp5+JDPGlj793XRdsi6pz4mwYLXGvHvLIQA3TKowCfKC5E8bnINucG0/g9qsOA6FZ/p/Vuj8+9QCP+VLRNwsJFbEZ5Va5n5PIq1bE0FDVJW6r/EB/0luQcJ1oql0TBLcZSxtn0mRn57ymOAxxk5qCCT7w+92vO7WTZMvLZn2fwYsyCBiHxpuev45yGeUtzLmSc7o6Ojpz8P570gqhcXjSqknaQJ6PgcvFyufm+aFw3TTcuZfJ7RkdYViinPcT46+LgeVaU/4Fl5UBc8KTnn+v15WyQK/+ojsVWnN8qzp+7VYcBzlLXYbHgBfFWftFTJekJP7FOp3HOrhT/a4yld604/cwZ/dvgxpPejMUbLSsnQqIyaTckZ9QRL/eIZHpvXumYweJDPEt8xOPFB9m/xR+k/LCI53OmLWzl8r+LzmUQSUZS2l1aVfmZ4oJ0gupYbLI+kJz2oOogwPnkfB7iRfYwf+OONaceEggEzhDn0Zni+z+Ir+SWbl/UELaICuYikUfe6Uq/FExOt3+SlOaK+qQdVFcTW+wTb+XX7Z41Z7TT/FXDSaNBjDN5O/1o8Re6i4+jS2O31UXS3yu2sUUk6a/E33uFc15M6UM3yWE69v82EA/ksMbc0jGXkMFWR2tHm0gR51WlETD+JH9n1bFAbKnv0Pi4/Jq9yZ1UVkaZBvHJjLFjxXW8j3htf4B/7hfX/i0ifXwlzsFPxPfFFODFniEFn9kTfeQ5JmnvzzvInOd7Qf3XPuIDYvd8fGo7831llVYd0DlVV5c1vmzaYusDhbg2c/Dij7y+nGmM6AnVsVjsBu+QJetVBwGxTS5CIl5W1H+ZZCLfUUmdqVpPJD3QWg+Q/G83+Wt3NX3tdy7HJu2m1LXI1UwvB9AYT3rBk7m+nMHi6LxSdSyW4Fz2A8GYbFCiPpF/pzoOu8Rc0gaIRm3bsCm7yqi30+fb3x/ntLQbbf+z6jgA4gWSNoANzLWFS8afoVPtYtHiHq46nojgtCq5KvHsySc6pxMPgNMhaQPYRC6Uc/e6U0+rrQksIEZDVcfTEpx4oeFn7ptPfLtcdSwA8QRJG8BGcjk/0eIepXH/64yRW3U8zbQkuTJpAhI2gP2QtAFsVr807Rl6ddnDROwa1fGEhdOTgfLKKTePzI+pHrkAToGkDaBA/Xjma3N9bh8n/igjlqI6pgOR8xxwxv88K8OctQoAFEHSBlBoZnr+c56SMSt1Rs+LVneW6ngaI59fM6b/nyd94QbVsQDEOyRtAMXkfMeeZSNO1FsnTSONzRTJO011TJJI1uVy7vRjv0ybU7+YDwAohqQNEAXqZ2168M5VJ7/oT0y8Q7y/hBElKApHxMKfNnTD6x245GdFMQBAI5C0AaLIbUPf+0m8XOlZk3OnZtBNoqV7GUVggYTQ8Ari7DnmCjw0Y+CSr+0pEwDCgaQNEIW8gwo2i5dr7l536m3+2sCFnGiOpQVyfl2AEl7yZry73dJyAKBFkLQBopgc1y1e5np8YxbpnJ3FGbkZUTYRS23Jdjnn1cToQ9GyXsSYtmBmBjqZATgBkjaAA3jTF38hXu6XX0+VpCdso87pBqMBIv0eK1rhRzFi3UQi7ir+fypjlCSTuvj5bvF9GeO8nDP2lXj/pfj7G3XSSmqT26zDMpoAzoOkDeAwkzPMub4L678AII4gaQMAADgEkjYAAIBDIGkDAAA4BJI2AACAQyBpAwAAOASSNgAAgEMgaQMAADgEkjYAAIBDIGkDAAA4BJI2AACAQyBpAwAAOASSNgAAgEMgaQMAADgEkjYAAIBDIGkDAAA4BJI2AACAQyBpAwAAOASSNgAAgEMgaQMAADjE/wM+BbVe3iAqugAAAABJRU5ErkJggg==;" parent="1" vertex="1">
          <mxGeometry x="253" y="70" width="85.72" height="85.72" as="geometry" />
        </mxCell>
        <mxCell id="EgpE4ko5B40qQ6mzI_Y0-22" value="" style="rounded=0;orthogonalLoop=1;jettySize=auto;html=1;entryX=1.024;entryY=0.48;entryDx=0;entryDy=0;entryPerimeter=0;startArrow=classic;startFill=1;" edge="1" parent="1">
          <mxGeometry relative="1" as="geometry">
            <mxPoint x="468" y="486.6201908674627" as="sourcePoint" />
            <mxPoint x="381.048" y="486" as="targetPoint" />
          </mxGeometry>
        </mxCell>
      </root>
    </mxGraphModel>
  </diagram>
</mxfile>
